<svg width="32" height="32" viewBox="0 0 32 32" fill="none" xmlns="http://www.w3.org/2000/svg">
<path d="M31.5938 7.8125C31.4688 7.66667 31.3229 7.5625 31.1562 7.5C30.9896 7.4375 30.8229 7.40625 30.6562 7.40625C30.4896 7.40625 30.3229 7.4375 30.1562 7.5C29.9896 7.5625 29.8438 7.66667 29.7188 7.8125L13.75 23.7812C13.7292 23.8021 13.7135 23.8229 13.7031 23.8438C13.6927 23.8646 13.6875 23.8854 13.6875 23.9062L13.2812 25.3438L13.1562 25.8438C13.1354 25.9479 13.1562 26.0469 13.2188 26.1406C13.2812 26.2344 13.3646 26.2812 13.4688 26.2812C13.4896 26.2812 13.5052 26.276 13.5156 26.2656C13.526 26.2552 13.5417 26.25 13.5625 26.25L15.5 25.75C15.5208 25.7292 15.5469 25.7135 15.5781 25.7031C15.6094 25.6927 15.6354 25.6771 15.6562 25.6562L31.5938 9.6875C31.8646 9.4375 32 9.125 32 8.75C32 8.375 31.8646 8.0625 31.5938 7.8125ZM5 12H21V10H5V12ZM5 20V22H12L14 20H5ZM5 15V17H17L19 15H5ZM5 27H11V25H5V27ZM25 30H2V2H25V10L27 8V0H0V32H27V17L25 19V30ZM5 7H21V5H5V7Z" fill="white"/>
</svg>
