<svg width="23" height="23" viewBox="0 0 23 23" fill="none" xmlns="http://www.w3.org/2000/svg">
<path d="M20.8359 0H1.24219C0.882812 0 0.585938 0.117188 0.351562 0.351562C0.117188 0.585938 0 0.882812 0 1.24219V20.8828C0 21.2109 0.117188 21.4922 0.351562 21.7266C0.585938 21.9609 0.882812 22.0781 1.24219 22.0781H11.8125V13.5234H8.92969V10.1719H11.8125V7.73438C11.8125 6.3125 12.207 5.21875 12.9961 4.45312C13.7852 3.6875 14.8125 3.30469 16.0781 3.30469C16.5156 3.30469 16.9492 3.31641 17.3789 3.33984C17.8086 3.36328 18.2422 3.39844 18.6797 3.44531V6.42188H16.8984C16.1953 6.42188 15.7461 6.57422 15.5508 6.87891C15.3555 7.18359 15.2578 7.57812 15.2578 8.0625V10.1719H18.5859L18.1406 13.5234H15.2578V22.0781H20.8828C21.2109 22.0781 21.5 21.9609 21.75 21.7266C22 21.4922 22.125 21.1953 22.125 20.8359V1.24219C22.1094 0.882812 21.9805 0.585938 21.7383 0.351562C21.4961 0.117188 21.1953 0 20.8359 0Z" fill="white"/>
</svg>
