<svg width="33" height="32" viewBox="0 0 33 32" fill="none" xmlns="http://www.w3.org/2000/svg">
<path d="M32 7.8125C31.875 7.66667 31.7292 7.5625 31.5625 7.5C31.3958 7.4375 31.2292 7.40625 31.0625 7.40625C30.8958 7.40625 30.7292 7.4375 30.5625 7.5C30.3958 7.5625 30.25 7.66667 30.125 7.8125L14.1562 23.7812C14.1354 23.8021 14.1198 23.8229 14.1094 23.8438C14.099 23.8646 14.0938 23.8854 14.0938 23.9062L13.6875 25.3438L13.5625 25.8438C13.5417 25.9479 13.5625 26.0469 13.625 26.1406C13.6875 26.2344 13.7708 26.2812 13.875 26.2812C13.8958 26.2812 13.9115 26.276 13.9219 26.2656C13.9323 26.2552 13.9479 26.25 13.9688 26.25L15.9062 25.75C15.9271 25.7292 15.9531 25.7135 15.9844 25.7031C16.0156 25.6927 16.0417 25.6771 16.0625 25.6562L32 9.6875C32.2708 9.4375 32.4062 9.125 32.4062 8.75C32.4062 8.375 32.2708 8.0625 32 7.8125ZM5.40625 12H21.4062V10H5.40625V12ZM5.40625 20V22H12.4062L14.4062 20H5.40625ZM5.40625 15V17H17.4062L19.4062 15H5.40625ZM5.40625 27H11.4062V25H5.40625V27ZM25.4062 30H2.40625V2H25.4062V10L27.4062 8V0H0.40625V32H27.4062V17L25.4062 19V30ZM5.40625 7H21.4062V5H5.40625V7Z" fill="white"/>
</svg>
