<svg width="23" height="23" viewBox="0 0 23 23" fill="none" xmlns="http://www.w3.org/2000/svg">
<path d="M20.4375 0H1.64062C1.17188 0 0.78125 0.15625 0.46875 0.46875C0.15625 0.78125 0 1.15625 0 1.59375V20.4844C0 20.9219 0.15625 21.2969 0.46875 21.6094C0.78125 21.9219 1.17188 22.0781 1.64062 22.0781H20.4375C20.9062 22.0781 21.2969 21.9219 21.6094 21.6094C21.9219 21.2969 22.0781 20.9219 22.0781 20.4844V1.59375C22.0781 1.15625 21.9219 0.78125 21.6094 0.46875C21.2969 0.15625 20.9062 0 20.4375 0ZM6.67969 18.4688H3.35156V8.48438H6.72656V18.4688H6.67969ZM5.03906 7.14844C4.46094 7.14844 4.00391 6.98047 3.66797 6.64453C3.33203 6.30859 3.16406 5.89844 3.16406 5.41406C3.16406 4.94531 3.33984 4.54297 3.69141 4.20703C4.04297 3.87109 4.49219 3.70312 5.03906 3.70312C5.61719 3.70312 6.06641 3.87109 6.38672 4.20703C6.70703 4.54297 6.88281 4.94531 6.91406 5.41406C6.91406 5.89844 6.74609 6.30859 6.41016 6.64453C6.07422 6.98047 5.61719 7.14844 5.03906 7.14844ZM18.7266 18.4688H15.3516V13.1484C15.3516 12.4766 15.2227 11.9336 14.9648 11.5195C14.707 11.1055 14.2812 10.8984 13.6875 10.8984C13.2188 10.8984 12.8438 11.0273 12.5625 11.2852C12.2812 11.543 12.0781 11.8125 11.9531 12.0938C11.9062 12.1875 11.8789 12.3125 11.8711 12.4688C11.8633 12.625 11.8594 12.7734 11.8594 12.9141V18.4688H8.55469C8.55469 18.4688 8.55469 18 8.55469 17.0625C8.55469 16.1094 8.55469 15.0391 8.55469 13.8516C8.55469 12.6641 8.55469 11.5312 8.55469 10.4531C8.55469 9.39062 8.55469 8.73438 8.55469 8.48438H11.8594V9.89062C12.0781 9.54688 12.4141 9.1875 12.8672 8.8125C13.3203 8.4375 13.9922 8.25 14.8828 8.25C15.9766 8.25 16.8906 8.61719 17.625 9.35156C18.3594 10.0859 18.7266 11.2109 18.7266 12.7266V18.4688Z" fill="white"/>
</svg>
