<svg width="141" height="50" viewBox="0 0 141 50" fill="none" xmlns="http://www.w3.org/2000/svg">
<path fill-rule="evenodd" clip-rule="evenodd" d="M8.94714 26.6794L5.10622 22.8373C3.94675 21.6641 2.03729 21.6708 0.872963 22.8343C-0.290988 23.9987 -0.290988 25.9003 0.872963 27.0646L0.899814 27.0907L6.47119 32.6617H32.4842L23.7108 41.4389L18.3852 36.1204H9.93059L23.7111 49.8979L41.986 31.6257L41.5377 31.1797C40.096 29.7438 38.6579 28.3043 37.2206 26.8647L37.0356 26.6794H8.94714ZM23.7111 8.46118L14.9302 17.2384H40.9463L46.5385 22.8366C47.7017 24.0009 47.7036 25.8999 46.5408 27.0642C45.3779 28.2286 43.4763 28.2301 42.312 27.0669L38.464 23.2207H10.3818L5.4359 18.2736L23.7115 -0.000114441L37.4854 13.7797H29.0278L23.7111 8.46118Z" fill="white"/>
<path fill-rule="evenodd" clip-rule="evenodd" d="M61.6177 32.3841C62.7552 32.3841 63.5652 32.1857 64.0478 31.7886C64.5308 31.3917 64.7721 30.9144 64.7721 30.3565C64.7721 29.8414 64.5845 29.4282 64.2089 29.1172C63.8334 28.8061 63.2699 28.5324 62.5191 28.2963L60.8775 27.7813C59.9761 27.5023 59.1608 27.1969 58.4313 26.8642C57.7015 26.5316 57.0798 26.1344 56.5648 25.6731C56.0497 25.2117 55.6473 24.6646 55.3575 24.0314C55.0678 23.3985 54.9227 22.6313 54.9227 21.7303C54.9227 19.9279 55.6044 18.5006 56.9664 17.4493C58.3295 16.398 60.2229 15.8722 62.6478 15.8722C63.5705 15.8722 64.4234 15.9363 65.2069 16.0653C65.9901 16.194 66.6603 16.3924 67.2186 16.6606C67.7761 16.9291 68.2162 17.2561 68.538 17.6425C68.8595 18.0289 69.021 18.4794 69.021 18.9944C69.021 19.4878 68.8976 19.9223 68.6507 20.2979C68.4042 20.6734 68.1196 20.9897 67.7978 21.2474C67.3044 20.9043 66.6498 20.6145 65.8342 20.3784C65.019 20.142 64.1284 20.0241 63.1628 20.0241C62.1328 20.0241 61.3712 20.1852 60.8775 20.5071C60.3841 20.8289 60.1375 21.2369 60.1375 21.7303C60.1375 22.1592 60.2983 22.4866 60.6201 22.7119C60.942 22.9372 61.4462 23.168 62.1328 23.4037L63.8707 23.9833C64.8795 24.3267 65.7645 24.6967 66.5268 25.0935C67.2883 25.4907 67.9268 25.9412 68.4418 26.4454C68.9569 26.95 69.3428 27.5296 69.6006 28.1841C69.8579 28.8386 69.9865 29.5837 69.9865 30.4206C69.9865 31.322 69.8098 32.1428 69.4555 32.8828C69.1016 33.6234 68.5757 34.2619 67.8787 34.7982C67.1809 35.3345 66.3228 35.7529 65.3031 36.0535C64.2839 36.3541 63.1095 36.5044 61.7785 36.5044C60.7917 36.5044 59.8798 36.4238 59.043 36.2627C58.2061 36.102 57.4818 35.8711 56.8702 35.5709C56.2586 35.2703 55.7756 34.9 55.4217 34.4603C55.0678 34.0206 54.8906 33.5216 54.8906 32.9637C54.8906 32.3841 55.057 31.9012 55.3896 31.5152C55.7223 31.1288 56.0922 30.8178 56.5002 30.5817C57.0798 31.0535 57.804 31.4723 58.6726 31.8367C59.5419 32.2018 60.5235 32.3841 61.6177 32.3841Z" fill="white"/>
<path fill-rule="evenodd" clip-rule="evenodd" d="M87.7219 32.7383C87.7219 33.7467 87.2818 34.5194 86.4017 35.0557C85.7155 35.485 84.8682 35.8229 83.8594 36.0697C82.8509 36.3163 81.7351 36.4397 80.5118 36.4397C79.3531 36.4397 78.3018 36.3163 77.3571 36.0697C76.4136 35.8229 75.6036 35.4313 74.9274 34.895C74.2513 34.3583 73.7258 33.6825 73.3503 32.8669C72.9747 32.0517 72.7871 31.0645 72.7871 29.9058V20.5393C73.0228 20.4748 73.3338 20.4107 73.7202 20.3462C74.1066 20.282 74.5358 20.2496 75.0076 20.2496C75.9735 20.2496 76.6653 20.4107 77.0841 20.7325C77.5022 21.0544 77.7114 21.6656 77.7114 22.567V29.8733C77.7114 30.8389 77.9583 31.5314 78.4517 31.9495C78.9451 32.3679 79.6425 32.5775 80.5439 32.5775C81.1018 32.5775 81.5688 32.529 81.9439 32.4324C82.3195 32.3359 82.604 32.234 82.7972 32.127V20.5393C83.0117 20.4748 83.3123 20.4107 83.6983 20.3462C84.0846 20.282 84.5139 20.2496 84.9856 20.2496C85.9516 20.2496 86.649 20.4107 87.0782 20.7325C87.5071 21.0544 87.7219 21.6656 87.7219 22.567V32.7383Z" fill="white"/>
<path fill-rule="evenodd" clip-rule="evenodd" d="M117.496 16.0331C117.496 15.3033 117.748 14.6812 118.253 14.1662C118.757 13.6511 119.417 13.3938 120.232 13.3938C121.048 13.3938 121.707 13.6511 122.212 14.1662C122.716 14.6812 122.968 15.3033 122.968 16.0331C122.968 16.7838 122.716 17.4171 122.212 17.9321C121.707 18.4471 121.048 18.7045 120.232 18.7045C119.417 18.7045 118.757 18.4471 118.253 17.9321C117.748 17.4171 117.496 16.7838 117.496 16.0331ZM122.678 35.9247C122.464 35.9892 122.163 36.0481 121.777 36.1022C121.391 36.1555 120.962 36.1824 120.49 36.1824C119.524 36.1824 118.832 36.0269 118.414 35.7155C117.995 35.4044 117.786 34.798 117.786 33.897V20.668C118 20.6039 118.301 20.5393 118.687 20.4748C119.074 20.4107 119.503 20.3782 119.975 20.3782C120.94 20.3782 121.632 20.5393 122.051 20.8612C122.469 21.183 122.678 21.7947 122.678 22.6961V35.9247ZM108.838 21.6019H114.31C114.417 21.8159 114.53 22.0841 114.648 22.4059C114.766 22.7278 114.825 23.0821 114.825 23.4684C114.825 24.155 114.669 24.6488 114.358 24.949C114.047 25.2492 113.644 25.3995 113.151 25.3995H109.063V35.9247C108.849 35.9892 108.548 36.0481 108.162 36.1022C107.776 36.1555 107.347 36.1824 106.874 36.1824C105.909 36.1824 105.212 36.0269 104.782 35.7155C104.353 35.4044 104.138 34.798 104.138 33.897V20.2175C104.138 19.1658 104.316 18.254 104.67 17.4816C105.024 16.7092 105.512 16.0812 106.134 15.5986C106.756 15.1157 107.486 14.7565 108.323 14.5204C109.16 14.284 110.061 14.1662 111.026 14.1662C112.55 14.1662 113.682 14.3649 114.422 14.7617C115.163 15.1586 115.533 15.8078 115.533 16.7092C115.533 17.1169 115.452 17.4764 115.291 17.7874C115.13 18.0984 114.943 18.3401 114.728 18.5113C114.321 18.3826 113.886 18.2756 113.425 18.1894C112.964 18.1037 112.443 18.0608 111.864 18.0608C110.877 18.0608 110.125 18.2379 109.61 18.5918C109.095 18.9458 108.838 19.5414 108.838 20.3782V21.6019ZM96.0916 21.6019H101.564C101.671 21.8159 101.783 22.0841 101.902 22.4059C102.02 22.7278 102.079 23.0821 102.079 23.4684C102.079 24.155 101.923 24.6488 101.612 24.949C101.301 25.2492 100.898 25.3995 100.405 25.3995H96.3173V35.9247C96.1025 35.9892 95.8019 36.0481 95.4159 36.1022C95.0295 36.1555 94.6006 36.1824 94.1281 36.1824C93.1626 36.1824 92.4655 36.0269 92.0363 35.7155C91.607 35.4044 91.3926 34.798 91.3926 33.897V20.2175C91.3926 19.1658 91.5697 18.254 91.9236 17.4816C92.2776 16.7092 92.7654 16.0812 93.3882 15.5986C94.0103 15.1157 94.7397 14.7565 95.5766 14.5204C96.4135 14.284 97.3149 14.1662 98.2804 14.1662C99.8039 14.1662 100.936 14.3649 101.676 14.7617C102.417 15.1586 102.787 15.8078 102.787 16.7092C102.787 17.1169 102.706 17.4764 102.545 17.7874C102.384 18.0984 102.196 18.3401 101.982 18.5113C101.575 18.3826 101.14 18.2756 100.679 18.1894C100.217 18.1037 99.6969 18.0608 99.1173 18.0608C98.1301 18.0608 97.3794 18.2379 96.864 18.5918C96.349 18.9458 96.0916 19.5414 96.0916 20.3782V21.6019Z" fill="white"/>
<path fill-rule="evenodd" clip-rule="evenodd" d="M127.088 31.4186C127.56 30.8607 128.032 30.2972 128.504 29.7288C128.976 29.1605 129.459 28.597 129.952 28.039L125.543 22.728C125.693 21.9769 125.999 21.3764 126.46 20.9259C126.921 20.475 127.485 20.2498 128.15 20.2498C128.472 20.2498 128.751 20.2871 128.987 20.3624C129.223 20.4374 129.443 20.55 129.647 20.7003C129.851 20.8506 130.044 21.0386 130.226 21.2634C130.408 21.4891 130.607 21.7412 130.822 22.0201L133.139 25.1424L136.808 20.2822C136.894 20.2606 136.98 20.2498 137.066 20.2498H137.291C138.192 20.2498 138.911 20.443 139.448 20.829C139.984 21.2153 140.253 21.7196 140.253 22.342C140.253 22.8354 140.134 23.2755 139.898 23.6618C139.663 24.0478 139.233 24.5841 138.611 25.2711L136.1 28.1356L140.478 33.8972C140.37 34.6483 140.081 35.2327 139.608 35.6515C139.137 36.07 138.558 36.2788 137.871 36.2788C137.162 36.2576 136.588 36.0483 136.149 35.6515C135.709 35.2543 135.274 34.7553 134.845 34.1545L132.785 31.1934L129.244 36.1826C129.159 36.1826 129.051 36.1878 128.923 36.1986C128.794 36.2094 128.686 36.2147 128.601 36.2147C127.635 36.2147 126.895 36.0107 126.38 35.603C125.865 35.1954 125.607 34.6912 125.607 34.09C125.607 33.6395 125.714 33.2371 125.929 32.8832C126.143 32.5293 126.53 32.0411 127.088 31.4186Z" fill="white"/>
</svg>
