<svg width="61" height="61" viewBox="0 0 61 61" fill="none" xmlns="http://www.w3.org/2000/svg">
<path d="M44.0542 26.0146L43.2109 27.6832H36.6175L35.7743 26.0146H21.5918V29.1095C21.5989 29.5624 21.785 29.994 22.1094 30.31C22.4339 30.6261 22.8702 30.8008 23.3231 30.796H56.5143C56.7396 30.7972 56.963 30.7537 57.1714 30.668C57.3798 30.5823 57.5692 30.4561 57.7285 30.2968C57.8878 30.1374 58.014 29.9481 58.0997 29.7397C58.1854 29.5313 58.2289 29.3079 58.2277 29.0826V26.0146H44.0542Z" fill="#006E81"/>
<path d="M4.5656 12.7917H17.7972C18.0351 12.7917 18.2633 12.6972 18.4315 12.5289C18.5998 12.3607 18.6943 12.1325 18.6943 11.8946C18.6943 11.6567 18.5998 11.4285 18.4315 11.2603C18.2633 11.0921 18.0351 10.9976 17.7972 10.9976H3.66854C3.43063 10.9976 3.20246 11.0921 3.03423 11.2603C2.866 11.4285 2.77148 11.6567 2.77148 11.8946V26.0143C2.77148 26.2522 2.866 26.4804 3.03423 26.6486C3.20246 26.8169 3.43063 26.9114 3.66854 26.9114C3.90646 26.9114 4.13463 26.8169 4.30286 26.6486C4.47109 26.4804 4.5656 26.2522 4.5656 26.0143V12.7917Z" fill="#006E81"/>
<path d="M55.384 38.8877C55.146 38.8877 54.9179 38.9822 54.7496 39.1504C54.5814 39.3187 54.4869 39.5468 54.4869 39.7848V53.0164H41.2642C41.0263 53.0164 40.7982 53.1109 40.6299 53.2791C40.4617 53.4473 40.3672 53.6755 40.3672 53.9134C40.3672 54.1513 40.4617 54.3795 40.6299 54.5477C40.7982 54.716 41.0263 54.8105 41.2642 54.8105H55.384C55.6219 54.8105 55.85 54.716 56.0183 54.5477C56.1865 54.3795 56.281 54.1513 56.281 53.9134V39.7848C56.281 39.5468 56.1865 39.3187 56.0183 39.1504C55.85 38.9822 55.6219 38.8877 55.384 38.8877Z" fill="#006E81"/>
<path d="M56.3265 4.48522C56.3265 3.92374 56.1034 3.38526 55.7064 2.98824C55.3094 2.59121 54.7709 2.36816 54.2094 2.36816H25.6112C25.0497 2.36816 24.5112 2.59121 24.1142 2.98824C23.7172 3.38526 23.4941 3.92374 23.4941 4.48522V24.2205H56.3265V4.48522ZM54.5324 22.4264H25.2883V4.48522C25.2905 4.40029 25.3253 4.31946 25.3854 4.25938C25.4454 4.1993 25.5263 4.16455 25.6112 4.16228H54.2094C54.2951 4.16228 54.3772 4.19631 54.4378 4.25687C54.4984 4.31743 54.5324 4.39957 54.5324 4.48522V22.4264Z" fill="#006E81"/>
<path d="M43.0595 11.7962V10.0021C43.0824 9.57267 43.0176 9.14308 42.869 8.73953C42.7204 8.33598 42.4912 7.96692 42.1953 7.65485C41.8994 7.34279 41.5431 7.09426 41.148 6.92442C40.7529 6.75458 40.3274 6.66699 39.8974 6.66699C39.4673 6.66699 39.0418 6.75458 38.6467 6.92442C38.2517 7.09426 37.8953 7.34279 37.5994 7.65485C37.3036 7.96692 37.0743 8.33598 36.9258 8.73953C36.7772 9.14308 36.7124 9.57267 36.7352 10.0021V11.7962C36.3315 11.8214 35.9525 11.9997 35.6758 12.2948C35.399 12.5898 35.2453 12.9794 35.2461 13.384V18.1743C35.2449 18.3855 35.2856 18.5948 35.3659 18.7902C35.4462 18.9855 35.5644 19.163 35.7138 19.3124C35.8631 19.4617 36.0406 19.58 36.236 19.6602C36.4313 19.7405 36.6407 19.7812 36.8519 19.78H42.9339C43.3598 19.78 43.7682 19.6109 44.0693 19.3097C44.3705 19.0086 44.5396 18.6002 44.5396 18.1743V13.384C44.5385 12.9815 44.3853 12.5943 44.1109 12.2999C43.8364 12.0055 43.4609 11.8256 43.0595 11.7962ZM40.3683 16.4878H39.4713V15.0794H40.3683V16.4878ZM41.7229 11.7872H38.1346V9.99312C38.1346 9.51729 38.3237 9.06095 38.6601 8.72449C38.9966 8.38803 39.4529 8.199 39.9288 8.199C40.4046 8.199 40.8609 8.38803 41.1974 8.72449C41.5339 9.06095 41.7229 9.51729 41.7229 9.99312V11.7872Z" fill="#006E81"/>
<path d="M35.2268 36.7795H6.62852C6.34597 36.7759 6.06555 36.8288 5.8038 36.9353C5.54205 37.0418 5.30426 37.1996 5.10445 37.3994C4.90464 37.5992 4.74685 37.837 4.64038 38.0987C4.53392 38.3605 4.48093 38.6409 4.48455 38.9234V58.5959H37.3169V38.9234C37.3205 38.6454 37.2692 38.3694 37.1661 38.1112C37.063 37.853 36.91 37.6176 36.7159 37.4185C36.5218 37.2194 36.2904 37.0605 36.0349 36.9509C35.7794 36.8412 35.5048 36.783 35.2268 36.7795ZM35.5497 56.7749H6.27867V38.9234C6.27456 38.8765 6.28079 38.8292 6.29691 38.7848C6.31304 38.7405 6.33868 38.7003 6.37202 38.6669C6.40537 38.6336 6.44561 38.608 6.48992 38.5918C6.53424 38.5757 6.58154 38.5695 6.62852 38.5736H35.2268C35.3124 38.5736 35.3945 38.6076 35.4551 38.6682C35.5157 38.7287 35.5497 38.8109 35.5497 38.8965V56.7749Z" fill="#006E81"/>
<path d="M24.0587 48.7554H17.7793C17.475 48.7542 17.1735 48.8133 16.8922 48.9291C16.6109 49.045 16.3552 49.2155 16.1401 49.4306C15.9249 49.6458 15.7545 49.9014 15.6386 50.1827C15.5227 50.464 15.4637 50.7655 15.4649 51.0698V53.761H26.3731V51.0698C26.3743 50.7655 26.3152 50.464 26.1993 50.1827C26.0834 49.9014 25.913 49.6458 25.6979 49.4306C25.4827 49.2155 25.2271 49.045 24.9458 48.9291C24.6644 48.8133 24.3629 48.7542 24.0587 48.7554Z" fill="#006E81"/>
<path d="M20.9286 47.6518C21.5241 47.6554 22.1072 47.4819 22.604 47.1535C23.1007 46.8251 23.4887 46.3564 23.7186 45.8071C23.9486 45.2578 24.0101 44.6525 23.8955 44.0682C23.7808 43.4838 23.4952 42.9467 23.0747 42.525C22.6542 42.1033 22.118 41.816 21.534 41.6996C20.9499 41.5832 20.3445 41.6429 19.7945 41.8712C19.2445 42.0995 18.7747 42.4861 18.4448 42.9818C18.1149 43.4776 17.9397 44.0602 17.9414 44.6557C17.9414 45.4487 18.2559 46.2095 18.8158 46.7711C19.3758 47.3328 20.1355 47.6495 20.9286 47.6518Z" fill="#006E81"/>
</svg>
