<svg width="57" height="57" viewBox="0 0 57 57" fill="none" xmlns="http://www.w3.org/2000/svg">
<path d="M54.2934 23.3246H50.9899C50.3625 23.3246 49.8061 22.9173 49.6366 22.333C49.1965 20.8052 48.5742 19.323 47.8052 17.9115C47.5068 17.3752 47.6181 16.6948 48.0582 16.2471L50.4031 13.9022C51.4528 12.8525 51.4528 11.1425 50.4031 10.0953L46.8997 6.5919C45.8499 5.54215 44.14 5.54215 43.0927 6.5919L40.7479 8.93676C40.3002 9.38448 39.6222 9.48819 39.0835 9.18971C37.677 8.41821 36.1897 7.7985 34.6619 7.35836C34.0801 7.18888 33.6652 6.63238 33.6652 6.0051V2.70153C33.6652 1.21164 32.4612 0 30.9713 0H26.0185C24.5362 0 23.3246 1.21164 23.3246 2.70153V6.0051C23.3246 6.63242 22.9173 7.18889 22.333 7.35836C20.8052 7.79849 19.323 8.42073 17.9115 9.18971C17.3752 9.48819 16.6948 9.37689 16.2471 8.93676L13.9022 6.5919C12.8525 5.54215 11.1425 5.54215 10.0953 6.5919L6.5919 10.0953C5.54215 11.1451 5.54215 12.855 6.5919 13.9022L8.93676 16.2471C9.38449 16.6948 9.48819 17.3727 9.18971 17.9115C8.41316 19.323 7.7985 20.8053 7.35836 22.333C7.18888 22.9148 6.63238 23.3297 6.0051 23.3297H2.70153C1.21164 23.3297 0 24.5338 0 26.0237V30.9764C0 32.4587 1.21164 33.6704 2.70153 33.6704H6.0051C6.63242 33.6704 7.18889 34.0776 7.35836 34.6619C7.79849 36.1847 8.41316 37.672 9.18971 39.0835C9.48819 39.6197 9.37689 40.3002 8.93676 40.7479L6.5919 43.0927C6.08094 43.5986 5.80266 44.2765 5.80266 44.9975C5.80266 45.7159 6.08091 46.3963 6.5919 46.9022L10.0953 50.4056C10.6012 50.9165 11.2791 51.1948 12 51.1948C12.7184 51.1948 13.3989 50.9166 13.9047 50.4056L16.2496 48.0607C16.6973 47.613 17.3828 47.5093 17.914 47.8078C19.3255 48.5793 20.8078 49.199 22.3356 49.6391C22.9174 49.8086 23.3322 50.3651 23.3322 50.9924V54.2959C23.3322 55.7858 24.5363 56.9975 26.0262 56.9975H30.9789C32.4613 56.9975 33.6729 55.7858 33.6729 54.2959V50.9924C33.6729 50.3651 34.0801 49.8086 34.6644 49.6391C36.1872 49.199 37.6745 48.5843 39.086 47.8078C39.6222 47.5169 40.3027 47.6206 40.7504 48.0607L43.0953 50.4056C43.6012 50.9165 44.2791 51.1948 45 51.1948C45.7184 51.1948 46.3988 50.9166 46.9047 50.4056L50.4081 46.9022C50.9191 46.3963 51.1973 45.7184 51.1973 44.9975C51.1973 44.2791 50.9191 43.5986 50.4081 43.0927L48.0632 40.7479C47.6155 40.3002 47.5118 39.6222 47.8103 39.0835C48.5868 37.672 49.2015 36.1897 49.6416 34.6619C49.8111 34.0801 50.3676 33.6653 50.9949 33.6653H54.2985C55.7884 33.6653 57 32.4612 57 30.9713V26.0185C57 24.5362 55.7884 23.3246 54.2985 23.3246H54.2934ZM55.7251 30.9664C55.7251 31.7505 55.0851 32.3905 54.2934 32.3905H50.9899C49.8061 32.3905 48.7487 33.1746 48.4198 34.2952C48.005 35.732 47.4232 37.1308 46.6972 38.4588C46.1331 39.4883 46.3228 40.791 47.1626 41.6308L49.5075 43.9756C49.7807 44.2488 49.9274 44.6029 49.9274 44.9849C49.9274 45.3669 49.7782 45.7235 49.5075 45.9942L46.0041 49.4976C45.4678 50.0338 44.5269 50.0338 43.983 49.4976L41.6382 47.1527C40.7958 46.3104 39.4881 46.1156 38.4662 46.6873C37.1382 47.4183 35.7394 47.995 34.3026 48.4175C33.182 48.7489 32.3979 49.8036 32.3979 50.9875V54.2911C32.3979 55.0803 31.7579 55.7227 30.9738 55.7227H26.021C25.2369 55.7227 24.5969 55.0828 24.5969 54.2911V50.9875C24.5969 49.8037 23.8128 48.7464 22.6922 48.4175C21.2554 48.0026 19.8566 47.4208 18.5286 46.6949C18.134 46.4748 17.699 46.3711 17.2664 46.3711C16.5683 46.3711 15.8752 46.6443 15.3566 47.1603L13.0118 49.5052C12.4755 50.0414 11.5346 50.0414 10.9907 49.5052L7.48729 46.0018C7.2141 45.7286 7.06739 45.3745 7.06739 44.9925C7.06739 44.6105 7.21663 44.2539 7.48729 43.9832L9.83215 41.6384C10.6745 40.796 10.8693 39.4959 10.2976 38.4664C9.56656 37.1384 8.98985 35.7396 8.56738 34.3028C8.23601 33.1822 7.18123 32.3981 5.99737 32.3981H2.6938C1.90456 32.3981 1.26212 31.7581 1.26212 30.974V26.0212C1.26212 25.2371 1.90209 24.5971 2.6938 24.5971H5.99737C7.18116 24.5971 8.23849 23.813 8.56738 22.6924C8.98222 21.2556 9.56403 19.8568 10.29 18.5288C10.8541 17.4993 10.6644 16.1966 9.82458 15.3568L7.47972 13.012C6.92322 12.4555 6.92322 11.5474 7.47972 10.9909L10.9831 7.4875C11.5396 6.931 12.4477 6.931 13.0042 7.4875L15.3491 9.83236C16.1914 10.6747 17.4916 10.8695 18.521 10.2978C19.849 9.56676 21.2478 8.99005 22.6846 8.56759C23.8052 8.23622 24.5893 7.18143 24.5893 5.99757V2.69401C24.5893 1.90477 25.2293 1.26233 26.0134 1.26233H30.9662C31.7503 1.26233 32.3903 1.9023 32.3903 2.69401V5.99757C32.3903 7.18137 33.1744 8.23869 34.295 8.56759C35.7318 8.98242 37.1306 9.56424 38.4586 10.2902C39.4805 10.8543 40.7908 10.6646 41.6306 9.82478L43.9754 7.47992C44.5319 6.92343 45.44 6.92343 45.9965 7.47992L49.4999 10.9833C50.0564 11.5398 50.0564 12.4479 49.4999 13.0044L47.1551 15.3493C46.3127 16.1916 46.1179 17.4918 46.6896 18.5212C47.4207 19.8493 47.9974 21.248 48.4198 22.6848C48.7512 23.8054 49.806 24.5895 50.9899 24.5895H54.2934C55.0827 24.5895 55.7251 25.2295 55.7251 26.0136V30.9664Z" fill="#006E81"/>
<path d="M40.4558 18.7083C40.4229 18.6425 40.385 18.5844 40.3395 18.5388V18.5312L35.6447 14.1021C35.6447 14.1021 35.5739 14.0566 35.541 14.0363C35.5081 14.0161 35.4828 13.9908 35.4499 13.9781C35.3715 13.9453 35.2956 13.9326 35.2096 13.9326H17.4401C16.9089 13.9326 16.4688 14.3601 16.4688 14.8837V42.1063C16.4688 42.6299 16.9038 43.0574 17.4401 43.0574H39.5605C40.0917 43.0574 40.5319 42.6299 40.5319 42.1063V18.9918C40.5319 18.9008 40.5116 18.8173 40.4813 18.7465C40.4813 18.7338 40.4611 18.7262 40.456 18.7136L40.4558 18.7083ZM35.8395 16.027L38.3058 18.3593H35.8395V16.027ZM39.2645 41.7874H17.7384V15.1975H34.5749V18.6807C34.5749 19.2043 35.0099 19.6318 35.5462 19.6318H39.2696V41.7905L39.2645 41.7874Z" fill="#006E81"/>
<path d="M20.9064 21.5227H26.9873C27.3364 21.5227 27.6222 21.2369 27.6222 20.8878C27.6222 20.5388 27.3364 20.2529 26.9873 20.2529H20.9064C20.5573 20.2529 20.2715 20.5388 20.2715 20.8878C20.2715 21.2369 20.5573 21.5227 20.9064 21.5227Z" fill="#006E81"/>
<path d="M20.2715 24.4372C20.2715 24.7862 20.5573 25.0721 20.9064 25.0721H36.1038C36.4529 25.0721 36.7388 24.7862 36.7388 24.4372C36.7388 24.0881 36.4529 23.8022 36.1038 23.8022H20.9064C20.5573 23.8022 20.2715 24.0881 20.2715 24.4372Z" fill="#006E81"/>
<path d="M20.9064 28.6209H33.061C33.4101 28.6209 33.6959 28.3351 33.6959 27.986C33.6959 27.6369 33.4101 27.3511 33.061 27.3511H20.9064C20.5573 27.3511 20.2715 27.6369 20.2715 27.986C20.2715 28.3351 20.5573 28.6209 20.9064 28.6209Z" fill="#006E81"/>
<path d="M20.9064 32.1648H30.0227C30.3717 32.1648 30.6576 31.879 30.6576 31.5299C30.6576 31.1809 30.3717 30.895 30.0227 30.895H20.9064C20.5573 30.895 20.2715 31.1809 20.2715 31.5299C20.2715 31.879 20.5573 32.1648 20.9064 32.1648Z" fill="#006E81"/>
<path d="M26.9795 34.4438H20.8986C20.5495 34.4438 20.2637 34.7297 20.2637 35.0788C20.2637 35.4278 20.5495 35.7137 20.8986 35.7137H26.9795C27.3286 35.7137 27.6144 35.4278 27.6144 35.0788C27.6144 34.7297 27.3286 34.4438 26.9795 34.4438Z" fill="#006E81"/>
<path d="M36.0988 37.9932H29.5119C29.1628 37.9932 28.877 38.279 28.877 38.6281C28.877 38.9771 29.1628 39.263 29.5119 39.263H36.0988C36.4479 39.263 36.7337 38.9771 36.7337 38.6281C36.7337 38.279 36.4479 37.9932 36.0988 37.9932Z" fill="#006E81"/>
</svg>
