<svg width="57" height="57" viewBox="0 0 57 57" fill="none" xmlns="http://www.w3.org/2000/svg">
<path d="M46.8214 39.5405H32.8089C32.4048 39.5406 32.0064 39.6365 31.6466 39.8206C31.2868 40.0046 30.9758 40.2715 30.7393 40.5991C30.629 40.7539 30.4835 40.8801 30.3148 40.9675C30.146 41.0548 29.9589 41.1006 29.7689 41.1013H27.2311C27.0411 41.1006 26.854 41.0548 26.6852 40.9675C26.5165 40.8801 26.371 40.7539 26.2607 40.5991C26.0242 40.2715 25.7132 40.0046 25.3534 39.8206C24.9936 39.6365 24.5952 39.5406 24.1911 39.5405H10.1786C10.0894 39.5402 10.001 39.5576 9.91854 39.5916C9.83607 39.6255 9.76114 39.6755 9.69807 39.7386C9.63499 39.8017 9.58502 39.8766 9.55103 39.9591C9.51704 40.0415 9.4997 40.1299 9.5 40.2191V43.0284C9.50148 43.9278 9.85941 44.7899 10.4954 45.4259C11.1313 46.0618 11.9935 46.4198 12.8928 46.4212H44.1072C45.0065 46.4198 45.8687 46.0618 46.5046 45.4259C47.1406 44.7899 47.4985 43.9278 47.5 43.0284V40.2191C47.5003 40.1299 47.483 40.0415 47.449 39.9591C47.415 39.8766 47.365 39.8017 47.3019 39.7386C47.2389 39.6755 47.1639 39.6255 47.0815 39.5916C46.999 39.5576 46.9106 39.5402 46.8214 39.5405Z" fill="#006E81"/>
<path d="M28.4991 28.222C30.2438 28.222 31.9494 27.7047 33.4001 26.7354C34.8508 25.7661 35.9814 24.3883 36.6491 22.7764C37.3168 21.1645 37.4915 19.3908 37.1511 17.6796C36.8108 15.9684 35.9706 14.3966 34.7369 13.1629C33.5032 11.9292 31.9314 11.089 30.2202 10.7486C28.509 10.4082 26.7353 10.5829 25.1234 11.2506C23.5114 11.9183 22.1337 13.049 21.1644 14.4996C20.1951 15.9503 19.6777 17.6559 19.6777 19.4006C19.6879 21.737 20.6205 23.9749 22.2727 25.627C23.9248 27.2792 26.1626 28.2119 28.4991 28.222ZM23.9459 18.9256C24.074 18.7985 24.2472 18.7271 24.4277 18.7271C24.6082 18.7271 24.7813 18.7985 24.9095 18.9256L27.142 21.1581L32.0888 16.2114C32.2165 16.0878 32.3876 16.0192 32.5653 16.0203C32.7431 16.0215 32.9133 16.0922 33.0394 16.2175C33.1656 16.3427 33.2376 16.5124 33.24 16.6901C33.2424 16.8679 33.175 17.0395 33.0523 17.1681L27.6238 22.5967C27.4956 22.7237 27.3224 22.7949 27.142 22.7949C26.9615 22.7949 26.7884 22.7237 26.6602 22.5967L23.9459 19.8824C23.883 19.8196 23.8331 19.7451 23.799 19.663C23.7649 19.5809 23.7474 19.4929 23.7474 19.404C23.7474 19.3151 23.7649 19.2271 23.799 19.145C23.8331 19.0629 23.883 18.9884 23.9459 18.9256Z" fill="#006E81"/>
<path d="M27.3206 39.7443H29.6821C30.0469 39.2596 30.5194 38.8662 31.0623 38.5954C31.6052 38.3245 32.2036 38.1835 32.8103 38.1836H45.7371V17.304C45.7118 16.7815 45.4805 16.2904 45.0939 15.9381C44.7073 15.5858 44.1968 15.401 43.6742 15.4243L37.8655 15.4242C40.7868 21.9204 35.6359 29.726 28.5015 29.5792C21.3645 29.722 16.2196 21.9289 19.1371 15.4244H13.3285C12.8059 15.4011 12.2955 15.5858 11.9088 15.9381C11.5222 16.2904 11.2909 16.7815 11.2656 17.304V38.1836H24.1924C24.7991 38.1835 25.3976 38.3245 25.9404 38.5954C26.4833 38.8662 26.9558 39.2596 27.3206 39.7443Z" fill="#006E81"/>
<path d="M28.5 0C22.8632 0 17.3531 1.6715 12.6663 4.80311C7.97946 7.93473 4.32654 12.3858 2.16945 17.5935C0.0123489 22.8012 -0.552046 28.5316 0.547632 34.0601C1.64731 39.5885 4.36167 44.6667 8.34747 48.6525C12.3333 52.6383 17.4115 55.3527 22.9399 56.4524C28.4684 57.552 34.1988 56.9876 39.4065 54.8306C44.6142 52.6735 49.0653 49.0205 52.1969 44.3337C55.3285 39.6469 57 34.1368 57 28.5C56.9915 20.9439 53.986 13.6998 48.6431 8.3569C43.3002 3.01396 36.056 0.00854899 28.5 0ZM28.5 55.4701C23.1658 55.4701 17.9514 53.8884 13.5162 50.9249C9.08097 47.9613 5.62413 43.7492 3.58283 38.821C1.54152 33.8929 1.00742 28.4701 2.04807 23.2384C3.08872 18.0067 5.65738 13.2011 9.42922 9.42921C13.2011 5.65736 18.0067 3.08871 23.2384 2.04806C28.4701 1.00741 33.8929 1.54151 38.821 3.58281C43.7492 5.62412 47.9614 9.08095 50.9249 13.5162C53.8884 17.9514 55.4702 23.1658 55.4702 28.5C55.462 35.6504 52.6178 42.5056 47.5617 47.5617C42.5056 52.6178 35.6504 55.462 28.5 55.4701Z" fill="#006E81"/>
</svg>
