<svg width="58" height="58" viewBox="0 0 58 58" fill="none" xmlns="http://www.w3.org/2000/svg">
<path d="M36.4772 9.28355H33.0792C32.1766 7.81863 30.5597 6.89912 28.8341 6.89912C27.1109 6.89912 25.4843 7.81863 24.589 9.28355H21.191C20.7952 9.28355 20.4742 9.60452 20.4742 10.0003V12.0759H17.1124C15.0127 12.0759 13.3064 13.7821 13.3064 15.8818V44.2145C13.3064 46.3141 15.0127 48.0204 17.1124 48.0204H40.5531C42.6528 48.0204 44.3591 46.3142 44.3591 44.2145V15.8818C44.3591 13.7822 42.6528 12.0759 40.5531 12.0759H37.1913L37.1937 10.0003C37.1937 9.60456 36.8731 9.28355 36.4772 9.28355ZM21.9078 10.7171H25.0089C25.2816 10.7171 25.535 10.5626 25.6509 10.3165C26.2494 9.1122 27.4971 8.32781 28.8317 8.32781C30.1663 8.32781 31.414 9.10732 32.0125 10.3165C32.1356 10.5626 32.3841 10.7171 32.6545 10.7171H35.7556V14.5471H21.9078V10.7171ZM40.5536 13.5166C41.8641 13.5166 42.9259 14.5785 42.9259 15.8889V44.2216C42.9259 45.532 41.864 46.5939 40.5536 46.5939H17.1147C15.8042 46.5939 14.7424 45.532 14.7424 44.2216V15.8815C14.7424 14.571 15.8043 13.5091 17.1147 13.5091H20.4765V15.2636C20.4765 15.6594 20.7975 15.9804 21.1933 15.9804H36.477C36.8728 15.9804 37.1938 15.6595 37.1938 15.2636V13.5091H40.5532L40.5536 13.5166ZM26.5612 21.5606H38.7755C39.1713 21.5606 39.4923 21.8816 39.4923 22.2774C39.4923 22.6732 39.1714 22.9942 38.7755 22.9942H26.5612C26.1654 22.9942 25.8444 22.6732 25.8444 22.2774C25.8444 21.8816 26.1606 21.5606 26.5612 21.5606ZM24.3071 20.1753C24.5847 20.4529 24.5847 20.9114 24.3071 21.1889L21.107 24.3891C20.9646 24.5314 20.786 24.599 20.6002 24.599C20.4144 24.599 20.2358 24.5314 20.0934 24.3891L18.3872 22.6828C18.1096 22.4053 18.1096 21.9467 18.3872 21.6692C18.6647 21.3917 19.1232 21.3917 19.4007 21.6692L20.6002 22.8687L23.2935 20.1753C23.5711 19.893 24.0272 19.893 24.3071 20.1753ZM39.492 28.1514C39.492 28.5472 39.171 28.8682 38.7752 28.8682H26.5608C26.165 28.8682 25.844 28.5472 25.844 28.1514C25.844 27.7556 26.165 27.4346 26.5608 27.4346H38.7752C39.171 27.4346 39.492 27.7556 39.492 28.1514ZM24.3071 26.0445C24.5847 26.3221 24.5847 26.7806 24.3071 27.0581L21.107 30.2582C20.9646 30.4006 20.786 30.4682 20.6002 30.4682C20.4144 30.4682 20.2358 30.4006 20.0934 30.2582L18.3872 28.552C18.1096 28.2745 18.1096 27.8159 18.3872 27.5384C18.6647 27.2609 19.1232 27.2609 19.4007 27.5384L20.6002 28.7378L23.2935 26.0445C23.5711 25.767 24.0272 25.767 24.3071 26.0445ZM39.492 34.028C39.492 34.4238 39.171 34.7448 38.7752 34.7448H26.5608C26.165 34.7448 25.844 34.4238 25.844 34.028C25.844 33.6322 26.165 33.3112 26.5608 33.3112H38.7752C39.171 33.3112 39.492 33.6322 39.492 34.028ZM24.3071 31.9211C24.5847 32.1987 24.5847 32.6572 24.3071 32.9347L21.1118 36.1348C20.9694 36.2772 20.7908 36.3448 20.605 36.3448C20.4192 36.3448 20.2406 36.2772 20.0982 36.1348L18.392 34.4286C18.1144 34.1511 18.1144 33.6925 18.392 33.415C18.6695 33.1375 19.128 33.1375 19.4056 33.415L20.605 34.6144L23.2983 31.9211C23.5711 31.6363 24.0272 31.6363 24.3071 31.9211ZM39.492 39.8972C39.492 40.293 39.171 40.614 38.7752 40.614H26.5608C26.165 40.614 25.844 40.293 25.844 39.8972C25.844 39.5014 26.165 39.1804 26.5608 39.1804H38.7752C39.171 39.1804 39.492 39.5014 39.492 39.8972ZM24.3071 37.7903C24.5847 38.0678 24.5847 38.5264 24.3071 38.8039L21.1118 42.004C20.9694 42.1464 20.7908 42.214 20.605 42.214C20.4192 42.214 20.2406 42.1464 20.0982 42.004L18.392 40.2978C18.1144 40.0203 18.1144 39.5617 18.392 39.2842C18.6695 39.0067 19.128 39.0067 19.4056 39.2842L20.605 40.4836L23.2983 37.7903C23.5711 37.5128 24.0272 37.5128 24.3071 37.7903ZM1.4335 28.851C1.4335 33.9722 2.85499 38.9703 5.54832 43.3025C5.75828 43.6428 5.65451 44.082 5.31905 44.292C5.2008 44.3668 5.07289 44.403 4.94257 44.403C4.70123 44.403 4.46713 44.2848 4.33198 44.0628C1.4963 39.5039 0 34.2449 0 28.8588C0 21.1551 2.99743 13.913 8.44687 8.47062C13.8962 3.02606 21.1314 0.0163411 28.835 0.0163411C33.6352 0.0163411 38.3315 1.20373 42.5185 3.46262L41.8331 0.904461C41.7269 0.520737 41.9562 0.124954 42.3399 0.0259792C42.7236 -0.0802122 43.1194 0.149062 43.2184 0.532785L44.3551 4.76586C44.4613 5.14958 44.232 5.54536 43.8483 5.64434L39.6152 6.78101C39.5524 6.80031 39.4921 6.80514 39.4294 6.80514C39.1132 6.80514 38.8236 6.59518 38.7367 6.2742C38.6305 5.89047 38.8598 5.49469 39.2435 5.39572L41.8065 4.7103C37.8365 2.57449 33.3813 1.44987 28.8347 1.44987C13.7296 1.44987 1.43306 13.7433 1.43306 28.8515L1.4335 28.851ZM57.6695 28.851C57.6695 36.5547 54.6721 43.7968 49.2227 49.2392C43.7733 54.6813 36.5332 57.686 28.8345 57.686C22.9773 57.686 17.4122 55.9678 12.6241 52.7L13.1068 55.2147C13.1816 55.6033 12.9282 55.9798 12.5372 56.0546C12.4938 56.0619 12.4455 56.0667 12.4021 56.0667C12.0618 56.0667 11.765 55.8253 11.6974 55.4851L10.8696 51.1796C10.8334 50.9937 10.8769 50.7959 10.9807 50.6414C11.0868 50.4797 11.2534 50.3759 11.4368 50.3397L15.7423 49.512C16.1308 49.4372 16.5073 49.6906 16.5821 50.0815C16.6569 50.4701 16.4035 50.8466 16.0126 50.9214L13.3241 51.4403C17.895 54.5922 23.2284 56.2477 28.8326 56.2477C43.9378 56.2477 56.2343 43.9586 56.2343 28.846C56.2343 22.6871 54.2384 16.8732 50.4639 12.0227C50.2226 11.7066 50.2781 11.2577 50.587 11.0163C50.9032 10.775 51.3521 10.8305 51.5934 11.1394C55.5682 16.2461 57.6702 22.369 57.6702 28.8511L57.6695 28.851Z" fill="white"/>
</svg>
