<svg width="57" height="49" viewBox="0 0 57 49" fill="none" xmlns="http://www.w3.org/2000/svg">
<path d="M56.3178 15.6083L14.3622 0.0644797C13.8256 -0.133824 13.2294 0.140583 13.0315 0.677655C13.0311 0.67809 13.0311 0.678525 13.0306 0.67896L8.38615 13.3212C8.18872 13.8583 8.46399 14.4541 9.00106 14.6515H9.00193L13.8652 16.4371L12.7936 19.3565C12.5966 19.8935 12.8719 20.4884 13.409 20.6859L23.1371 24.2575L22.4222 26.2036C21.7725 27.9466 22.3787 29.9087 23.899 30.9807V36.2688H9.95605C9.28112 34.7258 7.89996 33.6056 6.25047 33.2638V31.0877C6.25047 30.5154 5.7869 30.0514 5.21416 30.0514H1.03631C0.464013 30.0514 0 30.5154 0 31.0877V47.6673C0 48.2401 0.464013 48.7036 1.03631 48.7036H5.21416C5.7869 48.7036 6.25047 48.2401 6.25047 47.6673V45.4916C7.89996 45.1494 9.28112 44.0296 9.95605 42.4862H23.899V43.5225C23.899 45.2394 25.2907 46.6314 27.0075 46.6314C28.7244 46.6314 30.1165 45.2394 30.1165 43.5225V32.0431C31.0584 31.576 31.786 30.7659 32.1486 29.7787L32.8636 27.8326L41.6185 31.0451C41.7329 31.0872 41.8533 31.1085 41.9751 31.1085C42.4095 31.1085 42.7983 30.8376 42.9484 30.4297L43.3367 29.3716C46.7087 30.0061 49.9564 27.787 50.5904 24.4154C50.8248 23.1694 50.6726 21.8818 50.1543 20.725L56.436 17.4995C56.9453 17.2386 57.1466 16.6141 56.8857 16.1049C56.7674 15.8735 56.5665 15.6952 56.323 15.6052L56.3178 15.6083ZM25.9712 31.9248L26.8292 32.2357C27.2198 32.3758 27.6294 32.4562 28.0439 32.4741V36.2688H25.9712V31.9248ZM4.17829 46.6314H2.07262V32.124H4.17829V46.6314ZM8.32309 40.414C8.32135 41.7308 7.49161 42.9046 6.25047 43.3455V35.4099C7.49161 35.8504 8.32135 37.0242 8.32309 38.3414V40.414ZM10.4279 38.3414H28.0439V40.414H10.4279V38.3414ZM27.0075 44.5588C26.4352 44.5588 25.9712 44.0948 25.9712 43.5225V42.4862H28.0439V43.5225C28.0439 44.0948 27.5798 44.5588 27.0075 44.5588ZM30.9184 27.119L30.2034 29.0651C29.8086 30.1383 28.6183 30.6889 27.5442 30.2949L25.5951 29.5808C24.5209 29.1864 23.9695 27.9957 24.3639 26.9211C24.3639 26.9211 24.3639 26.9211 24.3639 26.9207L25.0793 24.9759L30.3317 26.9042L30.9184 27.119ZM41.3606 28.7459L15.0959 19.1012L15.8112 17.1551L31.3746 22.8703C31.7429 23.0042 32.156 22.9203 32.4426 22.6524L35.3506 19.9148L43.5037 22.9094L41.3606 28.7459ZM48.3669 24.6959C47.7103 26.4662 45.9442 27.5726 44.0651 27.3904L45.6663 23.0285L48.2817 21.6817C48.6909 22.6393 48.7213 23.717 48.3669 24.6959ZM44.8692 21.1129C44.8144 21.1177 44.7601 21.1273 44.7066 21.1416L35.4676 17.7492C35.0993 17.6139 34.6861 17.6978 34.4 17.9666L31.4885 20.7046L10.6888 13.0664L14.6175 2.36932L53.3893 16.7337L44.8692 21.1129Z" fill="#006E81"/>
</svg>
