<svg width="57" height="56" viewBox="0 0 57 56" fill="none" xmlns="http://www.w3.org/2000/svg">
<path d="M42.75 55.9998C42.5933 55.9998 42.4365 55.9694 42.2892 55.9088C41.724 55.6731 28.5 50.0591 28.5 38.5838V28.8328C28.5 28.3311 28.8254 27.8878 29.3075 27.7268L42.37 23.3938C42.617 23.3121 42.8854 23.3121 43.13 23.3938L56.1925 27.7268C56.6746 27.8854 57 28.3311 57 28.8328V38.5838C57 50.0591 43.776 55.6731 43.2108 55.9088C43.0635 55.9694 42.9067 55.9998 42.75 55.9998ZM30.875 29.6728V38.5838C30.875 47.4131 40.5056 52.4858 42.75 53.5474C44.992 52.4834 54.625 47.3898 54.625 38.5838V29.6728L42.75 25.7318L30.875 29.6728Z" fill="#006E81"/>
<path d="M41.5614 44.3336C41.54 44.3336 41.5162 44.3336 41.4972 44.3313C41.1576 44.3126 40.8465 44.1563 40.6351 43.8949L35.8851 38.0616C35.4766 37.5576 35.5574 36.8249 36.0704 36.4213C36.5857 36.0246 37.3291 36.1039 37.74 36.6033L41.6587 41.4169L49.0331 34.1743C49.4962 33.7193 50.2491 33.7193 50.7122 34.1743C51.1754 34.6293 51.1754 35.3689 50.7122 35.8239L42.3997 43.9906C42.1789 44.2099 41.8749 44.3336 41.5614 44.3336Z" fill="#006E81"/>
<path d="M43.9375 18.6668H8.3125C3.72875 18.6668 0 15.0035 0 10.5002C0 5.99683 3.72875 2.3335 8.3125 2.3335H43.9375C48.5213 2.3335 52.25 5.99683 52.25 10.5002C52.25 15.0035 48.5213 18.6668 43.9375 18.6668ZM8.3125 4.66683C5.03738 4.66683 2.375 7.2825 2.375 10.5002C2.375 13.7178 5.03738 16.3335 8.3125 16.3335H43.9375C47.2126 16.3335 49.875 13.7178 49.875 10.5002C49.875 7.2825 47.2126 4.66683 43.9375 4.66683H8.3125Z" fill="#006E81"/>
<path d="M10.6875 14C8.72337 14 7.125 12.4297 7.125 10.5C7.125 8.57033 8.72337 7 10.6875 7C12.6516 7 14.25 8.57033 14.25 10.5C14.25 12.4297 12.6516 14 10.6875 14ZM10.6875 9.33333C10.0344 9.33333 9.5 9.85833 9.5 10.5C9.5 11.1417 10.0344 11.6667 10.6875 11.6667C11.3406 11.6667 11.875 11.1417 11.875 10.5C11.875 9.85833 11.3406 9.33333 10.6875 9.33333Z" fill="#006E81"/>
<path d="M22.5625 14C20.5984 14 19 12.4297 19 10.5C19 8.57033 20.5984 7 22.5625 7C24.5266 7 26.125 8.57033 26.125 10.5C26.125 12.4297 24.5266 14 22.5625 14ZM22.5625 9.33333C21.9094 9.33333 21.375 9.85833 21.375 10.5C21.375 11.1417 21.9094 11.6667 22.5625 11.6667C23.2156 11.6667 23.75 11.1417 23.75 10.5C23.75 9.85833 23.2156 9.33333 22.5625 9.33333Z" fill="#006E81"/>
<path d="M22.5625 32.6668H8.3125C3.72875 32.6668 0 29.0035 0 24.5002C0 22.3208 0.8645 20.2722 2.43675 18.7275C4.009 17.1828 6.09425 16.3335 8.3125 16.3335H43.9375C45.7948 16.3335 47.5451 16.9192 48.9915 18.0275C49.5093 18.4242 49.6019 19.1568 49.1981 19.6655C48.7944 20.1718 48.0486 20.2628 47.5309 19.8685C46.5049 19.0822 45.2627 18.6668 43.9375 18.6668H8.3125C6.73075 18.6668 5.23925 19.2758 4.11588 20.3772C2.9925 21.4785 2.375 22.9462 2.375 24.5002C2.375 27.7178 5.03737 30.3335 8.3125 30.3335H22.5625C23.218 30.3335 23.75 30.8562 23.75 31.5002C23.75 32.1442 23.218 32.6668 22.5625 32.6668Z" fill="#006E81"/>
<path d="M10.6875 28C8.72337 28 7.125 26.4297 7.125 24.5C7.125 22.5703 8.72337 21 10.6875 21C12.6516 21 14.25 22.5703 14.25 24.5C14.25 26.4297 12.6516 28 10.6875 28ZM10.6875 23.3333C10.0344 23.3333 9.5 23.8583 9.5 24.5C9.5 25.1417 10.0344 25.6667 10.6875 25.6667C11.3406 25.6667 11.875 25.1417 11.875 24.5C11.875 23.8583 11.3406 23.3333 10.6875 23.3333Z" fill="#006E81"/>
<path d="M22.5625 28C20.5984 28 19 26.4297 19 24.5C19 22.5703 20.5984 21 22.5625 21C24.5266 21 26.125 22.5703 26.125 24.5C26.125 26.4297 24.5266 28 22.5625 28ZM22.5625 23.3333C21.9094 23.3333 21.375 23.8583 21.375 24.5C21.375 25.1417 21.9094 25.6667 22.5625 25.6667C23.2156 25.6667 23.75 25.1417 23.75 24.5C23.75 23.8583 23.2156 23.3333 22.5625 23.3333Z" fill="#006E81"/>
<path d="M22.5625 46.6668H8.3125C3.72875 46.6668 0 43.0035 0 38.5002C0 36.3208 0.8645 34.2722 2.43675 32.7275C4.009 31.1828 6.09425 30.3335 8.3125 30.3335H22.5625C23.218 30.3335 23.75 30.8562 23.75 31.5002C23.75 32.1442 23.218 32.6668 22.5625 32.6668H8.3125C6.73075 32.6668 5.23925 33.2758 4.11588 34.3772C2.9925 35.4785 2.375 36.9462 2.375 38.5002C2.375 41.7178 5.03738 44.3335 8.3125 44.3335H22.5625C23.218 44.3335 23.75 44.8562 23.75 45.5002C23.75 46.1442 23.218 46.6668 22.5625 46.6668Z" fill="#006E81"/>
<path d="M10.6875 42C8.72337 42 7.125 40.4297 7.125 38.5C7.125 36.5703 8.72337 35 10.6875 35C12.6516 35 14.25 36.5703 14.25 38.5C14.25 40.4297 12.6516 42 10.6875 42ZM10.6875 37.3333C10.0344 37.3333 9.5 37.8583 9.5 38.5C9.5 39.1417 10.0344 39.6667 10.6875 39.6667C11.3406 39.6667 11.875 39.1417 11.875 38.5C11.875 37.8583 11.3406 37.3333 10.6875 37.3333Z" fill="#006E81"/>
<path d="M22.5625 42C20.5984 42 19 40.4297 19 38.5C19 36.5703 20.5984 35 22.5625 35C24.5266 35 26.125 36.5703 26.125 38.5C26.125 40.4297 24.5266 42 22.5625 42ZM22.5625 37.3333C21.9094 37.3333 21.375 37.8583 21.375 38.5C21.375 39.1417 21.9094 39.6667 22.5625 39.6667C23.2156 39.6667 23.75 39.1417 23.75 38.5C23.75 37.8583 23.2156 37.3333 22.5625 37.3333Z" fill="#006E81"/>
</svg>
