<svg width="57" height="57" viewBox="0 0 57 57" fill="none" xmlns="http://www.w3.org/2000/svg">
<path d="M3.67773 42.224V46.9624C3.67773 47.7901 4.34891 48.4613 5.17661 48.4613H9.91506C10.7428 48.4613 11.4139 47.7901 11.4139 46.9624V42.224C11.4139 41.3963 10.7428 40.7251 9.91506 40.7251H5.17661C4.34891 40.7251 3.67773 41.3963 3.67773 42.224ZM10.5413 42.224V46.9624C10.5413 47.3039 10.2662 47.5885 9.91524 47.5885L5.17679 47.5861C4.83528 47.5861 4.55072 47.311 4.55072 46.9601V42.2216C4.55072 41.8801 4.82583 41.5955 5.17679 41.5955H9.91524C10.2544 41.5979 10.5413 41.8848 10.5413 42.224Z" fill="white"/>
<path d="M8.14788 53.2705H4.10908C3.86955 53.2705 3.66797 53.4626 3.66797 53.7116C3.66797 53.9511 3.86007 54.1527 4.10908 54.1527H8.13841C8.37794 54.1527 8.57952 53.9606 8.57952 53.7116C8.57952 53.465 8.38741 53.2705 8.14788 53.2705Z" fill="white"/>
<path d="M10.9727 50.5957H4.10908C3.86955 50.5957 3.66797 50.7878 3.66797 51.0368C3.66797 51.2763 3.86007 51.4779 4.10908 51.4779H10.9727C11.2122 51.4779 11.4138 51.2858 11.4138 51.0368C11.4138 50.7973 11.2217 50.5957 10.9727 50.5957Z" fill="white"/>
<path d="M24.625 44.5979C24.625 46.7323 26.3634 48.4707 28.4978 48.4707C30.6322 48.4707 32.3706 46.7323 32.3706 44.5979C32.3706 42.4635 30.6322 40.7251 28.4978 40.7251C26.3634 40.7251 24.625 42.4635 24.625 44.5979ZM31.4886 44.5979C31.4886 46.2438 30.1463 47.5885 28.498 47.5885C26.8521 47.5885 25.5074 46.2462 25.5074 44.5979C25.5074 42.952 26.8497 41.6073 28.498 41.6073C30.1439 41.5978 31.4886 42.9425 31.4886 44.5979Z" fill="white"/>
<path d="M29.0954 53.2705H25.0661C24.8266 53.2705 24.625 53.4626 24.625 53.7116C24.625 53.9511 24.8171 54.1527 25.0661 54.1527H29.0954C29.335 54.1527 29.5366 53.9606 29.5366 53.7116C29.5366 53.465 29.3445 53.2705 29.0954 53.2705Z" fill="white"/>
<path d="M31.9297 50.5957H25.0661C24.8266 50.5957 24.625 50.7878 24.625 51.0368C24.625 51.2763 24.8171 51.4779 25.0661 51.4779H31.9297C32.1692 51.4779 32.3708 51.2858 32.3708 51.0368C32.3708 50.7973 32.1692 50.5957 31.9297 50.5957Z" fill="white"/>
<path d="M56.1214 38.3898L52.5806 35.6767C52.047 35.2712 51.3853 35.0411 50.7142 35.0411H49.8865V33.0632C49.8865 31.9414 48.9663 31.0212 47.8445 31.0212H28.938V27.9382C28.938 27.6987 28.7459 27.4971 28.4969 27.4971C28.2478 27.4971 28.0557 27.6892 28.0557 27.9382V31.0189L9.14249 31.0212C8.0207 31.0212 7.10054 31.9414 7.10054 33.0632V35.0411H6.27284C5.60166 35.0411 4.94002 35.2617 4.40641 35.6767L0.865643 38.3898C0.322549 38.8049 0 39.457 0 40.1472V54.782C0 55.9962 0.993686 56.9899 2.20794 56.9899H12.8703C14.0846 56.9899 15.0783 55.9962 15.0783 54.782L15.0759 40.1447C15.0759 39.4641 14.7534 38.8119 14.2102 38.3874L10.6695 35.6743C10.1359 35.2687 9.47416 35.0387 8.80304 35.0387H7.97535V33.0608C7.97535 32.4157 8.49947 31.8916 9.14455 31.8916H28.0578V35.0387H27.2301C26.5589 35.0387 25.8973 35.2592 25.3637 35.6743L21.8229 38.3874C21.2798 38.8024 20.9573 39.4546 20.9573 40.1447V54.7795C20.9573 55.9938 21.9509 56.9875 23.1652 56.9875H33.8324C35.0467 56.9875 36.0404 55.9938 36.0404 54.7795V40.1447C36.0404 39.4641 35.7178 38.8119 35.1747 38.3874L31.634 35.6743C31.1004 35.2687 30.4386 35.0387 29.7675 35.0387H28.9398V31.8916H47.8531C48.4981 31.8916 49.0223 32.4157 49.0223 33.0608V35.0387H48.1946C47.5234 35.0387 46.8618 35.2592 46.3282 35.6743L42.7874 38.3874C42.2443 38.8024 41.9217 39.4546 41.9217 40.1447V54.7795C41.9217 55.9938 42.9154 56.9875 44.1297 56.9875H54.7921C56.0063 56.9875 57 55.9938 57 54.7795L56.9929 40.1447C56.9858 39.457 56.6632 38.8024 56.1201 38.3898L56.1214 38.3898ZM8.81035 35.9234C9.28941 35.9234 9.75898 36.0799 10.1432 36.374L13.6839 39.0871C14.016 39.3361 14.2081 39.7322 14.2081 40.1448V54.7797C14.2081 55.5148 13.6104 56.1125 12.8752 56.1125L2.21468 56.1149C1.47951 56.1149 0.881853 55.5172 0.881853 54.782V40.1448C0.881853 39.7298 1.07395 39.3361 1.40597 39.0871L4.94674 36.3739C5.32382 36.0798 5.80291 35.9233 6.27957 35.9233H7.10727V36.687C6.40767 36.8791 5.88354 37.5147 5.88354 38.2783C5.88354 39.189 6.62824 39.9337 7.54841 39.9337C8.46857 39.9337 9.21327 39.189 9.21327 38.2783C9.21327 37.5147 8.68915 36.8791 7.98955 36.687V35.9233L8.81035 35.9234ZM7.53204 37.4957C7.54153 37.4957 7.54153 37.4957 7.53204 37.4957H7.55101C7.98264 37.4957 8.33366 37.8443 8.33366 38.2784C8.33366 38.71 7.98503 39.061 7.55101 39.061C7.11938 39.061 6.76836 38.7124 6.76836 38.2784C6.75888 37.8372 7.10041 37.4957 7.53204 37.4957ZM29.7559 35.9234C30.235 35.9234 30.7046 36.0799 31.0888 36.374L34.6295 39.0871C34.9616 39.3361 35.1537 39.7322 35.1537 40.1448V54.7797C35.1537 55.5148 34.556 56.1125 33.8208 56.1125L23.1603 56.1149C22.4251 56.1149 21.8275 55.5172 21.8275 54.782V40.1448C21.8275 39.7298 22.0196 39.3361 22.3516 39.0871L25.8923 36.3739C26.2694 36.0798 26.7485 35.9233 27.2252 35.9233H28.0529V36.687C27.3533 36.8791 26.8291 37.5147 26.8291 38.2783C26.8291 39.189 27.5738 39.9337 28.494 39.9337C29.4142 39.9337 30.1589 39.189 30.1589 38.2783C30.1589 37.5147 29.6348 36.8791 28.9351 36.687V35.9233L29.7559 35.9234ZM28.4966 37.4957C28.9283 37.4957 29.2793 37.8443 29.2793 38.2784C29.2793 38.71 28.9307 39.061 28.4966 39.061C28.065 39.061 27.714 38.7124 27.714 38.2784C27.714 37.8372 28.0555 37.4957 28.4966 37.4957ZM56.1112 54.7727C56.1112 55.5079 55.5136 56.1056 54.7784 56.1056H44.116C43.3809 56.1056 42.7832 55.5079 42.7832 54.7727V40.1446C42.7832 39.7296 42.9753 39.3359 43.3073 39.0869L46.8481 36.3737C47.2252 36.0797 47.7043 35.9231 48.1809 35.9231H49.0086V36.6868C48.309 36.8789 47.7849 37.5145 47.7849 38.2781C47.7849 39.1888 48.5296 39.9335 49.4498 39.9335C50.3699 39.9335 51.1146 39.1888 51.1146 38.2781C51.1146 37.5145 50.5905 36.8789 49.8909 36.6868V35.9231H50.7186C51.1977 35.9231 51.6672 36.0797 52.0514 36.3737L55.5922 39.0869C55.9242 39.3359 56.1163 39.7319 56.1163 40.1446L56.1211 54.7727H56.1112ZM49.4517 37.4957C49.8833 37.4957 50.2343 37.8443 50.2343 38.2784C50.2343 38.71 49.8857 39.061 49.4517 39.061C49.02 39.061 48.669 38.7124 48.669 38.2784C48.6595 37.8372 49.0105 37.4957 49.4517 37.4957Z" fill="white"/>
<path d="M50.6195 42.3165C50.361 41.9109 49.9294 41.6714 49.4503 41.6714C48.9713 41.6714 48.5302 41.9109 48.2811 42.3165L45.7981 46.2438C45.523 46.6755 45.5135 47.1996 45.753 47.6502C45.9926 48.1008 46.4526 48.3688 46.9673 48.3688H51.9358C52.4504 48.3688 52.901 48.1032 53.15 47.6502C53.3991 47.1996 53.3801 46.6755 53.105 46.2438L50.6195 42.3165ZM52.3769 47.2375C52.2844 47.4035 52.1184 47.5032 51.9263 47.5032H46.9578C46.7657 47.5032 46.5997 47.4012 46.5072 47.2375C46.4147 47.0715 46.4242 46.8794 46.5261 46.7229L49.0092 42.7955C49.1017 42.6485 49.2582 42.556 49.4408 42.556C49.6163 42.556 49.7728 42.639 49.8724 42.7955L52.3555 46.7229C52.4598 46.8794 52.4694 47.0715 52.3769 47.2375Z" fill="white"/>
<path d="M50.0505 53.2705H46.0212C45.7817 53.2705 45.5801 53.4626 45.5801 53.7116C45.5801 53.9511 45.7722 54.1527 46.0212 54.1527H50.0505C50.29 54.1527 50.4916 53.9606 50.4916 53.7116C50.4916 53.465 50.29 53.2705 50.0505 53.2705Z" fill="white"/>
<path d="M52.8848 50.5957H46.0212C45.7817 50.5957 45.5801 50.7878 45.5801 51.0368C45.5801 51.2763 45.7722 51.4779 46.0212 51.4779H52.8848C53.1243 51.4779 53.3259 51.2858 53.3259 51.0368C53.3164 50.7973 53.1243 50.5957 52.8848 50.5957Z" fill="white"/>
<path d="M13.9359 25.6847H43.0684C44.8613 25.6847 46.3246 24.2214 46.3246 22.4285V15.6669C46.3246 14.4621 45.6629 13.4139 44.6882 12.8423C45.6629 12.2803 46.3246 11.2225 46.3246 10.0178V3.25621C46.3246 1.4633 44.8613 0 43.0684 0H13.9359C12.143 0 10.6797 1.4633 10.6797 3.25621V10.0178C10.6797 11.2226 11.3414 12.2803 12.3161 12.8423C11.3414 13.4044 10.6797 14.4621 10.6797 15.6669V22.4285C10.6702 24.2214 12.1335 25.6847 13.9359 25.6847ZM11.543 10.0177V3.25615C11.543 1.93989 12.6102 0.872685 13.9265 0.872685H43.0589C44.3751 0.872685 45.4423 1.93989 45.4423 3.25615V10.0177C45.4423 11.334 44.3751 12.4012 43.0589 12.4012H13.9356C12.6193 12.4012 11.543 11.334 11.543 10.0177ZM11.543 15.6669C11.543 14.3506 12.6102 13.2834 13.9265 13.2834H43.0589C44.3751 13.2834 45.4423 14.3506 45.4423 15.6669V22.4285C45.4423 23.7447 44.3751 24.8119 43.0589 24.8119L13.9356 24.8095C12.6193 24.8095 11.5521 23.7423 11.5521 22.4261V15.6669L11.543 15.6669Z" fill="white"/>
<path d="M18.1474 3.23047C16.2715 3.23047 14.7441 4.75776 14.7441 6.64319C14.7441 8.5191 16.2714 10.0464 18.1474 10.0464C20.0234 10.0464 21.5601 8.51916 21.5601 6.64319C21.5601 4.76723 20.0352 3.23047 18.1474 3.23047ZM18.1474 9.1737C16.7576 9.1737 15.6169 8.04244 15.6169 6.64319C15.6169 5.24395 16.7481 4.11269 18.1474 4.11269C19.5466 4.11269 20.6779 5.25342 20.6779 6.64319C20.6874 8.03297 19.5466 9.1737 18.1474 9.1737Z" fill="white"/>
<path d="M42.1301 7.74609H24.5896C24.35 7.74609 24.1484 7.93819 24.1484 8.18721C24.1484 8.43622 24.3405 8.62832 24.5896 8.62832H42.1416C42.3811 8.62832 42.5827 8.43622 42.5827 8.18721C42.5804 7.94056 42.3791 7.74609 42.1301 7.74609Z" fill="white"/>
<path d="M42.1301 4.65576H24.5896C24.35 4.65576 24.1484 4.84786 24.1484 5.09688C24.1484 5.34589 24.3405 5.53799 24.5896 5.53799H42.1416C42.3811 5.53799 42.5827 5.34589 42.5827 5.09688C42.5804 4.85023 42.3791 4.65576 42.1301 4.65576Z" fill="white"/>
<path d="M18.1474 22.4566C20.0233 22.4566 21.5601 20.9293 21.5601 19.0534C21.5601 17.1774 20.0328 15.6406 18.1474 15.6406C16.2715 15.6406 14.7441 17.1679 14.7441 19.0534C14.7441 20.9293 16.2714 22.4566 18.1474 22.4566ZM18.1474 16.5134C19.5466 16.5134 20.6779 17.6541 20.6779 19.0439C20.6779 20.4337 19.5372 21.5744 18.1474 21.5744C16.7576 21.5744 15.6169 20.4431 15.6169 19.0439C15.6287 17.6541 16.76 16.5134 18.1474 16.5134Z" fill="white"/>
<path d="M24.5896 21.0292H42.1416C42.3812 21.0292 42.5828 20.8371 42.5828 20.5881C42.5828 20.3391 42.3906 20.147 42.1416 20.147H24.5896C24.35 20.147 24.1485 20.3391 24.1485 20.5881C24.1461 20.8371 24.3406 21.0292 24.5896 21.0292Z" fill="white"/>
<path d="M24.5896 17.9389H42.1416C42.3812 17.9389 42.5828 17.7468 42.5828 17.4978C42.5828 17.2487 42.3906 17.0566 42.1416 17.0566H24.5896C24.35 17.0566 24.1485 17.2487 24.1485 17.4978C24.1461 17.7468 24.3406 17.9389 24.5896 17.9389Z" fill="white"/>
</svg>
