<svg width="58" height="59" viewBox="0 0 58 59" fill="none" xmlns="http://www.w3.org/2000/svg">
<path d="M15.8632 59.0003C15.6563 59.0003 15.4546 58.9374 15.287 58.8196L7.42992 53.3092C3.99645 50.8867 1.79126 47.0892 1.38798 42.9091L0.442501 33.1795C0.387503 32.6243 0.796058 32.1319 1.3513 32.0769C1.90652 32.0245 2.39889 32.4305 2.45387 32.9857L3.39934 42.7154C3.74504 46.3112 5.64644 49.5795 8.60322 51.6592L15.8629 56.7688L23.1099 51.6592C26.0667 49.5771 27.9654 46.3113 28.3137 42.7154L29.5865 29.3666C21.1797 29.1309 17.3849 26.1479 15.863 24.3513C14.255 26.2343 10.1903 29.3875 1.00568 29.3875V29.3849C0.450466 29.3849 0 28.9371 0 28.3792C0 27.824 0.450466 27.3735 1.00568 27.3735C12.4034 27.3735 14.9257 22.2168 14.9438 22.1697V22.1723C15.114 21.8187 15.4702 21.5883 15.863 21.583C16.2585 21.583 16.6147 21.8161 16.7745 22.1775C16.7745 22.2168 19.3149 27.3735 30.7072 27.3735C30.99 27.3735 31.2598 27.4914 31.451 27.7009C31.6422 27.9104 31.7338 28.1933 31.705 28.4735L30.2908 42.909C29.8927 47.0889 27.6901 50.8861 24.2567 53.3092L16.4184 58.8195C16.256 58.9321 16.0622 58.995 15.8632 59.0003Z" fill="white"/>
<path d="M14.3632 45.2219C14.0934 45.2193 13.8394 45.1119 13.6508 44.9208L9.72234 40.9923C9.33474 40.5968 9.33474 39.9657 9.72234 39.5702C9.90829 39.3711 10.1702 39.2559 10.4425 39.2533C10.7175 39.2507 10.9794 39.3607 11.1706 39.5571L14.3893 42.7758L21.1073 36.0451C21.5001 35.6392 22.147 35.6339 22.5529 36.0268C22.9562 36.4222 22.9641 37.0691 22.5686 37.4724L15.0729 44.9205C14.8844 45.1117 14.6303 45.2193 14.3632 45.2219Z" fill="white"/>
<path d="M56.2184 54.883H32.3281C31.7729 54.883 31.3224 54.4325 31.3224 53.8773C31.3224 53.3221 31.7729 52.8716 32.3281 52.8716H55.2128V2.01155H16.8473V22.5811C16.8473 23.1363 16.3968 23.5868 15.8416 23.5868C15.2864 23.5868 14.8359 23.1363 14.8359 22.5811V1.00587C14.8359 0.736117 14.9459 0.476838 15.1371 0.28828C15.3309 0.0970926 15.5928 -0.00504447 15.8626 0.000191783H56.2179C56.7731 0.000191783 57.2236 0.450657 57.2236 1.00587V53.8773C57.2236 54.4325 56.7737 54.883 56.2184 54.883Z" fill="white"/>
<path d="M47.7775 45.2218H35.0389C34.4837 45.2218 34.0332 44.7713 34.0332 44.2161C34.0332 43.6609 34.4837 43.2104 35.0389 43.2104H47.7775C48.3328 43.2104 48.7832 43.6609 48.7832 44.2161C48.7832 44.7713 48.3328 45.2218 47.7775 45.2218Z" fill="white"/>
<path d="M47.7782 37.0514H36.949C36.3938 37.0514 35.9434 36.6009 35.9434 36.0457C35.9434 35.4879 36.3938 35.04 36.949 35.04H47.7782C48.3335 35.04 48.7839 35.4879 48.7839 36.0457C48.7839 36.6009 48.3335 37.0514 47.7782 37.0514Z" fill="white"/>
<path d="M47.7774 28.4479H37.7205C37.1653 28.4479 36.7148 27.9974 36.7148 27.4422C36.7148 26.887 37.1653 26.4365 37.7205 26.4365H47.7774C48.3326 26.4365 48.783 26.887 48.783 27.4422C48.783 27.9974 48.3326 28.4479 47.7774 28.4479Z" fill="white"/>
<path d="M47.7776 19.6925H23.908C23.3528 19.6925 22.9023 19.2421 22.9023 18.6868C22.9023 18.1316 23.3528 17.6812 23.908 17.6812H47.7776C48.3328 17.6812 48.7833 18.1316 48.7833 18.6868C48.7833 19.2421 48.3328 19.6925 47.7776 19.6925Z" fill="white"/>
<path d="M47.7776 12.0685H23.908C23.3528 12.0685 22.9023 11.618 22.9023 11.0628C22.9023 10.5076 23.3528 10.0571 23.908 10.0571H47.7776C48.3328 10.0571 48.7833 10.5076 48.7833 11.0628C48.7833 11.618 48.3328 12.0685 47.7776 12.0685Z" fill="white"/>
</svg>
