<svg width="61" height="61" viewBox="0 0 61 61" fill="none" xmlns="http://www.w3.org/2000/svg">
<path d="M48.7229 21.6809L51.3035 18.986C52.5771 17.6552 54.7014 17.6111 56.0322 18.8847L56.7923 19.6138H56.7959C58.1196 20.9375 58.1505 23.0046 56.8674 24.3425L56.871 24.3461C56.8579 24.3556 56.8471 24.3663 56.834 24.3795L47.9485 33.6534V48.733C47.9485 49.2596 47.5232 49.6885 46.9966 49.6885H23.0422C21.6411 54.0085 17.5951 57.0371 12.9236 57.0371C7.05111 57.0371 2.28906 52.2786 2.28906 46.4026C2.28906 42.1171 4.84225 38.3451 8.63449 36.67V2.87576C8.63449 2.34916 9.05982 1.92383 9.58643 1.92383H46.993C47.5196 1.92383 47.9449 2.34916 47.9449 2.87576V22.4911L48.7229 21.6809ZM50.79 22.2719L53.5624 25.0443L55.4603 23.0618C55.477 23.0379 55.4973 23.0177 55.5175 22.9974H55.5211C56.0584 22.4232 56.0143 21.4951 55.5008 21.0113C55.4806 20.9947 55.4639 20.978 55.4472 20.9601V20.9565L54.7145 20.2536C54.1438 19.7068 53.2288 19.7234 52.6748 20.3013L50.79 22.2719ZM52.2411 26.4227L49.4688 23.6503L47.9926 25.1908L50.765 27.9632L52.2411 26.4227ZM49.4449 29.3405L46.6725 26.5681L36.1393 37.5647C37.2199 38.3213 38.142 39.2935 38.8414 40.4122L49.4449 29.3405ZM45.9267 24.5987L46.0411 24.4807V3.82889H10.5396V36.0374C17.7464 34.3861 24.423 40.4241 23.4711 47.7799H46.0411V35.6418L39.3573 42.6187C39.2358 42.7438 39.0904 42.8284 38.932 42.8748H38.9355L32.9416 44.594C32.6878 44.6655 32.4316 44.6274 32.2184 44.513H26.6057C26.0791 44.513 25.6537 44.0841 25.6537 43.5611C25.6537 43.0345 26.0791 42.6056 26.6057 42.6056H32.0158L33.5623 37.6517C33.6362 37.4122 33.8161 37.23 33.9912 37.0572L45.9267 24.5987ZM37.2092 41.3904C36.6588 40.5123 35.932 39.7486 35.0849 39.1517L34.1127 42.2791L37.2092 41.3904ZM17.1221 41.0317C17.4974 40.6564 18.0978 40.6564 18.4696 41.0317C18.8448 41.4035 18.8448 42.0075 18.4696 42.3792L9.30049 51.5519C8.9252 51.9236 8.32473 51.9236 7.94943 51.5519C7.57771 51.1766 7.57771 50.5761 7.94943 50.2044L17.1221 41.0317ZM16.7611 48.5293C16.1797 47.9478 15.1801 48.3601 15.1801 49.1845C15.1801 50.009 16.1797 50.42 16.7611 49.8398C17.1221 49.4788 17.1221 48.8938 16.7611 48.5293ZM16.1058 46.3549C18.6221 46.3549 19.8885 49.4109 18.1086 51.1873C16.3286 52.9672 13.2726 51.7008 13.2726 49.1845C13.2726 47.6214 14.5415 46.3549 16.1058 46.3549ZM10.972 42.7414C10.3906 42.16 9.38865 42.5722 9.38865 43.3967C9.38865 44.2211 10.3918 44.6322 10.972 44.052C11.333 43.6898 11.333 43.1024 10.972 42.7414ZM10.3168 40.5623C12.833 40.5623 14.0959 43.6183 12.3195 45.3982C10.5396 47.1782 7.48359 45.9117 7.48359 43.3955C7.48359 41.8324 8.75363 40.5623 10.3168 40.5623ZM19.0974 40.2311C15.6864 36.8237 10.1619 36.8237 6.75088 40.2311C3.34346 43.6385 3.34346 49.1667 6.75445 52.5753C10.1619 55.9827 15.6876 55.9827 19.0986 52.5753C22.5048 49.1679 22.5048 43.6397 19.0974 40.2311ZM14.1936 30.4949C13.667 30.4949 13.2381 30.0696 13.2381 29.543C13.2381 29.0164 13.667 28.5911 14.1936 28.5911H27.5945C28.1211 28.5911 28.5465 29.0164 28.5465 29.543C28.5465 30.0696 28.1211 30.4949 27.5945 30.4949H14.1936ZM22.2618 39.7283C21.7352 39.7283 21.3099 39.303 21.3099 38.7764C21.3099 38.2498 21.7352 37.8245 22.2618 37.8245H31.3296C31.8562 37.8245 32.2815 38.2498 32.2815 38.7764C32.2815 39.303 31.8562 39.7283 31.3296 39.7283H22.2618ZM14.1936 34.4707C13.667 34.4707 13.2381 34.0418 13.2381 33.5152C13.2381 32.9921 13.667 32.5632 14.1936 32.5632H17.4723C17.9989 32.5632 18.4243 32.9921 18.4243 33.5152C18.4243 34.0418 17.9989 34.4707 17.4723 34.4707H14.1936ZM20.7761 34.4707C20.2495 34.4707 19.8242 34.0418 19.8242 33.5152C19.8242 32.9921 20.2495 32.5632 20.7761 32.5632H33.3288C33.8554 32.5632 34.2807 32.9921 34.2807 33.5152C34.2807 34.0418 33.8554 34.4707 33.3288 34.4707H20.7761ZM31.0329 30.4949C30.5063 30.4949 30.081 30.0696 30.081 29.543C30.081 29.0164 30.5063 28.5911 31.0329 28.5911H35.8391C36.3657 28.5911 36.791 29.0164 36.791 29.543C36.791 30.0696 36.3657 30.4949 35.8391 30.4949H31.0329ZM23.9202 16.1313C23.6093 15.7096 23.701 15.1151 24.1263 14.8041C24.5481 14.4932 25.1426 14.5849 25.4536 15.0067L27.0477 17.1881L31.1914 12.6429C31.5429 12.2545 32.1469 12.2271 32.5353 12.5786C32.9237 12.9336 32.9511 13.5341 32.5961 13.9225L27.6684 19.3291C27.2669 19.7687 26.5544 19.7377 26.1994 19.2516L23.9202 16.1313ZM27.8578 27.1959C24.5076 25.9426 22.0867 23.5753 20.5128 20.8195C18.6483 17.561 17.9668 13.7378 18.3206 10.5865C18.354 10.2899 18.5232 10.0361 18.7603 9.88719C20.1756 8.86734 21.6506 7.93209 23.1708 7.08381C24.7113 6.226 26.2983 5.45992 27.9329 4.78678C28.1724 4.68908 28.4321 4.69504 28.6561 4.78678C31.9253 6.13068 35.0051 7.85346 37.8764 9.92055C38.1027 10.0826 38.2374 10.3292 38.2648 10.5854H38.2683C38.6198 13.7259 37.8835 17.5289 35.9856 20.7778C34.3641 23.5502 31.8919 25.9354 28.525 27.1983C28.301 27.2805 28.0639 27.2734 27.8578 27.1959ZM22.1641 19.8736C23.4878 22.1837 25.4738 24.1757 28.1926 25.2873C30.9352 24.1698 32.9713 22.1527 34.3355 19.8199C35.9427 17.0714 36.6147 13.8963 36.4121 11.2108C33.8756 9.41777 31.1533 7.90469 28.2927 6.69541C25.4321 7.90469 22.7074 9.42135 20.1709 11.2108C19.9624 13.9165 20.5903 17.1143 22.1641 19.8736Z" fill="#006E81"/>
</svg>
