<svg width="57" height="73" viewBox="0 0 57 73" fill="none" xmlns="http://www.w3.org/2000/svg">
<path d="M0.271906 67.1579C0.271906 67.4992 0.643893 67.6895 0.939159 67.8606L8.16956 72.0522C8.39203 72.1634 8.50326 72.1634 8.72573 72.0522C12.044 70.1442 21.4254 64.7716 28.7491 60.5483C32.4083 58.4383 37.5596 58.9508 41.095 61.2624C42.7429 62.2512 44.4993 62.4804 46.3642 61.9501C46.4106 61.9369 46.4672 61.9354 46.507 61.9082C46.6053 61.841 46.7051 61.7783 46.7952 61.7005C53.0526 56.3007 58.1747 43.0221 55.9115 31.5634C55.8968 31.4889 55.8926 31.4167 55.8675 31.3451C55.7997 31.1514 55.5736 31.0626 55.3972 30.9578L52.1072 29.0044C51.8847 28.8932 51.6623 28.8932 51.4398 29.1156C50.3516 30.2039 48.6538 29.4373 48.6469 27.8983C48.6181 21.5156 48.5477 10.2885 48.5477 4.97775C48.5477 4.64196 48.1781 4.44753 47.8876 4.27912L40.65 0.0834259C40.4276 -0.0278086 40.3163 -0.0278086 40.0939 0.0834259C5.83363 19.6607 5.16623 20.1056 0.38314 22.7753C0.0583568 22.9377 0.0504483 23.4437 0.0520942 23.8068C0.271907 72.3017 0.271906 61.8399 0.271906 67.1579ZM8.64311 19.3865C9.65783 18.7991 10.9089 18.7978 11.9248 19.3833C14.1124 20.6439 14.1156 23.7998 11.9305 25.0648L10.0319 26.164C9.01722 26.7515 7.76611 26.7527 6.75022 26.1673C4.56261 24.9066 4.55944 21.7508 6.74452 20.4857L8.64311 19.3865ZM35.9938 3.61413C37.0155 3.01315 38.2813 3.00749 39.3083 3.59932L39.8774 3.9273C41.8109 5.04152 41.8234 7.82744 39.8999 8.9589C39.0497 9.459 38.0182 9.47254 37.165 8.9776C36.5954 8.64716 35.9109 8.24826 35.2285 7.85071C33.3178 6.73741 33.3048 5.19587 35.2109 4.07463L35.9938 3.61413ZM49.4141 32.3128C49.8376 32.0055 50.4029 31.9613 50.8534 32.2275C51.6456 32.6957 51.6838 33.8293 50.8812 34.2794C49.5422 35.0303 48.0763 35.6188 46.6519 35.6742C46.5096 35.6798 46.3699 35.6392 46.2484 35.5649C45.6316 35.188 45.8122 34.1759 46.4893 33.9229C47.5433 33.5291 48.5012 32.9753 49.4141 32.3128ZM38.349 41.172C37.6428 41.3975 36.7611 41.1735 36.12 40.8013C35.4361 40.4043 35.5645 40.1417 36.3109 39.8805C36.8988 39.6749 37.5137 39.4008 38.0917 39.0155C39.5876 38.1355 40.8748 36.9771 41.953 35.8155C42.4321 35.2995 43.2068 35.1697 43.8083 35.5358C44.5867 36.0096 44.7298 37.0831 44.0515 37.6918C42.3954 39.1777 40.3989 40.5172 38.349 41.172ZM28.2724 37.5716C28.1861 37.6207 28.0805 37.5575 28.0805 37.4582V33.6033C28.0805 30.1391 29.9323 26.9391 32.9359 25.2129L41.1581 20.4875C43.9512 18.8823 47.4354 20.8985 47.4354 24.12C47.4354 25.6266 46.6269 27.0163 45.3195 27.765C39.9591 30.8345 33.2519 34.7378 28.2724 37.5716ZM17.402 47.2779C17.402 50.0567 12.3202 57.7202 9.91741 59.1162C8.76855 59.7838 8.9482 59.6163 8.9482 58.2876C8.9482 55.5374 13.0171 47.667 15.4015 46.2967C15.5133 46.2324 15.6222 46.1699 15.7277 46.1092C16.7756 45.5065 17.402 45.8967 17.402 47.1056C17.402 47.1622 17.402 47.2196 17.402 47.2779ZM1.27302 40.9118C1.27302 38.387 4.00523 36.808 6.19285 38.0687C7.20942 38.6545 7.83586 39.7385 7.83586 40.9118V43.0147C7.83586 45.5395 5.10364 47.1184 2.91603 45.8578C1.89946 45.272 1.27302 44.1879 1.27302 43.0147V40.9118ZM15.2807 24.3828C16.5585 23.641 17.2908 24.1241 17.2908 25.6017C17.2908 26.3365 17.2908 27.174 17.2908 28.0134C17.2908 30.1826 14.9412 34.2579 13.0639 35.3448C11.1866 36.4317 8.83697 35.077 8.83697 32.9077V30.6569C8.83697 29.0988 9.69094 27.6267 11.0389 26.8451C12.3499 26.085 14.001 25.1258 15.2807 24.3828ZM26.9682 33.6363C26.9682 35.7753 24.6503 39.5818 22.8002 40.6554L13.1553 46.2518C11.2878 47.3354 8.9482 45.8504 8.9482 43.6913C8.9482 41.5436 11.263 37.6955 13.1238 36.623C16.2258 34.8351 19.776 32.7718 22.7791 31.0169C24.6334 29.9332 26.9682 31.4885 26.9682 33.6363ZM31.5805 14.9548C34.3739 13.3382 37.8692 15.3548 37.8692 18.5823C37.8692 20.0761 37.074 21.4571 35.7821 22.207L22.6917 29.8055C20.8376 30.8817 18.5144 29.3815 18.5144 27.2377C18.5144 25.0901 20.8462 21.1899 22.7019 20.1088C25.8094 18.2984 28.6111 16.6734 31.5805 14.9548ZM6.19284 49.0809C7.20942 49.6667 7.83586 50.7508 7.83586 51.924V54.0269C7.83586 56.5517 5.10364 58.1307 2.91603 56.87C1.89946 56.2842 1.27302 55.2002 1.27302 54.0269V51.924C1.27302 49.3992 4.00523 47.8203 6.19284 49.0809ZM6.62005 60.164C7.44112 60.6372 7.94709 61.5127 7.94709 62.4604C7.94709 64.4996 5.74031 65.7749 3.9734 64.7567L2.71129 64.0294C1.89022 63.5562 1.38425 62.6807 1.38425 61.733C1.38425 59.6937 3.59103 58.4185 5.35794 59.4367L6.62005 60.164ZM32.7903 41.4897C32.3206 44.317 30.983 47.0425 28.5113 48.4933L27.4131 49.1379L22.8152 51.8151C20.9571 52.897 18.6256 51.4269 18.6256 49.2768C18.6256 47.1308 20.9475 43.2362 22.8062 42.1636C27.2002 39.6277 32.6296 36.4966 36.4832 34.2715C37.1986 33.8585 38.0917 34.3753 38.0917 35.2014C38.0917 35.9509 38.0917 36.7573 38.0917 37.2682C38.0917 37.462 37.8107 37.9767 37.6669 38.1065C37.6512 38.1207 37.6372 38.1308 37.6186 38.1408C36.1805 38.91 34.6369 39.3499 33.6423 39.4605C33.1879 39.4605 33.0954 40.1183 32.9821 40.5582C32.9124 40.8289 32.8479 41.1432 32.7903 41.4897ZM36.3596 52.4372C36.4441 52.9369 35.3236 53.408 34.8971 53.1341C34.6169 52.9541 34.5435 52.5971 34.4573 52.2754C33.7493 49.6338 33.5288 46.3938 33.85 42.827C33.9369 41.8626 35.0073 41.3553 35.8344 41.8587C36.3209 42.1549 36.5661 42.7241 36.4695 43.2855C35.9631 46.2299 35.8617 49.491 36.3596 52.4372ZM42.6523 33.565C42.2855 33.565 42.0531 33.9345 41.4752 34.6181C40.6121 35.639 39.0928 34.9339 39.0928 33.597C39.0928 33.0265 39.3968 32.4991 39.8906 32.2133L44.6653 29.449C45.945 28.7081 47.5466 29.6315 47.5466 31.1102C47.5466 31.8023 47.1788 32.4542 46.5425 32.7263C44.3854 33.6488 42.5558 33.565 42.6523 33.565ZM42.4713 8.73954C45.2171 7.14777 47.4354 9.81659 47.4354 12.9904C47.4354 14.556 46.5775 16.0352 45.223 16.8205C44.5388 17.2172 43.7627 17.6677 42.9954 18.1132C40.4744 19.577 38.9815 18.6557 38.9815 15.7405V13.5563C38.9815 11.8268 39.9056 10.2267 41.402 9.35938C41.7812 9.13956 42.1373 8.9332 42.4713 8.73954ZM29.1128 7.48001C30.1262 6.89517 31.3744 6.89476 32.3881 7.47894C34.5758 8.7396 34.5768 11.8962 32.39 13.1583L19.4843 20.6067C18.471 21.1916 17.2227 21.192 16.209 20.6078C14.0214 19.3471 14.0204 16.1905 16.2071 14.9284L29.1128 7.48001ZM6.19284 27.0565C7.20942 27.6423 7.83586 28.7263 7.83586 29.8996V32.0024C7.83586 34.5273 5.10364 36.1062 2.91603 34.8456C1.89946 34.2597 1.27302 33.1757 1.27302 32.0024V29.8996C1.27302 27.3747 4.00523 25.7958 6.19284 27.0565ZM13.2302 68.1861C11.3788 69.2603 9.05944 67.8076 9.05944 65.6672C9.05944 63.5194 11.397 59.5692 13.2557 58.4931C15.5052 57.1909 18.2861 55.5824 20.7738 54.1416C23.5531 52.532 27.0794 54.5587 27.0794 57.7705C27.0794 59.2435 26.2953 60.6051 25.0212 61.3444L13.2302 68.1861ZM32.3169 57.1757C30.4905 58.2464 28.1918 56.9293 28.1918 54.8123V51.1972C28.1918 50.4036 28.6113 49.6691 29.2949 49.2659C30.7566 48.4039 32.6209 49.4217 32.9516 51.0862C33.104 51.8533 33.3012 52.6115 33.5518 53.3503C34.0323 54.7672 33.6077 56.4191 32.3169 57.1757ZM47.5347 59.311C46.5787 60.3667 45.2655 61.1682 43.8505 61.0065C43.0391 60.9139 42.2574 60.6284 41.5399 60.1501C38.4033 58.1806 37.3236 53.6759 37.1715 49.1767C37.0353 45.147 40.3149 41.9446 43.5087 39.4834C44.09 39.0354 44.648 38.5587 45.1737 38.0665C46.0114 37.282 47.0088 36.8194 48.1215 36.5381C51.4226 35.7034 55.5023 37.0839 55.1665 40.4723C54.4267 47.9367 51.3403 55.109 47.5347 59.311Z" fill="#006E81"/>
<path d="M46.3243 43.2427C45.1007 43.9101 44.0996 45.6899 44.0996 47.0247C44.0996 48.1745 45.0308 49.5134 44.8114 50.6421L44.4422 52.5405C44.4363 52.5711 44.4344 52.6283 44.4526 52.6535C44.5023 52.7224 44.5833 52.6753 44.6569 52.6329L48.0623 50.6723C48.1625 50.6146 48.3015 50.5959 48.3205 50.4818C48.3322 50.4118 48.3151 50.3274 48.2926 50.2601L48.1035 49.6927C47.6208 48.2445 48.0469 46.6464 48.3488 45.15C48.3871 44.9602 48.4165 44.7689 48.4378 44.5775C48.4378 43.0202 47.6591 42.5753 46.3243 43.2427Z" fill="#006E81"/>
</svg>
