<svg width="58" height="66" viewBox="0 0 58 66" fill="none" xmlns="http://www.w3.org/2000/svg">
<path d="M56.3865 21.5491C56.9147 21.5491 57.3412 21.1228 57.3412 20.5944V12.7028C57.3412 11.0609 56.0047 9.72443 54.3628 9.72443H38.1849L33.3863 1.74378C32.7307 0.655448 31.5853 0 30.3125 0C29.0396 0 27.8877 0.655448 27.2322 1.74378L22.44 9.72443H2.9784C1.33645 9.72443 0 11.0609 0 12.7028V47.3429C0 48.9849 1.33645 50.3213 2.9784 50.3213H23.2229C23.2293 53.7325 23.2038 53.7453 23.242 54.2671C17.1834 54.9163 12.1238 56.7809 12.1238 59.7785C12.1238 63.5715 20.1745 65.5508 28.1297 65.5508C36.0785 65.5508 44.1292 63.5715 44.1292 59.7785C44.1292 56.9019 39.4833 55.0625 33.7556 54.3499C33.8192 53.5098 33.7747 54.0634 33.7938 50.3213H54.3626C56.0046 50.3213 57.341 48.9849 57.341 47.3429V25.4948C57.341 24.973 56.9147 24.5402 56.3864 24.5402C55.8582 24.5402 55.4317 24.9729 55.4317 25.4948V47.3429C55.4317 47.9349 54.9481 48.4121 54.3625 48.4121H2.9784C2.38658 48.4121 1.90924 47.9348 1.90924 47.3429V12.7028C1.90924 12.1174 2.38658 11.6337 2.9784 11.6337H21.2945L19.9326 13.9056H8.17167C6.24326 13.9056 4.67133 15.4712 4.67133 17.406V41.0488C4.67133 42.9771 6.24326 44.5492 8.17167 44.5492H49.1633C51.0979 44.5492 52.6636 42.9772 52.6636 41.0488V17.406C52.6636 15.4713 51.098 13.9056 49.1633 13.9056H40.6926L39.3307 11.6337H54.3626C54.9482 11.6337 55.4318 12.1174 55.4318 12.7028V20.5944C55.4318 21.1226 55.8583 21.5491 56.3865 21.5491ZM27.735 61.2423C28.2314 61.4906 28.8296 61.4778 29.3324 61.2041C31.3116 60.1158 32.7499 58.3976 33.4053 56.2337C38.904 56.9147 42.2197 58.5566 42.2197 59.7785C42.2197 61.3568 36.7337 63.6415 28.1294 63.6415C19.525 63.6415 14.0328 61.3568 14.0328 59.7785C14.0328 58.5056 17.6349 56.7683 23.5727 56.1509C24.642 59.8486 27.6904 61.2423 27.735 61.2423ZM49.1631 15.8149C50.0414 15.8149 50.7542 16.5277 50.7542 17.406V41.0488C50.7542 41.9271 50.0414 42.6399 49.1631 42.6399H8.17153C7.29325 42.6399 6.58044 41.9271 6.58044 41.0488V17.406C6.58044 16.5277 7.29325 15.8149 8.17153 15.8149H18.787L16.8396 19.0543C12.0538 19.9708 8.42618 24.1774 8.42618 29.2243C8.42618 34.9393 13.072 39.5915 18.787 39.5915C24.5021 39.5915 29.1543 34.9393 29.1543 29.2243C29.1543 28.5051 29.0778 27.7988 28.9316 27.1114H42.2836C43.5946 27.1114 44.7592 26.4304 45.402 25.2912C46.0511 24.152 46.032 22.8028 45.3574 21.6764L41.8381 15.815L49.1631 15.8149ZM19.7416 23.0446V29.2243C19.7416 29.4088 19.6906 29.5934 19.5889 29.7461L17.0623 33.641C16.7758 34.0865 16.184 34.2137 15.7449 33.9274C15.2993 33.6347 15.1721 33.0491 15.4584 32.6036L17.8322 28.9442V23.0446C17.8322 22.5164 18.2586 22.09 18.7869 22.09C19.3152 22.09 19.7416 22.5164 19.7416 23.0446ZM43.7217 22.6565C44.04 23.1847 44.0463 23.8211 43.7408 24.3494C43.4417 24.884 42.8943 25.2021 42.2834 25.2021H28.3396C26.8121 21.5937 23.2928 19.0353 19.1688 18.8825L28.8678 2.73015C29.1797 2.2146 29.7143 1.90924 30.3125 1.90924C30.9043 1.90924 31.4453 2.21473 31.7508 2.73015L43.7217 22.6565Z" fill="#006E81"/>
<path d="M5.62461 45.4678C5.09761 45.4678 4.66992 45.8951 4.66992 46.4225C4.66992 46.9499 5.09748 47.3771 5.62461 47.3771H7.96646C8.49346 47.3771 8.92115 46.9499 8.92115 46.4225C8.92115 45.8951 8.49359 45.4678 7.96646 45.4678H5.62461Z" fill="#006E81"/>
<path d="M10.7379 45.4678C10.2109 45.4678 9.7832 45.8951 9.7832 46.4225C9.7832 46.9499 10.2108 47.3771 10.7379 47.3771H13.0797C13.6067 47.3771 14.0344 46.9499 14.0344 46.4225C14.0344 45.8951 13.6069 45.4678 13.0797 45.4678H10.7379Z" fill="#006E81"/>
<path d="M15.8492 45.4678C15.3222 45.4678 14.8945 45.8951 14.8945 46.4225C14.8945 46.9499 15.3221 47.3771 15.8492 47.3771H18.1911C18.7181 47.3771 19.1458 46.9499 19.1458 46.4225C19.1458 45.8951 18.7182 45.4678 18.1911 45.4678H15.8492Z" fill="#006E81"/>
<path d="M43.1754 45.4678C42.6484 45.4678 42.2207 45.8951 42.2207 46.4225C42.2207 46.9499 42.6483 47.3771 43.1754 47.3771H51.0336C51.5606 47.3771 51.9883 46.9499 51.9883 46.4225C51.9883 45.8951 51.5607 45.4678 51.0336 45.4678H43.1754Z" fill="#006E81"/>
<path d="M32.9101 9.15802V14.9303C32.9101 16.3622 31.7455 17.527 30.3134 17.527C28.8815 17.527 27.7168 16.3624 27.7168 14.9303V9.15802C27.7168 7.72613 28.8814 6.56152 30.3134 6.56152C31.7453 6.56139 32.9101 7.72613 32.9101 9.15802Z" fill="#006E81"/>
<path d="M30.3124 23.3376C31.7394 23.3376 32.8962 22.1808 32.8962 20.7538C32.8962 19.3268 31.7394 18.1699 30.3124 18.1699C28.8853 18.1699 27.7285 19.3268 27.7285 20.7538C27.7285 22.1808 28.8853 23.3376 30.3124 23.3376Z" fill="#006E81"/>
</svg>
