<svg width="58" height="58" viewBox="0 0 58 58" fill="none" xmlns="http://www.w3.org/2000/svg">
<path d="M56.2239 28.8622C56.2239 43.974 43.9738 56.2241 28.862 56.2241C13.7501 56.2241 1.5 43.974 1.5 28.8622C1.5 13.7504 13.7501 1.50022 28.862 1.50022C43.9738 1.50022 56.2239 13.7504 56.2239 28.8622Z" stroke="white" stroke-width="3" stroke-miterlimit="10"/>
<path d="M9.73828 9.29438C9.73828 9.29438 28.3805 14.09 47.6946 9.29438" stroke="white" stroke-width="3" stroke-miterlimit="10"/>
<path d="M28.8613 1.49998V15.6416" stroke="white" stroke-width="3" stroke-miterlimit="10"/>
<path d="M39.1101 14.9819C39.1101 14.9819 36.6061 4.52706 28.8613 1.50021" stroke="white" stroke-width="3" stroke-miterlimit="10"/>
<path d="M18.6133 14.9819C18.6133 14.9819 21.1174 4.52706 28.8621 1.50021" stroke="white" stroke-width="3" stroke-miterlimit="10"/>
<path d="M47.6946 48.4302C47.6946 48.4302 29.0524 43.6345 9.73828 48.4302" stroke="white" stroke-width="3" stroke-miterlimit="10"/>
<path d="M28.5703 56.2241V42.0825" stroke="white" stroke-width="3" stroke-miterlimit="10"/>
<path d="M18.3223 42.7429C18.3223 42.7429 20.8263 53.1978 28.5711 56.2246" stroke="white" stroke-width="3" stroke-miterlimit="10"/>
<path d="M38.8191 42.7429C38.8191 42.7429 36.315 53.1978 28.5703 56.2246" stroke="white" stroke-width="3" stroke-miterlimit="10"/>
<path d="M13.4665 21.0438V37.5H11.318V21.0438H13.4665ZM22.3461 37.6653C21.26 37.6653 20.2841 37.4764 19.4184 37.0986C18.5685 36.7051 17.8995 36.17 17.4116 35.4931C16.9236 34.8006 16.6718 34.0057 16.656 33.1085H18.9462C19.0249 33.8798 19.3397 34.533 19.8906 35.0682C20.4573 35.5876 21.2757 35.8473 22.3461 35.8473C23.3692 35.8473 24.1719 35.5955 24.7543 35.0918C25.3524 34.5724 25.6515 33.9113 25.6515 33.1085C25.6515 32.4789 25.4783 31.9674 25.132 31.5739C24.7858 31.1804 24.3529 30.8813 23.8335 30.6767C23.3141 30.4721 22.6136 30.2517 21.7322 30.0156C20.6461 29.7323 19.7726 29.449 19.1115 29.1657C18.4661 28.8823 17.9074 28.4416 17.4352 27.8435C16.9787 27.2296 16.7505 26.4112 16.7505 25.3881C16.7505 24.4909 16.9787 23.696 17.4352 23.0035C17.8916 22.3109 18.5291 21.7757 19.3476 21.398C20.1818 21.0202 21.1341 20.8313 22.2044 20.8313C23.7469 20.8313 25.0061 21.217 25.982 21.9882C26.9736 22.7595 27.5324 23.7826 27.6583 25.0575H25.2973C25.2186 24.4279 24.8881 23.877 24.3057 23.4048C23.7233 22.9169 22.952 22.6729 21.9919 22.6729C21.0947 22.6729 20.3628 22.909 19.7962 23.3812C19.2295 23.8377 18.9462 24.483 18.9462 25.3172C18.9462 25.9154 19.1115 26.4033 19.442 26.7811C19.7883 27.1588 20.2054 27.45 20.6934 27.6546C21.197 27.8435 21.8975 28.0639 22.7946 28.3157C23.8807 28.6148 24.7543 28.9138 25.4154 29.2129C26.0764 29.4962 26.6431 29.9448 27.1153 30.5587C27.5875 31.1568 27.8236 31.9753 27.8236 33.0141C27.8236 33.8168 27.6111 34.5724 27.1861 35.2807C26.7611 35.989 26.1315 36.5635 25.2973 37.0042C24.4631 37.4449 23.4793 37.6653 22.3461 37.6653ZM38.446 37.6653C36.9193 37.6653 35.5263 37.3111 34.2671 36.6028C33.0079 35.8788 32.0084 34.8793 31.2686 33.6043C30.5446 32.3137 30.1825 30.8656 30.1825 29.2601C30.1825 27.6546 30.5446 26.2144 31.2686 24.9395C32.0084 23.6488 33.0079 22.6493 34.2671 21.941C35.5263 21.217 36.9193 20.8549 38.446 20.8549C39.9886 20.8549 41.3894 21.217 42.6486 21.941C43.9078 22.6493 44.8994 23.6409 45.6235 24.9159C46.3475 26.1908 46.7095 27.6389 46.7095 29.2601C46.7095 30.8813 46.3475 32.3294 45.6235 33.6043C44.8994 34.8793 43.9078 35.8788 42.6486 36.6028C41.3894 37.3111 39.9886 37.6653 38.446 37.6653ZM38.446 35.8001C39.5951 35.8001 40.626 35.5325 41.539 34.9973C42.4676 34.4622 43.1917 33.6988 43.7111 32.7072C44.2462 31.7155 44.5138 30.5665 44.5138 29.2601C44.5138 27.9379 44.2462 26.7889 43.7111 25.813C43.1917 24.8214 42.4755 24.058 41.5626 23.5229C40.6496 22.9877 39.6108 22.7201 38.446 22.7201C37.2813 22.7201 36.2424 22.9877 35.3295 23.5229C34.4166 24.058 33.6926 24.8214 33.1574 25.813C32.638 26.7889 32.3783 27.9379 32.3783 29.2601C32.3783 30.5665 32.638 31.7155 33.1574 32.7072C33.6926 33.6988 34.4166 34.4622 35.3295 34.9973C36.2582 35.5325 37.297 35.8001 38.446 35.8001Z" fill="white"/>
</svg>
