<svg width="57" height="55" viewBox="0 0 57 55" fill="none" xmlns="http://www.w3.org/2000/svg">
<path d="M17.1471 21.071H30.4671C30.9589 21.071 31.3577 21.4697 31.3577 21.9616C31.3577 22.4534 30.9589 22.8522 30.4671 22.8522H17.1471C16.6552 22.8522 16.2565 22.4534 16.2565 21.9616C16.2565 21.4697 16.6552 21.071 17.1471 21.071ZM46.1651 48.6061V50.4863C46.1651 51.3478 45.6061 52.0763 44.7739 52.2993L37.682 54.1995C36.5199 54.5109 35.4649 54.6498 34.2618 54.6498H11.9033C10.7004 54.6498 9.64558 54.5108 8.48309 54.1995L1.39116 52.2993C0.558979 52.0764 0 51.3478 0 50.4863V48.6061C0 47.5712 0.841975 46.7292 1.87688 46.7292H2.19038V23.884C2.19038 22.3329 3.4524 21.071 5.00353 21.071H7.1044C7.59625 21.071 7.99503 21.4697 7.99503 21.9616C7.99503 22.4534 7.59625 22.8522 7.1044 22.8522H5.00353C4.43464 22.8522 3.97163 23.3151 3.97163 23.884V46.7292H42.1934V36.9298C42.1934 36.4379 42.5921 36.0391 43.084 36.0391C43.5758 36.0391 43.9746 36.4379 43.9746 36.9298V46.7292H44.2881C45.323 46.7292 46.165 47.5712 46.165 48.6061H46.1651ZM16.98 48.5105L17.2406 49.5409C17.2808 49.7 17.4078 49.7989 17.5719 49.7989H28.5933C28.7574 49.7989 28.8843 49.7 28.9246 49.5408L29.1852 48.5105H16.98ZM44.3839 48.6061C44.3839 48.5551 44.3392 48.5105 44.2882 48.5105H31.0225L30.6514 49.9776C30.4126 50.9213 29.5663 51.5801 28.5933 51.5801H17.5719C16.5989 51.5801 15.7525 50.9213 15.5138 49.9778L15.1427 48.5105H1.87688C1.82589 48.5105 1.78125 48.5551 1.78125 48.6061V50.4863C1.78125 50.5356 1.80441 50.5659 1.85217 50.5787L8.9441 52.479C9.96342 52.7521 10.8485 52.8686 11.9033 52.8686H34.2619C35.317 52.8686 36.2019 52.7522 37.2211 52.479L44.313 50.5787C44.3608 50.5659 44.384 50.5357 44.384 50.4863V48.6061H44.3839ZM56.332 5.3688V34.0945C56.332 34.7492 55.7993 35.282 55.1445 35.282H33.6362C32.9815 35.282 32.4488 34.7493 32.4488 34.0945V5.3688C32.4488 4.71397 32.9815 4.18126 33.6362 4.18126H55.1445C55.7993 4.18126 56.332 4.71397 56.332 5.3688ZM54.5508 5.96251H34.2301V33.5007H54.5508V5.96251ZM36.1695 15.4352C36.1695 10.9021 39.8574 7.21429 44.3904 7.21429C48.9235 7.21429 52.6113 10.9021 52.6113 15.4352C52.6113 19.9683 48.9235 23.6561 44.3904 23.6561C39.8574 23.6561 36.1695 19.9683 36.1695 15.4352ZM48.6201 20.2848C48.1138 18.3835 46.4027 17.0466 44.3904 17.0466C42.3782 17.0466 40.667 18.3836 40.1607 20.2848C41.2932 21.2737 42.7725 21.8748 44.3904 21.8748C46.0084 21.8748 47.4877 21.2736 48.6201 20.2848ZM44.3904 15.2483C45.2836 15.2483 46.0104 14.5216 46.0104 13.6285C46.0104 12.7353 45.2837 12.0085 44.3904 12.0085C43.4971 12.0085 42.7705 12.7352 42.7705 13.6285C42.7705 14.5218 43.4971 15.2483 44.3904 15.2483ZM37.9508 15.4352C37.9508 16.6326 38.2803 17.7542 38.852 18.7156C39.4744 17.4331 40.5197 16.4174 41.8003 15.8292C41.2951 15.2355 40.9892 14.4672 40.9892 13.6285C40.9892 11.753 42.515 10.2273 44.3904 10.2273C46.2659 10.2273 47.7916 11.753 47.7916 13.6285C47.7916 14.4672 47.4858 15.2355 46.9806 15.8292C48.2611 16.4174 49.3063 17.4331 49.9288 18.7157C50.5004 17.7543 50.83 16.6328 50.83 15.4353C50.83 11.8845 47.9412 8.99565 44.3903 8.99565C40.8394 8.99565 37.9506 11.8845 37.9506 15.4353L37.9508 15.4352ZM51.965 29.3338H41.2051C40.7132 29.3338 40.3145 29.7326 40.3145 30.2245C40.3145 30.7163 40.7132 31.1151 41.2051 31.1151H51.965C52.4568 31.1151 52.8556 30.7163 52.8556 30.2245C52.8556 29.7326 52.4568 29.3338 51.965 29.3338ZM51.965 24.8134H41.2051C40.7132 24.8134 40.3145 25.2121 40.3145 25.704C40.3145 26.1958 40.7132 26.5946 41.2051 26.5946H51.965C52.4568 26.5946 52.8556 26.1958 52.8556 25.704C52.8556 25.2121 52.4568 24.8134 51.965 24.8134ZM37.5498 27.3462C38.4543 27.3462 39.192 26.6084 39.192 25.704C39.192 24.7996 38.4542 24.0618 37.5498 24.0618C36.6453 24.0618 35.9076 24.7996 35.9076 25.704C35.9076 26.6084 36.6452 27.3462 37.5498 27.3462ZM37.5498 31.8667C38.4543 31.8667 39.192 31.1289 39.192 30.2245C39.192 29.32 38.4542 28.5823 37.5498 28.5823C36.6453 28.5823 35.9076 29.32 35.9076 30.2245C35.9076 31.1289 36.6452 31.8667 37.5498 31.8667ZM27.3651 30.1494V31.6666H27.4615C28.836 31.6666 29.9542 32.7848 29.9542 34.1593V41.2218C29.9542 42.5963 28.836 43.7144 27.4615 43.7144H18.7037C17.3292 43.7144 16.211 42.5963 16.211 41.2218V34.1593C16.211 32.7848 17.3292 31.6666 18.7037 31.6666H18.8001V30.1494C18.8001 27.7881 20.7213 25.8669 23.0827 25.8669C25.444 25.8669 27.3651 27.7881 27.3651 30.1494ZM20.5813 31.6666H25.5839V30.1494C25.5839 28.7702 24.4619 27.6481 23.0827 27.6481C21.7034 27.6481 20.5813 28.7702 20.5813 30.1494V31.6666ZM18.7037 33.4479C18.3115 33.4479 17.9923 33.767 17.9923 34.1593V41.2218C17.9923 41.614 18.3114 41.9332 18.7037 41.9332H27.4615C27.8537 41.9332 28.1729 41.614 28.1729 41.2218V34.1593C28.1729 33.767 27.8539 33.4479 27.4615 33.4479H18.7037ZM22.2726 37.854V39.7379C22.2726 40.1834 22.6371 40.5479 23.0827 40.5479C23.5282 40.5479 23.8927 40.1834 23.8927 39.7379V37.8539C24.3763 37.5739 24.7016 37.051 24.7016 36.4519C24.7016 35.5579 23.9767 34.833 23.0827 34.833C22.1886 34.833 21.4638 35.5578 21.4638 36.4519C21.4638 37.0509 21.7891 37.5739 22.2727 37.8539L22.2726 37.854ZM3.96139 8.06427C3.96139 3.61761 7.579 0 12.0257 0C16.4723 0 20.09 3.61761 20.09 8.06427C20.09 11.017 18.4614 13.7343 15.8957 15.1405V19.052C15.8957 19.2708 15.8151 19.4819 15.6695 19.6451L15.2993 20.0599V22.535C15.2993 22.8352 15.1481 23.1152 14.897 23.2798L14.0545 23.8323L14.897 24.3848C15.1481 24.5493 15.2993 24.8294 15.2993 25.1295V25.5421C15.2993 25.8423 15.1481 26.1223 14.897 26.2869L14.0545 26.8393L14.897 27.3918C15.1481 27.5565 15.2993 27.8365 15.2993 28.1366V29.9945C15.2993 30.2825 15.16 30.5527 14.9255 30.7198L12.5427 32.4176C12.3879 32.5279 12.2069 32.583 12.0258 32.583C11.8446 32.583 11.6636 32.5279 11.5089 32.4176L9.12612 30.7199C8.89167 30.5528 8.75239 30.2826 8.75239 29.9946V20.06L8.38223 19.6452C8.2365 19.482 8.15601 19.2709 8.15601 19.0521V15.1406C5.59023 13.7344 3.96161 11.0171 3.96161 8.06439L3.96139 8.06427ZM5.74264 8.06427C5.74264 10.5171 7.18478 12.7612 9.41669 13.7816C9.73375 13.9266 9.93704 14.2431 9.93704 14.5916V18.7124L10.3072 19.1272C10.4529 19.2904 10.5334 19.5015 10.5334 19.7202V29.5356L12.0256 30.5988L13.5178 29.5355V28.6176L11.9416 27.584C11.6906 27.4193 11.5394 27.1393 11.5394 26.8392C11.5394 26.5391 11.6906 26.2591 11.9416 26.0944L13.0988 25.3357L11.9416 24.577C11.6906 24.4125 11.5394 24.1325 11.5394 23.8323C11.5394 23.5322 11.6906 23.2521 11.9416 23.0876L13.5178 22.054V19.7202C13.5178 19.5015 13.5984 19.2904 13.7439 19.1272L14.1142 18.7124V14.5916C14.1142 14.243 14.3175 13.9265 14.6345 13.7816C16.8664 12.7611 18.3086 10.5169 18.3086 8.06427C18.3086 4.59974 15.4901 1.78125 12.0254 1.78125C8.5608 1.78125 5.74242 4.59974 5.74242 8.06427H5.74264ZM8.86016 6.34103C8.86016 4.59551 10.2802 3.17552 12.0257 3.17552C13.7712 3.17552 15.1913 4.59551 15.1913 6.34103C15.1913 8.08654 13.7712 9.50653 12.0257 9.50653C10.2802 9.50653 8.86016 8.08654 8.86016 6.34103ZM10.6414 6.34103C10.6414 7.10429 11.2624 7.72528 12.0257 7.72528C12.7889 7.72528 13.41 7.10429 13.41 6.34103C13.41 5.57776 12.789 4.95677 12.0257 4.95677C11.2623 4.95677 10.6414 5.57776 10.6414 6.34103Z" fill="#006E81"/>
</svg>
