<svg width="65" height="65" viewBox="0 0 65 65" fill="none" xmlns="http://www.w3.org/2000/svg">
<path d="M61.0738 10.1712C60.983 10.0681 60.8722 9.98452 60.7481 9.92562C60.624 9.86672 60.4893 9.83371 60.352 9.8286C54.9436 9.51363 49.611 8.40395 44.5258 6.53526C40.5117 4.80325 36.6795 2.67669 33.0858 0.186929C32.915 0.0653378 32.7105 0 32.5008 0C32.2912 0 32.0867 0.0653378 31.9158 0.186929C28.3223 2.67692 24.4901 4.80348 20.4758 6.53526C15.3899 8.40421 10.0563 9.51389 4.64699 9.8286C4.50988 9.83398 4.37528 9.86706 4.25128 9.92583C4.12729 9.98461 4.01648 10.0679 3.92551 10.1706C3.83454 10.2733 3.76531 10.3934 3.72197 10.5236C3.67864 10.6538 3.6621 10.7914 3.67335 10.9282C3.77762 12.1469 6.23543 40.8363 9.23491 46.0783C17.1893 59.9734 31.5787 64.7536 32.1894 64.95C32.3919 65.0149 32.6097 65.0149 32.8123 64.95C33.4217 64.7536 47.8124 59.9734 55.7668 46.0783C56.8325 44.2163 57.8888 39.535 58.9965 31.7688C59.0344 31.5023 58.9648 31.2317 58.8032 31.0165C58.6415 30.8012 58.401 30.659 58.1345 30.6211C57.8681 30.5833 57.5974 30.6528 57.3822 30.8144C57.167 30.9761 57.0248 31.2166 56.9869 31.4831C55.672 40.705 54.6401 43.9617 54.0077 45.0708C47.0784 57.1703 34.6269 62.1333 32.5008 62.9092C30.3735 62.136 17.9368 57.1919 10.9967 45.0708C8.78126 41.2019 6.57126 20.6592 5.78585 11.7935C11.0652 11.4068 16.2629 10.2724 21.2233 8.42432C25.1768 6.74199 28.9543 4.67316 32.5008 2.24797C36.0478 4.67324 39.8258 6.74207 43.7797 8.42432C48.7404 10.2715 53.938 11.4059 59.2172 11.7935C58.9856 14.3664 58.3302 21.3295 57.4297 28.2602C57.395 28.527 57.4678 28.7967 57.632 29.0099C57.7962 29.2231 58.0383 29.3623 58.3052 29.397C58.572 29.4316 58.8417 29.3589 59.0549 29.1947C59.2681 29.0305 59.4073 28.7884 59.442 28.5215C60.5768 19.7939 61.3243 11.0162 61.3378 10.9282C61.3473 10.7907 61.3288 10.6527 61.2834 10.5226C61.238 10.3925 61.1667 10.2729 61.0738 10.1712Z" fill="#006E81"/>
<path d="M10.8785 21.81C10.866 21.6754 10.8267 21.5446 10.7631 21.4254C10.6994 21.3062 10.6126 21.2008 10.5076 21.1156C10.4027 21.0303 10.2819 20.9669 10.1521 20.929C10.0224 20.891 9.88636 20.8794 9.75206 20.8947C9.61775 20.9101 9.48786 20.952 9.36999 21.0182C9.25212 21.0844 9.14865 21.1734 9.06563 21.2801C8.98262 21.3868 8.92174 21.509 8.88656 21.6395C8.85138 21.77 8.84261 21.9062 8.86076 22.0402C9.51076 27.748 11.1913 41.3195 12.7608 44.0603C18.5065 54.0974 28.2132 58.9561 32.1253 60.5811C32.3735 60.6832 32.6518 60.6832 32.8999 60.5811C36.7877 58.9846 46.4565 54.1773 52.2456 44.0603C53.8909 41.1895 55.6973 26.0269 56.2119 21.4457C56.2268 21.3133 56.2156 21.1793 56.1787 21.0512C56.1418 20.9232 56.0801 20.8037 55.9971 20.6995C55.914 20.5953 55.8112 20.5085 55.6946 20.4441C55.578 20.3796 55.4499 20.3387 55.3175 20.3238C55.1851 20.3088 55.051 20.3201 54.923 20.357C54.795 20.3939 54.6755 20.4556 54.5713 20.5386C54.4671 20.6217 54.3803 20.7245 54.3158 20.8411C54.2514 20.9577 54.2105 21.0858 54.1956 21.2182C52.9105 32.642 51.4195 41.417 50.4838 43.0501C46.283 49.9849 39.9903 55.4081 32.5113 58.539C28.5734 56.8477 19.7713 52.2313 14.5225 43.0528C13.5922 41.4278 12.1622 33.0902 10.8785 21.81Z" fill="#006E81"/>
<path d="M22.3452 12.2726C22.4731 12.2723 22.5998 12.2485 22.7189 12.2022C26.1222 10.7864 29.3955 9.07642 32.5015 7.09158C35.6078 9.07657 38.8815 10.7866 42.2853 12.2022C42.5358 12.3013 42.8154 12.2969 43.0627 12.1898C43.3099 12.0828 43.5045 11.8819 43.6036 11.6314C43.7027 11.3809 43.6983 11.1013 43.5912 10.8541C43.4842 10.6068 43.2833 10.4123 43.0328 10.3131C39.5522 8.85663 36.2101 7.08905 33.0472 5.03189C32.8842 4.92784 32.6948 4.87256 32.5015 4.87256C32.3081 4.87256 32.1187 4.92784 31.9557 5.03189C28.7925 7.08931 25.4499 8.8569 21.9687 10.3131C21.7491 10.4004 21.5667 10.5616 21.4531 10.7688C21.3395 10.9761 21.3018 11.2165 21.3464 11.4486C21.391 11.6807 21.5151 11.89 21.6974 12.0404C21.8798 12.1908 22.1088 12.273 22.3452 12.2726Z" fill="#006E81"/>
<path d="M17.1152 28.4995C16.9819 28.4993 16.8499 28.5254 16.7267 28.5763C16.6035 28.6272 16.4915 28.7019 16.3972 28.7961C16.3028 28.8903 16.228 29.0022 16.1769 29.1253C16.1259 29.2485 16.0996 29.3805 16.0996 29.5138V33.7374C16.0996 34.0068 16.2066 34.2651 16.3971 34.4556C16.5875 34.646 16.8459 34.753 17.1152 34.753C17.3846 34.753 17.6429 34.646 17.8334 34.4556C18.0239 34.2651 18.1309 34.0068 18.1309 33.7374V32.6351H21.7871C21.9869 34.7635 22.8188 36.7834 24.1759 38.435L21.5745 41.031L20.7986 40.255C20.704 40.1609 20.5917 40.0863 20.4683 40.0355C20.3449 39.9847 20.2126 39.9587 20.0791 39.959C19.9457 39.9593 19.8136 39.9859 19.6904 40.0373C19.5672 40.0887 19.4553 40.1638 19.3611 40.2584C19.267 40.353 19.1924 40.4652 19.1416 40.5887C19.0908 40.7121 19.0648 40.8444 19.0651 40.9778C19.0654 41.1113 19.092 41.2434 19.1434 41.3666C19.1948 41.4898 19.2699 41.6017 19.3645 41.6959L20.8541 43.1854L22.3437 44.675C22.4379 44.7692 22.5498 44.8439 22.6729 44.8948C22.796 44.9457 22.928 44.9719 23.0612 44.9718C23.1944 44.9718 23.3263 44.9455 23.4494 44.8944C23.5724 44.8434 23.6842 44.7686 23.7784 44.6744C23.8726 44.5801 23.9472 44.4682 23.9982 44.3451C24.0491 44.222 24.0753 44.0901 24.0752 43.9568C24.0752 43.8236 24.0489 43.6917 23.9978 43.5686C23.9468 43.4456 23.872 43.3338 23.7777 43.2396L23.0032 42.4637L25.5937 39.8745C27.241 41.2573 29.267 42.1115 31.4071 42.3256V45.9899H30.3102C30.0409 45.9899 29.7825 46.0969 29.5921 46.2874C29.4016 46.4779 29.2946 46.7362 29.2946 47.0056C29.2946 47.2749 29.4016 47.5332 29.5921 47.7237C29.7825 47.9142 30.0409 48.0212 30.3102 48.0212H34.5339C34.8032 48.0212 35.0616 47.9142 35.252 47.7237C35.4425 47.5332 35.5495 47.2749 35.5495 47.0056C35.5495 46.7362 35.4425 46.4779 35.252 46.2874C35.0616 46.0969 34.8032 45.9899 34.5339 45.9899H33.4478V42.3337C35.5983 42.1481 37.6423 41.3163 39.3114 39.9476L41.8721 42.5084L41.0975 43.2829C40.9124 43.4744 40.8099 43.7309 40.8121 43.9972C40.8143 44.2635 40.921 44.5183 41.1092 44.7067C41.2974 44.8951 41.5521 45.002 41.8184 45.0044C42.0847 45.0069 42.3413 44.9046 42.5329 44.7197L45.5121 41.7324C45.6119 41.6394 45.6919 41.5273 45.7474 41.4027C45.8029 41.2782 45.8328 41.1437 45.8352 41.0073C45.8376 40.8709 45.8125 40.7355 45.7614 40.609C45.7104 40.4825 45.6343 40.3677 45.5379 40.2712C45.4414 40.1748 45.3266 40.0988 45.2001 40.0477C45.0736 39.9966 44.9382 39.9715 44.8018 39.9739C44.6655 39.9763 44.531 40.0062 44.4064 40.0617C44.2818 40.1172 44.1697 40.1972 44.0767 40.297L43.3008 41.0729L40.7522 38.5122C42.1441 36.8463 42.997 34.7967 43.1978 32.6351H46.8663V33.732C46.8663 34.0014 46.9733 34.2597 47.1637 34.4502C47.3542 34.6406 47.6125 34.7476 47.8819 34.7476C48.1513 34.7476 48.4096 34.6406 48.6001 34.4502C48.7905 34.2597 48.8975 34.0014 48.8975 33.732V29.5205C48.8975 29.2512 48.7905 28.9929 48.6001 28.8024C48.4096 28.6119 48.1513 28.5049 47.8819 28.5049C47.6125 28.5049 47.3542 28.6119 47.1637 28.8024C46.9733 28.9929 46.8663 29.2512 46.8663 29.5205V30.6174H43.1978C42.9944 28.4548 42.1382 26.4051 40.7427 24.7403L43.3333 22.1485L44.1092 22.9244C44.3019 23.1036 44.5566 23.2011 44.8197 23.1962C45.0829 23.1913 45.3338 23.0844 45.5197 22.8982C45.7056 22.7119 45.812 22.4608 45.8164 22.1977C45.8208 21.9345 45.7228 21.68 45.5433 21.4876L44.0537 19.998L42.5641 18.5085C42.3714 18.3292 42.1167 18.2318 41.8535 18.2367C41.5904 18.2416 41.3395 18.3484 41.1536 18.5347C40.9677 18.7209 40.8613 18.9721 40.8569 19.2352C40.8525 19.4983 40.9504 19.7529 41.13 19.9452L41.9046 20.7198L39.3127 23.3103C37.6444 21.9376 35.6 21.1016 33.4478 20.9121V17.2559H34.5447C34.8141 17.2559 35.0724 17.1489 35.2629 16.9584C35.4533 16.7679 35.5603 16.5096 35.5603 16.2402C35.5603 15.9709 35.4533 15.7125 35.2629 15.5221C35.0724 15.3316 34.8141 15.2246 34.5447 15.2246H30.317C30.0476 15.2246 29.7893 15.3316 29.5989 15.5221C29.4084 15.7125 29.3014 15.9709 29.3014 16.2402C29.3014 16.5096 29.4084 16.7679 29.5989 16.9584C29.7893 17.1489 30.0476 17.2559 30.317 17.2559H31.4139V20.9202C29.2758 21.1346 27.2516 21.9872 25.6045 23.3672L22.9855 20.7455L23.7601 19.971C23.9505 19.7808 24.0575 19.5228 24.0576 19.2537C24.0577 18.9847 23.951 18.7266 23.7608 18.5362C23.5706 18.3459 23.3126 18.2389 23.0436 18.2387C22.7745 18.2386 22.5164 18.3454 22.3261 18.5355L20.8365 20.0251L19.3469 21.5147C19.1675 21.7072 19.0698 21.9619 19.0745 22.225C19.0791 22.4881 19.1857 22.7392 19.3718 22.9252C19.5579 23.1113 19.8089 23.2179 20.072 23.2226C20.3351 23.2272 20.5898 23.1295 20.7823 22.9501L21.5583 22.1742L24.1826 24.7986C22.8229 26.4512 21.9895 28.4732 21.7898 30.6039H18.1336V29.5205C18.1345 29.3864 18.1088 29.2535 18.0579 29.1294C18.0071 29.0053 17.9322 28.8925 17.8375 28.7975C17.7428 28.7026 17.6302 28.6273 17.5062 28.5762C17.3822 28.525 17.2493 28.499 17.1152 28.4995ZM38.7494 37.7078C38.6978 37.7353 38.6488 37.7675 38.6032 37.804C38.5708 37.8468 38.5419 37.8921 38.5165 37.9394C37.2847 39.1228 35.7324 39.9184 34.0525 40.2273C32.3725 40.5362 30.6387 40.3449 29.0665 39.6771C27.4943 39.0093 26.1529 37.8944 25.2088 36.4708C24.2648 35.0473 23.7596 33.3778 23.7561 31.6696C23.7561 31.6574 23.7561 31.6466 23.7561 31.6344C23.7561 31.6222 23.7561 31.6127 23.7561 31.6005C23.7594 30.1704 24.1139 28.763 24.7886 27.502C25.4632 26.241 26.4372 25.1649 27.625 24.3685C28.8129 23.5721 30.1781 23.0796 31.6009 22.9343C33.0236 22.7891 34.4603 22.9955 35.7845 23.5355C37.1088 24.0755 38.2802 24.9324 39.1957 26.0311C40.1112 27.1298 40.7429 28.4365 41.0351 29.8365C41.3274 31.2364 41.2713 32.6868 40.8718 34.06C40.4723 35.4332 39.7416 36.6872 38.744 37.7119L38.7494 37.7078Z" fill="#006E81"/>
<path d="M32.4991 28.5728C31.8945 28.5725 31.3034 28.7515 30.8006 29.0873C30.2978 29.423 29.9058 29.9003 29.6743 30.4589C29.4428 31.0174 29.3822 31.632 29.5001 32.225C29.618 32.818 29.9091 33.3628 30.3366 33.7903C30.7641 34.2178 31.3088 34.5089 31.9018 34.6268C32.4948 34.7447 33.1095 34.684 33.668 34.4526C34.2265 34.2211 34.7039 33.8291 35.0396 33.3263C35.3753 32.8235 35.5544 32.2324 35.5541 31.6278C35.553 30.8178 35.2308 30.0414 34.6581 29.4687C34.0855 28.896 33.309 28.5738 32.4991 28.5728ZM32.4991 32.6529C32.2964 32.6529 32.0982 32.5927 31.9296 32.4801C31.761 32.3675 31.6296 32.2074 31.552 32.02C31.4745 31.8327 31.4542 31.6266 31.4937 31.4278C31.5333 31.2289 31.6309 31.0463 31.7743 30.9029C31.9176 30.7595 32.1003 30.6619 32.2991 30.6223C32.498 30.5828 32.7041 30.6031 32.8914 30.6807C33.0787 30.7583 33.2388 30.8897 33.3515 31.0582C33.4641 31.2268 33.5242 31.425 33.5242 31.6278C33.5231 31.899 33.4147 32.1589 33.2226 32.3505C33.0305 32.542 32.7704 32.6498 32.4991 32.6501V32.6529Z" fill="#006E81"/>
<path d="M37.8848 32.1034C37.8848 32.3152 37.9476 32.5223 38.0653 32.6985C38.183 32.8746 38.3503 33.0119 38.546 33.093C38.7417 33.1741 38.9571 33.1953 39.1649 33.1539C39.3727 33.1126 39.5635 33.0106 39.7133 32.8608C39.8631 32.711 39.9651 32.5201 40.0065 32.3123C40.0478 32.1046 40.0266 31.8892 39.9455 31.6935C39.8644 31.4977 39.7272 31.3304 39.551 31.2127C39.3749 31.095 39.1678 31.0322 38.9559 31.0322C38.6718 31.0322 38.3994 31.1451 38.1985 31.346C37.9976 31.5468 37.8848 31.8193 37.8848 32.1034Z" fill="#006E81"/>
<path d="M36.1915 34.5557C35.98 34.5559 35.7733 34.6189 35.5975 34.7366C35.4218 34.8543 35.2849 35.0215 35.2041 35.217C35.1233 35.4125 35.1023 35.6276 35.1438 35.835C35.1852 36.0424 35.2872 36.2329 35.4369 36.3824C35.5865 36.5319 35.7771 36.6336 35.9846 36.6748C36.1921 36.716 36.4071 36.6947 36.6025 36.6137C36.7979 36.5327 36.9649 36.3956 37.0824 36.2197C37.1999 36.0438 37.2626 35.837 37.2626 35.6255C37.2626 35.4849 37.2349 35.3456 37.1811 35.2158C37.1272 35.0859 37.0483 34.9679 36.9488 34.8685C36.8493 34.7692 36.7312 34.6904 36.6013 34.6367C36.4713 34.583 36.3321 34.5555 36.1915 34.5557Z" fill="#006E81"/>
<path d="M30.9032 37.0405C30.6913 37.0405 30.4842 37.1033 30.3081 37.221C30.1319 37.3387 29.9946 37.506 29.9136 37.7018C29.8325 37.8975 29.8113 38.1129 29.8526 38.3206C29.8939 38.5284 29.996 38.7193 30.1458 38.8691C30.2956 39.0189 30.4864 39.1209 30.6942 39.1622C30.902 39.2036 31.1174 39.1824 31.3131 39.1013C31.5088 39.0202 31.6761 38.8829 31.7938 38.7068C31.9115 38.5306 31.9743 38.3235 31.9743 38.1117C31.9743 37.8276 31.8615 37.5551 31.6606 37.3543C31.4597 37.1534 31.1873 37.0405 30.9032 37.0405Z" fill="#006E81"/>
<path d="M26.3081 34.2426C26.8989 34.2426 27.3779 33.7636 27.3779 33.1728C27.3779 32.582 26.8989 32.103 26.3081 32.103C25.7172 32.103 25.2383 32.582 25.2383 33.1728C25.2383 33.7636 25.7172 34.2426 26.3081 34.2426Z" fill="#006E81"/>
<path d="M35.6108 27.0956C36.2016 27.0956 36.6806 26.6167 36.6806 26.0258C36.6806 25.435 36.2016 24.9561 35.6108 24.9561C35.02 24.9561 34.541 25.435 34.541 26.0258C34.541 26.6167 35.02 27.0956 35.6108 27.0956Z" fill="#006E81"/>
<path d="M30.4599 26.5566C30.4599 26.345 30.3972 26.1382 30.2796 25.9623C30.1621 25.7863 29.995 25.6492 29.7995 25.5683C29.604 25.4873 29.3889 25.4661 29.1814 25.5074C28.9739 25.5487 28.7833 25.6505 28.6336 25.8002C28.484 25.9498 28.3821 26.1404 28.3409 26.3479C28.2996 26.5554 28.3208 26.7705 28.4017 26.966C28.4827 27.1615 28.6198 27.3286 28.7958 27.4461C28.9717 27.5637 29.1785 27.6264 29.3901 27.6264C29.6738 27.6264 29.9459 27.5137 30.1466 27.3131C30.3472 27.1124 30.4599 26.8403 30.4599 26.5566Z" fill="#006E81"/>
</svg>
