<svg width="67" height="68" viewBox="0 0 67 68" fill="none" xmlns="http://www.w3.org/2000/svg">
<path fill-rule="evenodd" clip-rule="evenodd" d="M51.3678 11.0583V6.78008C51.3678 4.30636 49.374 2.2666 46.9144 2.2666H20.0879C17.6322 2.2666 15.6345 4.28735 15.6345 6.78008V47.325L20.1012 42.7916V9.0666H46.9012V15.5916L51.3678 11.0583ZM51.3678 20.6749V61.2198C51.3678 63.7125 49.3701 65.7333 46.9144 65.7333H20.0879C17.6284 65.7333 15.6345 63.6935 15.6345 61.2198V56.9416L20.1012 52.4082V56.6666H46.9012V25.2082L51.3678 20.6749ZM27.9178 6.79994C28.5345 6.79994 29.0345 6.29252 29.0345 5.6666C29.0345 5.04068 28.5345 4.53327 27.9178 4.53327C27.3011 4.53327 26.8012 5.04068 26.8012 5.6666C26.8012 6.29252 27.3011 6.79994 27.9178 6.79994ZM39.0845 6.79994C39.7012 6.79994 40.2012 6.29252 40.2012 5.6666C40.2012 5.04068 39.7012 4.53327 39.0845 4.53327H32.3845C31.7678 4.53327 31.2678 5.04068 31.2678 5.6666C31.2678 6.29252 31.7678 6.79994 32.3845 6.79994H39.0845ZM33.5012 63.4666C34.7346 63.4666 35.7345 62.4518 35.7345 61.1999C35.7345 59.9481 34.7346 58.9333 33.5012 58.9333C32.2677 58.9333 31.2678 59.9481 31.2678 61.1999C31.2678 62.4518 32.2677 63.4666 33.5012 63.4666ZM60.6282 4.86523L7.02824 59.2652C6.59215 59.7078 6.59215 60.4254 7.02824 60.868C7.46432 61.3106 8.17132 61.3106 8.60741 60.868L62.2074 6.46797C62.6435 6.02538 62.6435 5.30782 62.2074 4.86523C61.7713 4.42263 61.0643 4.42263 60.6282 4.86523Z" fill="#006E81"/>
</svg>
