<svg width="57" height="57" viewBox="0 0 57 57" fill="none" xmlns="http://www.w3.org/2000/svg">
<path fill-rule="evenodd" clip-rule="evenodd" d="M34.4584 6.3301C34.4584 6.74443 34.1213 7.08151 33.707 7.08151C33.2927 7.08151 32.9556 6.74443 32.9556 6.3301V5.08012C32.9556 3.11385 31.3452 1.5033 29.3789 1.5033H9.15928V8.40849C9.15928 8.82282 8.82221 9.15989 8.40789 9.15989H1.50284V39.7008C1.50284 41.6695 3.10395 43.2776 5.1123 43.2776C5.52663 43.2776 5.86369 43.6147 5.86369 44.029C5.86369 44.4504 5.53364 44.7804 5.07953 44.7804C2.28461 44.7804 0 42.4958 0 39.7008V8.40843C0 8.20478 0.0819282 8.01517 0.224715 7.87238L7.87223 0.22472C8.00799 0.08661 8.1976 0 8.40827 0H29.3793C32.1742 0 34.4588 2.28465 34.4588 5.07962L34.4584 6.3301ZM34.8493 39.5323C34.5567 39.2397 34.5567 38.7621 34.8493 38.4696C35.1419 38.177 35.617 38.177 35.912 38.4696L40.4976 43.0552L49.6174 33.9352C49.91 33.6426 50.3876 33.6426 50.6801 33.9352C50.9727 34.2278 50.9727 34.7054 50.6801 34.9979L41.0293 44.6489C40.7367 44.9415 40.2592 44.9415 39.9666 44.6489L34.8493 39.5323ZM43.0631 21.6482C42.8782 21.5686 42.6628 21.5616 42.4639 21.6482L29.0349 27.5003C28.7399 27.6009 28.5293 27.8818 28.5293 28.2119V38.8276C28.5293 43.1231 29.9946 47.0931 32.4478 50.265C34.9524 53.5023 38.4917 55.9064 42.5599 56.9712C42.684 57.0063 42.8174 57.011 42.9509 56.9759C51.1203 54.8504 56.9977 47.3902 56.9977 38.8275L57 28.2094C57 27.9121 56.8198 27.6405 56.5482 27.5235L43.0631 21.6482ZM55.4949 28.7014L42.7635 23.1536L30.032 28.7014V38.8258C30.032 42.7795 31.378 46.4309 33.6345 49.3481C35.905 52.2834 39.0955 54.4721 42.7633 55.4742C46.4313 54.4723 49.6216 52.2813 51.8921 49.3481C54.1486 46.4314 55.4946 42.7796 55.4946 38.8258L55.4949 28.7014ZM7.65635 2.5662L2.56513 7.65751H7.65635V2.5662ZM18.1431 23.0882H32.9347C33.349 23.0882 33.6861 22.7511 33.6861 22.3368C33.6861 21.9225 33.349 21.5854 32.9347 21.5854H18.1431C17.7287 21.5854 17.3917 21.9225 17.3917 22.3368C17.3917 22.7511 17.7264 23.0882 18.1431 23.0882ZM18.1431 30.5016H25.3549C25.7692 30.5016 26.1063 30.1645 26.1063 29.7502C26.1063 29.3358 25.7692 28.9988 25.3549 28.9988H18.1431C17.7287 28.9988 17.3917 29.3358 17.3917 29.7502C17.3917 30.1645 17.7264 30.5016 18.1431 30.5016ZM18.1431 37.9149H25.3549C25.7692 37.9149 26.1063 37.5778 26.1063 37.1635C26.1063 36.7492 25.7692 36.4121 25.3549 36.4121H18.1431C17.7287 36.4121 17.3917 36.7492 17.3917 37.1635C17.3917 37.5778 17.7264 37.9149 18.1431 37.9149ZM18.1431 45.3283H26.1273C26.5417 45.3283 26.8787 44.9912 26.8787 44.5769C26.8787 44.1625 26.5417 43.8255 26.1273 43.8255H18.1431C17.7287 43.8255 17.3917 44.1625 17.3917 44.5769C17.3917 44.9912 17.7264 45.3283 18.1431 45.3283ZM7.52272 17.1514V48.4438C7.52272 51.2388 9.80732 53.5234 12.6022 53.5234H30.3877C30.802 53.5234 31.1391 53.1863 31.1391 52.772C31.1391 52.3577 30.802 52.0206 30.3877 52.0206H12.6022C10.636 52.0206 9.02549 50.4101 9.02549 48.4438L9.02783 17.9029H15.9329C16.3472 17.9029 16.6843 17.5658 16.6843 17.1515V10.2463H36.9039C38.8701 10.2463 40.4806 11.8568 40.4806 13.8231V18.7201C40.4806 19.1345 40.8177 19.4715 41.232 19.4715C41.6463 19.4715 41.9834 19.1345 41.9834 18.7201V13.8231C41.9834 11.0281 39.6988 8.74347 36.9039 8.74347H15.9328C15.7222 8.74347 15.5349 8.83008 15.3968 8.96819L7.74688 16.6159C7.60643 16.7563 7.52216 16.9483 7.52216 17.1519L7.52272 17.1514ZM10.0906 16.4H15.1818V11.3087L10.0906 16.4ZM14.1355 42.2709C12.8644 42.2709 11.8321 43.3033 11.8321 44.5743C11.8321 46.6203 14.318 47.6525 15.7646 46.2036C17.2112 44.7569 16.1813 42.2709 14.1355 42.2709ZM14.7019 44.0101C14.1987 43.5069 13.3349 43.865 13.3349 44.5766C13.3349 45.2882 14.1987 45.6464 14.7019 45.1431C15.0133 44.8294 15.0133 44.3215 14.7019 44.0101ZM14.1355 20.0305C12.8644 20.0305 11.8321 21.0628 11.8321 22.3339C11.8321 24.3798 14.318 25.412 15.7646 23.9631C17.2112 22.5165 16.1813 20.0305 14.1355 20.0305ZM14.7019 21.7697C14.1987 21.2664 13.3349 21.6245 13.3349 22.3361C13.3349 23.0478 14.1987 23.4059 14.7019 22.9026C15.0133 22.589 15.0133 22.081 14.7019 21.7697ZM14.1355 27.4439C12.0896 27.4439 11.0573 29.9298 12.5062 31.3765C13.4964 32.3666 15.1209 32.2519 15.9682 31.1377C17.1082 29.6372 16.0502 27.4439 14.1355 27.4439ZM14.7019 29.1831C14.1987 28.6798 13.3349 29.0379 13.3349 29.7496C13.3349 30.6789 14.6551 30.8497 14.9079 29.9743C14.9852 29.7004 14.9056 29.3867 14.7019 29.1831ZM14.1355 34.8573C12.8644 34.8573 11.8321 35.8896 11.8321 37.1607C11.8321 39.2066 14.318 40.2389 15.7646 38.7899C17.2112 37.3433 16.1813 34.8573 14.1355 34.8573ZM14.7019 36.5965C14.1987 36.0932 13.3349 36.4514 13.3349 37.163C13.3349 37.8746 14.1987 38.2328 14.7019 37.7295C15.0133 37.4158 15.0133 36.9078 14.7019 36.5965Z" fill="#006E81"/>
</svg>
