<svg width="57" height="67" viewBox="0 0 57 67" fill="none" xmlns="http://www.w3.org/2000/svg">
<path d="M43.2857 0H13.7137C13.2461 0 12.8672 0.379068 12.8672 0.84653V17.2333C12.8672 17.7007 13.2461 18.0797 13.7137 18.0797C14.1813 18.0797 14.5602 17.7007 14.5602 17.2332V1.69306H42.4392V17.2332C42.4392 17.7007 42.8181 18.0797 43.2857 18.0797C43.7533 18.0797 44.1322 17.7007 44.1322 17.2332V0.84653C44.1322 0.379068 43.7533 0 43.2857 0Z" fill="#006E81"/>
<path d="M43.2043 37.8122H44.3551C44.8227 37.8122 45.2016 37.4331 45.2016 36.9657C45.2016 36.4982 44.8227 36.1191 44.3551 36.1191H12.6473C12.1797 36.1191 11.8008 36.4982 11.8008 36.9657C11.8008 37.4331 12.1797 37.8122 12.6473 37.8122H13.7981L12.3759 51.075C12.3261 51.5399 12.6625 51.9571 13.1272 52.0069C13.5947 52.0573 14.0093 51.7203 14.0592 51.2556L15.5007 37.8123H41.5015L43.3611 55.1532H13.6412L13.7562 54.0813C13.8061 53.6165 13.4698 53.1993 13.0049 53.1494C12.5413 53.0997 12.1229 53.4359 12.073 53.9007L11.8576 55.9094C11.8318 56.1482 11.909 56.3868 12.0695 56.5656C12.2302 56.7442 12.4591 56.8462 12.6992 56.8462H44.3035C44.5436 56.8462 44.7726 56.7441 44.9331 56.5656C45.0937 56.3869 45.1707 56.1484 45.1451 55.9094L43.2043 37.8122Z" fill="#006E81"/>
<path d="M46.8975 19.0332H5.51469C2.47391 19.0332 0 21.5072 0 24.548V43.4176C0 46.4584 2.47391 48.9324 5.51469 48.9324H10.7235C11.191 48.9324 11.57 48.5533 11.57 48.0859C11.57 47.6184 11.191 47.2393 10.7236 47.2393H5.51469C3.40738 47.2393 1.69306 45.5249 1.69306 43.4176V24.548C1.69306 22.4407 3.4075 20.7263 5.51469 20.7263H46.8975C47.3651 20.7263 47.744 20.3472 47.744 19.8797C47.744 19.4123 47.3652 19.0332 46.8975 19.0332Z" fill="#006E81"/>
<path d="M51.485 19.0332H49.7209C49.2533 19.0332 48.8744 19.4123 48.8744 19.8797C48.8744 20.3472 49.2533 20.7263 49.7209 20.7263H51.485C53.593 20.7263 55.3078 22.4407 55.3078 24.548V43.4176C55.3078 45.5249 53.5928 47.2393 51.485 47.2393H46.2762C45.8086 47.2393 45.4297 47.6184 45.4297 48.0859C45.4297 48.5533 45.8086 48.9324 46.2762 48.9324H51.485C54.5264 48.9324 57.0009 46.4585 57.0009 43.4176V24.548C57.0009 21.5072 54.5264 19.0332 51.485 19.0332Z" fill="#006E81"/>
<path d="M47.0104 32.127H9.98911C9.52153 32.127 9.14258 32.506 9.14258 32.9735V42.0031C9.14258 42.4706 9.52153 42.8496 9.98911 42.8496H11.376C11.8436 42.8496 12.2225 42.4706 12.2225 42.0031C12.2225 41.5356 11.8436 41.1566 11.376 41.1566H10.8356V33.82H46.164V41.1566H45.6236C45.1561 41.1566 44.7771 41.5356 44.7771 42.0031C44.7771 42.4706 45.1561 42.8496 45.6236 42.8496H47.0106C47.4781 42.8496 47.8571 42.4706 47.8571 42.0031V32.9735C47.857 32.5059 47.4781 32.127 47.0104 32.127Z" fill="#006E81"/>
<path d="M7.27916 22.5332C5.19422 22.5332 3.49805 24.2294 3.49805 26.3143C3.49805 28.3992 5.19422 30.0954 7.27916 30.0954C9.36409 30.0954 11.0603 28.3992 11.0603 26.3143C11.0603 24.2294 9.36409 22.5332 7.27916 22.5332ZM7.27916 28.4024C6.12781 28.4024 5.19111 27.4657 5.19111 26.3143C5.19111 25.163 6.12781 24.2263 7.27916 24.2263C8.4305 24.2263 9.3672 25.163 9.3672 26.3143C9.3672 27.4657 8.4305 28.4024 7.27916 28.4024Z" fill="#006E81"/>
<path d="M16.0838 22.5332C13.9989 22.5332 12.3027 24.2294 12.3027 26.3143C12.3027 28.3992 13.9989 30.0954 16.0838 30.0954C18.1688 30.0954 19.865 28.3992 19.865 26.3143C19.8651 24.2294 18.1688 22.5332 16.0838 22.5332ZM16.0838 28.4024C14.9325 28.4024 13.9958 27.4657 13.9958 26.3143C13.9958 25.163 14.9325 24.2263 16.0838 24.2263C17.2352 24.2263 18.1719 25.163 18.1719 26.3143C18.1719 27.4657 17.2353 28.4024 16.0838 28.4024Z" fill="#006E81"/>
<path d="M39.5045 50.1855H17.495C17.0274 50.1855 16.6484 50.5646 16.6484 51.0321C16.6484 51.4995 17.0274 51.8786 17.495 51.8786H39.5046C39.9722 51.8786 40.3512 51.4995 40.3512 51.0321C40.3512 50.5646 39.9722 50.1855 39.5045 50.1855Z" fill="#006E81"/>
<path d="M38.9679 46.3486H18.0301C17.5627 46.3486 17.1836 46.7277 17.1836 47.1952C17.1836 47.6626 17.5626 48.0417 18.0301 48.0417H38.9678C39.4354 48.0417 39.8144 47.6626 39.8144 47.1952C39.8144 46.7277 39.4355 46.3486 38.9679 46.3486Z" fill="#006E81"/>
<path d="M38.516 42.5107H18.4813C18.0137 42.5107 17.6348 42.8898 17.6348 43.3573C17.6348 43.8247 18.0137 44.2038 18.4813 44.2038H38.516C38.9836 44.2038 39.3626 43.8247 39.3626 43.3573C39.3626 42.8898 38.9837 42.5107 38.516 42.5107Z" fill="#006E81"/>
<g clip-path="url(#clip0_163_422)">
<rect x="25.1758" y="34.9199" width="31.6712" height="31.6712" rx="15.8356" fill="white"/>
<path d="M41.0114 34.9199C32.2794 34.9199 25.1758 42.024 25.1758 50.756C25.1765 59.4872 32.2804 66.5908 41.0114 66.5908C49.7432 66.5908 56.8471 59.4873 56.8471 50.7559C56.8469 42.024 49.7432 34.9199 41.0114 34.9199ZM41.0114 37.1249C44.2485 37.1249 47.2248 38.2598 49.5655 40.1518L30.4078 59.3093C28.5161 56.9688 27.381 53.9926 27.3807 50.7559C27.3807 43.2398 33.4955 37.1249 41.0114 37.1249ZM41.0114 64.3858C37.525 64.3858 34.3406 63.0693 31.9275 60.9082L51.1642 41.6715C53.3255 44.0846 54.642 47.2693 54.642 50.756C54.642 58.2715 48.5272 64.3858 41.0114 64.3858Z" fill="#006E81"/>
</g>
<defs>
<clipPath id="clip0_163_422">
<rect x="25.1758" y="34.9199" width="31.6712" height="31.6712" rx="15.8356" fill="white"/>
</clipPath>
</defs>
</svg>
