<svg width="57" height="57" viewBox="0 0 57 57" fill="none" xmlns="http://www.w3.org/2000/svg">
<g clip-path="url(#clip0_167_915)">
<path d="M55.2188 32.9531H1.78125C1.54504 32.9531 1.31851 33.047 1.15148 33.214C0.984458 33.381 0.890625 33.6075 0.890625 33.8438V42.75C0.890625 42.9862 0.984458 43.2127 1.15148 43.3798C1.31851 43.5468 1.54504 43.6406 1.78125 43.6406H55.2188C55.455 43.6406 55.6815 43.5468 55.8485 43.3798C56.0155 43.2127 56.1094 42.9862 56.1094 42.75V33.8438C56.1094 33.6075 56.0155 33.381 55.8485 33.214C55.6815 33.047 55.455 32.9531 55.2188 32.9531ZM2.67188 34.7344H41.8594V41.8594H2.67188V34.7344ZM54.3281 41.8594H43.6406V34.7344H54.3281V41.8594Z" fill="#006E81"/>
<path d="M55.2188 45.4219H1.78125C1.54504 45.4219 1.31851 45.5157 1.15148 45.6827C0.984458 45.8498 0.890625 46.0763 0.890625 46.3125V55.2188C0.890625 55.455 0.984458 55.6815 1.15148 55.8485C1.31851 56.0155 1.54504 56.1094 1.78125 56.1094H55.2188C55.455 56.1094 55.6815 56.0155 55.8485 55.8485C56.0155 55.6815 56.1094 55.455 56.1094 55.2188V46.3125C56.1094 46.0763 56.0155 45.8498 55.8485 45.6827C55.6815 45.5157 55.455 45.4219 55.2188 45.4219ZM2.67188 47.2031H41.8594V54.3281H2.67188V47.2031ZM54.3281 54.3281H43.6406V47.2031H54.3281V54.3281Z" fill="#006E81"/>
<path d="M28.5 31.1719C31.4945 31.1719 34.4218 30.2839 36.9117 28.6202C39.4015 26.9566 41.3422 24.5919 42.4881 21.8253C43.6341 19.0587 43.9339 16.0145 43.3497 13.0775C42.7655 10.1405 41.3235 7.44267 39.206 5.32522C37.0886 3.20776 34.3908 1.76576 31.4538 1.18155C28.5168 0.59735 25.4725 0.897185 22.7059 2.04314C19.9393 3.1891 17.5747 5.12971 15.911 7.61958C14.2474 10.1094 13.3594 13.0367 13.3594 16.0313C13.3639 20.0454 14.9605 23.8939 17.7989 26.7323C20.6374 29.5708 24.4858 31.1674 28.5 31.1719ZM33.8437 14.25C34.08 14.25 34.3065 14.3438 34.4735 14.5109C34.6405 14.6779 34.7344 14.9044 34.7344 15.1406C34.7344 15.3768 34.6405 15.6034 34.4735 15.7704C34.3065 15.9374 34.08 16.0313 33.8437 16.0313V14.25ZM32.8231 10.9324L32.3902 12.2327L30.5627 11.6236C30.4288 11.579 30.2862 11.5668 30.1467 11.5881C30.0072 11.6095 29.8748 11.6636 29.7603 11.7462C29.6459 11.8287 29.5526 11.9373 29.4884 12.0629C29.4241 12.1885 29.3906 12.3276 29.3906 12.4688V12.809L27.1169 11.6716C26.981 11.6038 26.8301 11.5718 26.6785 11.5786C26.5268 11.5855 26.3794 11.631 26.2503 11.7109C26.1211 11.7908 26.0146 11.9023 25.9407 12.035C25.8668 12.1676 25.8281 12.3169 25.8281 12.4688V13.0147L24.7514 12.6585L24.1769 10.936C24.0905 10.6776 24.0465 10.4069 24.0469 10.1344C24.0492 9.64989 24.1893 9.17601 24.4507 8.76805C24.7122 8.3601 25.0843 8.0349 25.5235 7.83038C26.4614 7.36427 27.4956 7.1249 28.5429 7.13155C29.5901 7.13821 30.6212 7.39069 31.5531 7.86868C32.0984 8.14138 32.527 8.60161 32.7603 9.16489C32.9936 9.72817 33.0159 10.3567 32.8231 10.9351V10.9324ZM23.1562 16.0313C22.92 16.0313 22.6935 15.9374 22.5265 15.7704C22.3595 15.6034 22.2656 15.3768 22.2656 15.1406C22.2656 14.9044 22.3595 14.6779 22.5265 14.5109C22.6935 14.3438 22.92 14.25 23.1562 14.25V16.0313ZM26.4373 15.0952C26.5281 15.1252 26.6231 15.1405 26.7187 15.1406C26.955 15.1406 27.1815 15.0468 27.3485 14.8798C27.5155 14.7127 27.6094 14.4862 27.6094 14.25V13.9098L29.8831 15.0516C30.0193 15.1196 30.1706 15.1516 30.3227 15.1445C30.4747 15.1375 30.6224 15.0915 30.7516 15.0112C30.8809 14.9308 30.9874 14.8186 31.0609 14.6853C31.1345 14.5521 31.1727 14.4022 31.1719 14.25V13.7041L32.0625 14.0015V16.0313C32.0625 16.9761 31.6872 17.8822 31.0191 18.5503C30.351 19.2184 29.4448 19.5938 28.5 19.5938C27.5552 19.5938 26.649 19.2184 25.9809 18.5503C25.3128 17.8822 24.9375 16.9761 24.9375 16.0313V14.5956L26.4373 15.0952ZM36.5156 26.6929C34.6523 28.1027 32.4498 28.9955 30.1307 29.2811L32.5969 27.4313C32.7645 27.3068 32.8831 27.1274 32.932 26.9244C32.9808 26.7214 32.9568 26.5077 32.8641 26.3206L32.3715 25.3356L33.3557 24.844C33.5029 24.7694 33.6265 24.6554 33.7127 24.5146C33.7989 24.3738 33.8442 24.2119 33.8437 24.0469V21.7526C34.637 22.0988 35.3121 22.6687 35.7866 23.3925C36.2612 24.1163 36.5145 24.9627 36.5156 25.8281V26.6929ZM26.2262 24.1404L24.9375 23.4965V21.375H25.324L27.6094 25.1842V27.6094L26.0668 26.4516L26.6252 25.3347C26.7306 25.1234 26.7478 24.8789 26.673 24.655C26.5982 24.431 26.4375 24.2459 26.2262 24.1404ZM30.3703 25.3356L30.9287 26.4525L29.3906 27.6094V25.1842L31.676 21.375H32.0625V23.4965L30.7738 24.1404C30.6687 24.1922 30.5748 24.2643 30.4977 24.3525C30.4205 24.4407 30.3614 24.5432 30.324 24.6543C30.2865 24.7653 30.2713 24.8826 30.2792 24.9996C30.2872 25.1165 30.3181 25.2307 30.3703 25.3356ZM29.599 21.375L28.5 23.2061L27.401 21.375H29.599ZM23.6488 24.8484L24.6329 25.3401L24.1404 26.3251C24.0484 26.5112 24.0243 26.7236 24.0723 26.9256C24.1203 27.1275 24.2373 27.3064 24.4031 27.4313L26.8693 29.2811C24.5502 28.9955 22.3477 28.1027 20.4844 26.6929V25.8281C20.4855 24.9627 20.7388 24.1163 21.2133 23.3925C21.6879 22.6687 22.363 22.0988 23.1562 21.7526V24.0469C23.1553 24.2131 23.201 24.3763 23.288 24.518C23.3751 24.6597 23.5 24.7741 23.6488 24.8484ZM28.5 2.67188C31.1028 2.66771 33.65 3.42518 35.8276 4.85094C38.0052 6.2767 39.718 8.30843 40.755 10.6958C41.792 13.0831 42.1079 15.7216 41.6637 18.2863C41.2194 20.8509 40.0346 23.2295 38.255 25.129C38.0892 23.6749 37.4171 22.3255 36.3564 21.3171C35.2957 20.3086 33.9141 19.7055 32.4535 19.6133C32.9286 19.0904 33.2952 18.4783 33.532 17.8125H33.8437C34.5235 17.8155 35.1787 17.5585 35.6753 17.0943C36.1719 16.63 36.4722 15.9935 36.5149 15.3151C36.5576 14.6366 36.3393 13.9675 35.9049 13.4447C35.4704 12.9218 34.8525 12.5848 34.1777 12.5026L34.5126 11.4962C34.6601 11.0564 34.735 10.5956 34.7344 10.1318C34.7333 9.3161 34.5016 8.51737 34.0661 7.82776C33.6305 7.13815 33.0088 6.58577 32.2727 6.23438C31.0872 5.64652 29.7808 5.34384 28.4576 5.35049C27.1344 5.35714 25.8311 5.67293 24.6516 6.27268C23.7222 6.7367 22.9916 7.52059 22.594 8.48026C22.1964 9.43992 22.1585 10.5109 22.4874 11.4962L22.8223 12.5026C22.1475 12.5848 21.5296 12.9218 21.0951 13.4447C20.6607 13.9675 20.4424 14.6366 20.4851 15.3151C20.5278 15.9935 20.8281 16.63 21.3247 17.0943C21.8213 17.5585 22.4765 17.8155 23.1562 17.8125H23.468C23.7048 18.4783 24.0714 19.0904 24.5465 19.6133C23.0859 19.7055 21.7043 20.3086 20.6436 21.3171C19.5829 22.3255 18.9108 23.6749 18.745 25.129C16.9654 23.2295 15.7805 20.8509 15.3363 18.2863C14.8921 15.7216 15.2079 13.0831 16.245 10.6958C17.282 8.30843 18.9948 6.2767 21.1724 4.85094C23.35 3.42518 25.8972 2.66771 28.5 2.67188Z" fill="#006E81"/>
<path d="M4.45312 37.4062H36.5156V39.1875H4.45312V37.4062Z" fill="#006E81"/>
<path d="M38.2969 37.4062H40.0781V39.1875H38.2969V37.4062Z" fill="#006E81"/>
<path d="M8.90625 48.9844H7.125V49.875H6.23438V51.6562H7.125V52.5469H8.90625V51.6562H9.79688V49.875H8.90625V48.9844Z" fill="#006E81"/>
<path d="M16.0312 48.9844H14.25V49.875H13.3594V51.6562H14.25V52.5469H16.0312V51.6562H16.9219V49.875H16.0312V48.9844Z" fill="#006E81"/>
<path d="M23.1562 48.9844H21.375V49.875H20.4844V51.6562H21.375V52.5469H23.1562V51.6562H24.0469V49.875H23.1562V48.9844Z" fill="#006E81"/>
<path d="M30.2812 48.9844H28.5V49.875H27.6094V51.6562H28.5V52.5469H30.2812V51.6562H31.1719V49.875H30.2812V48.9844Z" fill="#006E81"/>
<path d="M38.2969 49.875H37.4062V48.9844H35.625V49.875H34.7344V51.6562H35.625V52.5469H37.4062V51.6562H38.2969V49.875Z" fill="#006E81"/>
</g>
<defs>
<clipPath id="clip0_167_915">
<rect width="57" height="57" fill="white"/>
</clipPath>
</defs>
</svg>
