<svg width="58" height="58" viewBox="0 0 58 58" fill="none" xmlns="http://www.w3.org/2000/svg">
<path d="M36.0885 23.0563C36.0885 20.3097 34.6189 17.373 30.4052 17.373H26.7004C25.5519 17.373 24.5936 17.5657 23.7637 17.9485L36.4096 30.5944L36.0885 23.0563Z" fill="#006E81"/>
<path d="M33.5945 39.536L20.7583 26.6973L20.5039 32.8918C20.5039 34.0403 21.4622 34.9986 22.6107 34.9986C22.9293 34.9986 23.2504 34.9344 23.5048 34.7442L23.122 47.9016C23.122 48.9884 23.8235 50.0084 24.7818 50.3295C25.5474 50.5839 26.3773 50.4579 27.0171 50.0109C27.6568 49.5638 28.0396 48.7982 28.0396 48.03L28.5484 36.024L28.9955 47.9662C28.9955 48.7318 29.3783 49.5 30.018 49.947C30.4651 50.2657 30.9121 50.3941 31.4234 50.3941C31.6778 50.3941 31.9989 50.3299 32.1891 50.2657C33.2116 49.947 33.8488 48.9887 33.8488 47.8378L33.5945 39.536Z" fill="#006E81"/>
<path d="M27.9756 16.5436H28.4227C29.6996 16.5436 30.9123 16.0323 31.8706 15.1382C32.8932 14.1157 33.4045 12.7103 33.276 11.3049C33.0834 9.06964 31.1692 7.15302 28.9339 6.96283C27.5285 6.8344 26.1232 7.34567 25.1007 8.36823C24.0781 9.39078 23.5668 10.7961 23.6952 12.2015C23.8237 14.5628 25.6761 16.4152 27.9756 16.5436Z" fill="#006E81"/>
<path d="M28.6777 0C12.8381 0 0 12.8387 0 28.6777C0 44.5167 12.8387 57.3555 28.6777 57.3555C44.5167 57.3555 57.3555 44.5167 57.3555 28.6777C57.3555 12.8387 44.5167 0 28.6777 0ZM4.47285 28.6777C4.47285 22.8018 6.57966 17.4374 10.0302 13.2851L44.0729 47.3279C39.8568 50.7759 34.4924 52.8852 28.6803 52.8852C15.3307 52.8827 4.47285 42.0248 4.47285 28.6777ZM47.264 44.1987L13.2213 10.0921C17.4374 6.57985 22.8018 4.47058 28.6777 4.47058C42.0248 4.47058 52.8826 15.3283 52.8826 28.6755C52.8826 34.5538 50.7763 39.9825 47.264 44.1987Z" fill="#006E81"/>
</svg>
