<svg width="58" height="58" viewBox="0 0 58 58" fill="none" xmlns="http://www.w3.org/2000/svg">
<path d="M28.8873 45.6439C25.011 45.6438 21.2546 44.2996 18.2582 41.8404C15.2618 39.3812 13.2108 35.9591 12.4547 32.1572C11.6986 28.3553 12.2841 24.4089 14.1114 20.9903C15.9388 17.5717 18.895 14.8925 22.4763 13.4091C26.0576 11.9257 30.0424 11.73 33.7518 12.8553C37.4612 13.9806 40.6657 16.3572 42.8193 19.5803C44.9729 22.8034 45.9422 26.6735 45.5623 30.5312C45.1823 34.3888 43.4766 37.9954 40.7356 40.7364C39.1833 42.2973 37.3369 43.5348 35.3031 44.3771C33.2693 45.2195 31.0886 45.6501 28.8873 45.6439ZM28.8873 14.3546C20.873 14.3546 14.3537 20.8738 14.3537 28.8882C14.3537 36.9025 20.873 43.4218 28.8873 43.4218C36.9017 43.4218 43.4209 36.9025 43.4209 28.8882C43.4209 20.8738 36.9017 14.3546 28.8873 14.3546Z" fill="#006E81"/>
<path d="M36.5638 32.342H21.2087C20.9141 32.342 20.6315 32.2249 20.4231 32.0166C20.2147 31.8082 20.0977 31.5256 20.0977 31.2309V21.3249C20.0977 21.0303 20.2147 20.7477 20.4231 20.5393C20.6315 20.3309 20.9141 20.2139 21.2087 20.2139H36.5638C36.8585 20.2139 37.1411 20.3309 37.3495 20.5393C37.5579 20.7477 37.6749 21.0303 37.6749 21.3249V31.2309C37.6749 31.5256 37.5579 31.8082 37.3495 32.0166C37.1411 32.2249 36.8585 32.342 36.5638 32.342ZM22.3198 30.1198H35.4528V22.436H22.3198V30.1198Z" fill="#006E81"/>
<path d="M31.2293 37.5623H26.5447C26.25 37.5623 25.9674 37.4452 25.759 37.2368C25.5507 37.0285 25.4336 36.7459 25.4336 36.4512V31.2312C25.4336 30.9365 25.5507 30.6539 25.759 30.4455C25.9674 30.2372 26.25 30.1201 26.5447 30.1201C26.8393 30.1201 27.122 30.2372 27.3303 30.4455C27.5387 30.6539 27.6558 30.9365 27.6558 31.2312V35.3401H30.1182V31.2312C30.1182 30.9365 30.2352 30.6539 30.4436 30.4455C30.652 30.2372 30.9346 30.1201 31.2293 30.1201C31.5239 30.1201 31.8065 30.2372 32.0149 30.4455C32.2233 30.6539 32.3403 30.9365 32.3403 31.2312V36.4512C32.3403 36.7459 32.2233 37.0285 32.0149 37.2368C31.8065 37.4452 31.5239 37.5623 31.2293 37.5623Z" fill="#006E81"/>
<path d="M34.1055 37.562H23.6697C23.375 37.562 23.0924 37.4449 22.884 37.2366C22.6757 37.0282 22.5586 36.7456 22.5586 36.4509C22.5586 36.1562 22.6757 35.8736 22.884 35.6653C23.0924 35.4569 23.375 35.3398 23.6697 35.3398H34.1055C34.4002 35.3398 34.6828 35.4569 34.8911 35.6653C35.0995 35.8736 35.2166 36.1562 35.2166 36.4509C35.2166 36.7456 35.0995 37.0282 34.8911 37.2366C34.6828 37.4449 34.4002 37.562 34.1055 37.562Z" fill="#006E81"/>
<path d="M28.8884 14.3546C28.5937 14.3546 28.3111 14.2376 28.1028 14.0292C27.8944 13.8208 27.7773 13.5382 27.7773 13.2435V6.27221C27.7773 5.97754 27.8944 5.69493 28.1028 5.48656C28.3111 5.27819 28.5937 5.16113 28.8884 5.16113C29.1831 5.16113 29.4657 5.27819 29.6741 5.48656C29.8824 5.69493 29.9995 5.97754 29.9995 6.27221V13.2435C29.9995 13.5382 29.8824 13.8208 29.6741 14.0292C29.4657 14.2376 29.1831 14.3546 28.8884 14.3546Z" fill="#006E81"/>
<path d="M28.8869 7.38312C28.1568 7.38312 27.443 7.16662 26.836 6.76098C26.2289 6.35535 25.7557 5.7788 25.4763 5.10426C25.1969 4.42972 25.1238 3.68747 25.2662 2.97137C25.4087 2.25528 25.7603 1.59751 26.2765 1.08123C26.7928 0.564961 27.4506 0.213374 28.1667 0.070934C28.8828 -0.0715057 29.625 0.00159941 30.2996 0.281005C30.9741 0.56041 31.5507 1.03357 31.9563 1.64064C32.3619 2.24771 32.5784 2.96144 32.5784 3.69156C32.5773 4.67029 32.188 5.60861 31.496 6.30067C30.8039 6.99273 29.8656 7.38202 28.8869 7.38312ZM28.8869 2.22216C28.5963 2.22216 28.3122 2.30834 28.0705 2.4698C27.8289 2.63126 27.6405 2.86075 27.5293 3.12925C27.4181 3.39774 27.389 3.69319 27.4457 3.97823C27.5024 4.26326 27.6424 4.52509 27.8479 4.73058C28.0533 4.93608 28.3152 5.07603 28.6002 5.13273C28.8852 5.18943 29.1807 5.16033 29.4492 5.04911C29.7177 4.9379 29.9472 4.74956 30.1086 4.50792C30.2701 4.26627 30.3563 3.98218 30.3563 3.69156C30.3559 3.30196 30.201 2.92843 29.9255 2.65294C29.65 2.37746 29.2765 2.22253 28.8869 2.22216Z" fill="#006E81"/>
<path d="M28.8884 52.6149C28.5937 52.6149 28.3111 52.4978 28.1028 52.2894C27.8944 52.0811 27.7773 51.7985 27.7773 51.5038V44.5325C27.7773 44.2378 27.8944 43.9552 28.1028 43.7468C28.3111 43.5384 28.5937 43.4214 28.8884 43.4214C29.1831 43.4214 29.4657 43.5384 29.6741 43.7468C29.8824 43.9552 29.9995 44.2378 29.9995 44.5325V51.5038C29.9995 51.7985 29.8824 52.0811 29.6741 52.2894C29.4657 52.4978 29.1831 52.6149 28.8884 52.6149Z" fill="#006E81"/>
<path d="M28.8869 57.7757C28.1568 57.7757 27.443 57.5592 26.836 57.1536C26.2289 56.7479 25.7557 56.1714 25.4763 55.4968C25.1969 54.8223 25.1238 54.08 25.2662 53.364C25.4087 52.6479 25.7603 51.9901 26.2765 51.4738C26.7928 50.9575 27.4506 50.606 28.1667 50.4635C28.8828 50.3211 29.625 50.3942 30.2996 50.6736C30.9741 50.953 31.5507 51.4261 31.9563 52.0332C32.3619 52.6403 32.5784 53.354 32.5784 54.0841C32.5773 55.0629 32.188 56.0012 31.496 56.6932C30.8039 57.3853 29.8656 57.7746 28.8869 57.7757ZM28.8869 52.6147C28.5963 52.6147 28.3122 52.7009 28.0705 52.8624C27.8289 53.0238 27.6405 53.2533 27.5293 53.5218C27.4181 53.7903 27.389 54.0858 27.4457 54.3708C27.5024 54.6558 27.6424 54.9177 27.8479 55.1232C28.0533 55.3287 28.3152 55.4686 28.6002 55.5253C28.8852 55.582 29.1807 55.5529 29.4492 55.4417C29.7177 55.3305 29.9472 55.1421 30.1086 54.9005C30.2701 54.6589 30.3563 54.3748 30.3563 54.0841C30.3559 53.6945 30.201 53.321 29.9255 53.0455C29.65 52.77 29.2765 52.6151 28.8869 52.6147Z" fill="#006E81"/>
<path d="M28.8884 14.3546C28.5937 14.3546 28.3111 14.2376 28.1028 14.0292C27.8944 13.8208 27.7773 13.5382 27.7773 13.2435V6.27221C27.7773 5.97754 27.8944 5.69493 28.1028 5.48656C28.3111 5.27819 28.5937 5.16113 28.8884 5.16113C29.1831 5.16113 29.4657 5.27819 29.6741 5.48656C29.8824 5.69493 29.9995 5.97754 29.9995 6.27221V13.2435C29.9995 13.5382 29.8824 13.8208 29.6741 14.0292C29.4657 14.2376 29.1831 14.3546 28.8884 14.3546Z" fill="#006E81"/>
<path d="M28.8869 7.38312C28.1568 7.38312 27.443 7.16662 26.836 6.76098C26.2289 6.35535 25.7557 5.7788 25.4763 5.10426C25.1969 4.42972 25.1238 3.68747 25.2662 2.97137C25.4087 2.25528 25.7603 1.59751 26.2765 1.08123C26.7928 0.564961 27.4506 0.213374 28.1667 0.070934C28.8828 -0.0715057 29.625 0.00159941 30.2996 0.281005C30.9741 0.56041 31.5507 1.03357 31.9563 1.64064C32.3619 2.24771 32.5784 2.96144 32.5784 3.69156C32.5773 4.67029 32.188 5.60861 31.496 6.30067C30.8039 6.99273 29.8656 7.38202 28.8869 7.38312ZM28.8869 2.22216C28.5963 2.22216 28.3122 2.30834 28.0705 2.4698C27.8289 2.63126 27.6405 2.86075 27.5293 3.12925C27.4181 3.39774 27.389 3.69319 27.4457 3.97823C27.5024 4.26326 27.6424 4.52509 27.8479 4.73058C28.0533 4.93608 28.3152 5.07603 28.6002 5.13273C28.8852 5.18943 29.1807 5.16033 29.4492 5.04911C29.7177 4.9379 29.9472 4.74956 30.1086 4.50792C30.2701 4.26627 30.3563 3.98218 30.3563 3.69156C30.3559 3.30196 30.201 2.92843 29.9255 2.65294C29.65 2.37746 29.2765 2.22253 28.8869 2.22216Z" fill="#006E81"/>
<path d="M28.8884 52.6149C28.5937 52.6149 28.3111 52.4978 28.1028 52.2894C27.8944 52.0811 27.7773 51.7985 27.7773 51.5038V44.5325C27.7773 44.2378 27.8944 43.9552 28.1028 43.7468C28.3111 43.5384 28.5937 43.4214 28.8884 43.4214C29.1831 43.4214 29.4657 43.5384 29.6741 43.7468C29.8824 43.9552 29.9995 44.2378 29.9995 44.5325V51.5038C29.9995 51.7985 29.8824 52.0811 29.6741 52.2894C29.4657 52.4978 29.1831 52.6149 28.8884 52.6149Z" fill="#006E81"/>
<path d="M28.8869 57.7757C28.1568 57.7757 27.443 57.5592 26.836 57.1536C26.2289 56.7479 25.7557 56.1714 25.4763 55.4968C25.1969 54.8223 25.1238 54.08 25.2662 53.364C25.4087 52.6479 25.7603 51.9901 26.2765 51.4738C26.7928 50.9575 27.4506 50.606 28.1667 50.4635C28.8828 50.3211 29.625 50.3942 30.2996 50.6736C30.9741 50.953 31.5507 51.4261 31.9563 52.0332C32.3619 52.6403 32.5784 53.354 32.5784 54.0841C32.5773 55.0629 32.188 56.0012 31.496 56.6932C30.8039 57.3853 29.8656 57.7746 28.8869 57.7757ZM28.8869 52.6147C28.5963 52.6147 28.3122 52.7009 28.0705 52.8624C27.8289 53.0238 27.6405 53.2533 27.5293 53.5218C27.4181 53.7903 27.389 54.0858 27.4457 54.3708C27.5024 54.6558 27.6424 54.9177 27.8479 55.1232C28.0533 55.3287 28.3152 55.4686 28.6002 55.5253C28.8852 55.582 29.1807 55.5529 29.4492 55.4417C29.7177 55.3305 29.9472 55.1421 30.1086 54.9005C30.2701 54.6589 30.3563 54.3748 30.3563 54.0841C30.3559 53.6945 30.201 53.321 29.9255 53.0455C29.65 52.77 29.2765 52.6151 28.8869 52.6147Z" fill="#006E81"/>
<path d="M28.8873 45.6439C25.011 45.6438 21.2546 44.2996 18.2582 41.8404C15.2618 39.3812 13.2108 35.9591 12.4547 32.1572C11.6986 28.3553 12.2841 24.4089 14.1114 20.9903C15.9388 17.5717 18.895 14.8925 22.4763 13.4091C26.0576 11.9257 30.0424 11.73 33.7518 12.8553C37.4612 13.9806 40.6657 16.3572 42.8193 19.5803C44.9729 22.8034 45.9422 26.6735 45.5623 30.5312C45.1823 34.3888 43.4766 37.9954 40.7356 40.7364C39.1832 42.2972 37.3367 43.5346 35.303 44.3769C33.2692 45.2193 31.0886 45.6499 28.8873 45.6439ZM28.8873 14.3608C26.9787 14.3574 25.0883 14.731 23.3246 15.4603C21.5608 16.1897 19.9586 17.2603 18.6098 18.6107C12.9426 24.2772 12.9426 33.4978 18.6098 39.1656C24.277 44.8335 33.4969 44.8328 39.1648 39.1656C44.8327 33.4984 44.832 24.2786 39.1648 18.6107C37.8161 17.2603 36.2138 16.1897 34.4501 15.4603C32.6863 14.731 30.7959 14.3574 28.8873 14.3608Z" fill="#006E81"/>
<path d="M17.8251 18.936C17.5305 18.9358 17.248 18.8187 17.0397 18.6103L12.1093 13.6799C11.9145 13.469 11.8089 13.1908 11.8147 12.9037C11.8204 12.6167 11.9371 12.343 12.1402 12.14C12.3434 11.9371 12.6172 11.8207 12.9042 11.8151C13.1913 11.8096 13.4694 11.9155 13.6801 12.1105L18.6105 17.0409C18.7659 17.1963 18.8716 17.3943 18.9144 17.6098C18.9572 17.8254 18.9352 18.0488 18.851 18.2517C18.7669 18.4547 18.6244 18.6282 18.4417 18.7502C18.259 18.8723 18.0442 18.9374 17.8244 18.9374L17.8251 18.936Z" fill="#006E81"/>
<path d="M11.0715 14.7634C10.4642 14.7638 9.86619 14.6144 9.33042 14.3284C8.79466 14.0424 8.33772 13.6286 8.00009 13.1238C7.66247 12.619 7.45458 12.0386 7.39485 11.4343C7.33513 10.8299 7.42541 10.2201 7.65769 9.65897C7.88998 9.09782 8.25709 8.60264 8.72651 8.2173C9.19593 7.83196 9.75316 7.56836 10.3488 7.44987C10.9445 7.33137 11.5601 7.36164 12.1413 7.53798C12.7225 7.71432 13.2511 8.0313 13.6805 8.46082C14.1967 8.97723 14.5482 9.6351 14.6906 10.3513C14.833 11.0674 14.7598 11.8097 14.4803 12.4843C14.2009 13.1589 13.7277 13.7355 13.1205 14.1411C12.5134 14.5468 11.7996 14.7634 11.0695 14.7634H11.0715ZM11.0715 9.60176C10.7315 9.60226 10.4022 9.72061 10.1396 9.93666C9.87706 10.1527 9.69751 10.4531 9.63154 10.7867C9.56558 11.1202 9.61728 11.4663 9.77784 11.7661C9.93841 12.0658 10.1979 12.3006 10.5121 12.4305C10.8264 12.5604 11.1759 12.5773 11.5013 12.4784C11.8266 12.3795 12.1076 12.1709 12.2964 11.8881C12.4852 11.6053 12.5701 11.2658 12.5367 10.9274C12.5033 10.5891 12.3536 10.2727 12.1132 10.0323C11.9768 9.89502 11.8145 9.78624 11.6356 9.71233C11.4568 9.63841 11.2651 9.60082 11.0715 9.60176Z" fill="#006E81"/>
<path d="M44.8804 45.9907C44.7347 45.9907 44.5904 45.962 44.4559 45.9061C44.3213 45.8502 44.1992 45.7683 44.0964 45.665L39.166 40.7346C38.9712 40.5236 38.8656 40.2455 38.8713 39.9584C38.8771 39.6713 38.9937 39.3977 39.1969 39.1947C39.4 38.9918 39.6738 38.8753 39.9609 38.8698C40.2479 38.8643 40.526 38.9702 40.7368 39.1652L45.6672 44.0956C45.8225 44.251 45.9282 44.4489 45.971 44.6644C46.0139 44.8798 45.9918 45.1031 45.9078 45.3061C45.8237 45.5091 45.6814 45.6826 45.4988 45.8046C45.3162 45.9267 45.1015 45.992 44.8818 45.9921L44.8804 45.9907Z" fill="#006E81"/>
<path d="M46.7051 50.3967C46.0976 50.3972 45.4994 50.2478 44.9634 49.9618C44.4275 49.6757 43.9705 49.2619 43.6328 48.7569C43.2951 48.2519 43.0872 47.6714 43.0276 47.0669C42.968 46.4624 43.0584 45.8524 43.2909 45.2912C43.5235 44.73 43.8908 44.2348 44.3605 43.8496C44.8302 43.4644 45.3877 43.201 45.9836 43.0828C46.5795 42.9646 47.1953 42.9952 47.7765 43.172C48.3577 43.3488 48.8863 43.6662 49.3154 44.0962C49.8317 44.6125 50.1833 45.2703 50.3257 45.9863C50.4681 46.7024 50.395 47.4447 50.1156 48.1192C49.8362 48.7938 49.3631 49.3703 48.756 49.776C48.1489 50.1816 47.4352 50.3981 46.7051 50.3981V50.3967ZM46.7051 45.2351C46.365 45.2356 46.0357 45.3539 45.7731 45.57C45.5106 45.786 45.331 46.0864 45.265 46.42C45.1991 46.7535 45.2508 47.0996 45.4114 47.3994C45.5719 47.6991 45.8314 47.9339 46.1457 48.0638C46.4599 48.1937 46.8094 48.2106 47.1348 48.1117C47.4601 48.0128 47.7411 47.8042 47.9299 47.5214C48.1187 47.2386 48.2036 46.8991 48.1702 46.5607C48.1368 46.2224 47.9871 45.906 47.7467 45.6656C47.6102 45.5285 47.4478 45.4199 47.269 45.3459C47.0902 45.272 46.8985 45.2344 46.7051 45.2351Z" fill="#006E81"/>
<path d="M28.8873 45.6439C25.011 45.6438 21.2546 44.2996 18.2582 41.8404C15.2618 39.3812 13.2108 35.9591 12.4547 32.1572C11.6986 28.3553 12.2841 24.4089 14.1114 20.9903C15.9388 17.5717 18.895 14.8925 22.4763 13.4091C26.0576 11.9257 30.0424 11.73 33.7518 12.8553C37.4612 13.9806 40.6657 16.3572 42.8193 19.5803C44.9729 22.8034 45.9422 26.6735 45.5623 30.5312C45.1823 34.3888 43.4766 37.9954 40.7356 40.7364C39.1833 42.2973 37.3369 43.5348 35.3031 44.3771C33.2693 45.2195 31.0886 45.6501 28.8873 45.6439ZM28.8873 14.3546C20.873 14.3546 14.3537 20.8738 14.3537 28.8882C14.3537 36.9025 20.873 43.4218 28.8873 43.4218C36.9017 43.4218 43.4209 36.9025 43.4209 28.8882C43.4209 20.8738 36.9017 14.3546 28.8873 14.3546Z" fill="#006E81"/>
<path d="M13.2426 29.999H6.27124C5.97656 29.999 5.69395 29.882 5.48558 29.6736C5.27722 29.4652 5.16016 29.1826 5.16016 28.8879C5.16016 28.5933 5.27722 28.3106 5.48558 28.1023C5.69395 27.8939 5.97656 27.7769 6.27124 27.7769H13.2426C13.5372 27.7769 13.8198 27.8939 14.0282 28.1023C14.2366 28.3106 14.3536 28.5933 14.3536 28.8879C14.3536 29.1826 14.2366 29.4652 14.0282 29.6736C13.8198 29.882 13.5372 29.999 13.2426 29.999Z" fill="#006E81"/>
<path d="M3.69156 32.5794C2.96144 32.5794 2.24771 32.3629 1.64064 31.9573C1.03357 31.5516 0.56041 30.9751 0.281005 30.3005C0.00159941 29.626 -0.0715057 28.8838 0.070934 28.1677C0.213374 27.4516 0.564961 26.7938 1.08123 26.2775C1.59751 25.7613 2.25528 25.4097 2.97137 25.2672C3.68747 25.1248 4.42972 25.1979 5.10426 25.4773C5.7788 25.7567 6.35535 26.2299 6.76098 26.8369C7.16662 27.444 7.38312 28.1577 7.38312 28.8879C7.38202 29.8666 6.99273 30.8049 6.30067 31.497C5.60861 32.189 4.67029 32.5783 3.69156 32.5794ZM3.69156 27.4184C3.40094 27.4184 3.11685 27.5046 2.87521 27.6661C2.63356 27.8275 2.44523 28.057 2.33401 28.3255C2.2228 28.594 2.1937 28.8895 2.25039 29.1745C2.30709 29.4596 2.44704 29.7214 2.65254 29.9269C2.85804 30.1324 3.11986 30.2723 3.4049 30.329C3.68993 30.3857 3.98538 30.3566 4.25388 30.2454C4.52238 30.1342 4.75186 29.9458 4.91332 29.7042C5.07478 29.4626 5.16096 29.1785 5.16096 28.8879C5.1606 28.4983 5.00567 28.1247 4.73018 27.8492C4.45469 27.5737 4.08116 27.4188 3.69156 27.4184Z" fill="#006E81"/>
<path d="M51.5023 29.999H44.531C44.2363 29.999 43.9537 29.882 43.7454 29.6736C43.537 29.4652 43.4199 29.1826 43.4199 28.8879C43.4199 28.5933 43.537 28.3106 43.7454 28.1023C43.9537 27.8939 44.2363 27.7769 44.531 27.7769H51.5023C51.797 27.7769 52.0796 27.8939 52.288 28.1023C52.4963 28.3106 52.6134 28.5933 52.6134 28.8879C52.6134 29.1826 52.4963 29.4652 52.288 29.6736C52.0796 29.882 51.797 29.999 51.5023 29.999Z" fill="#006E81"/>
<path d="M54.0841 32.5794C53.354 32.5794 52.6403 32.3629 52.0332 31.9573C51.4261 31.5516 50.953 30.9751 50.6736 30.3005C50.3942 29.626 50.3211 28.8838 50.4635 28.1677C50.606 27.4516 50.9575 26.7938 51.4738 26.2775C51.9901 25.7613 52.6479 25.4097 53.364 25.2672C54.08 25.1248 54.8223 25.1979 55.4968 25.4773C56.1714 25.7567 56.7479 26.2299 57.1536 26.8369C57.5592 27.444 57.7757 28.1577 57.7757 28.8879C57.7746 29.8666 57.3853 30.8049 56.6932 31.497C56.0012 32.189 55.0629 32.5783 54.0841 32.5794ZM54.0841 27.4184C53.7935 27.4184 53.5094 27.5046 53.2678 27.6661C53.0261 27.8275 52.8378 28.057 52.7266 28.3255C52.6154 28.594 52.5863 28.8895 52.643 29.1745C52.6997 29.4596 52.8396 29.7214 53.0451 29.9269C53.2506 30.1324 53.5124 30.2723 53.7975 30.329C54.0825 30.3857 54.378 30.3566 54.6465 30.2454C54.9149 30.1342 55.1444 29.9458 55.3059 29.7042C55.4674 29.4626 55.5535 29.1785 55.5535 28.8879C55.5532 28.4983 55.3982 28.1247 55.1228 27.8492C54.8473 27.5737 54.4737 27.4188 54.0841 27.4184Z" fill="#006E81"/>
<path d="M28.8873 45.6439C25.011 45.6438 21.2546 44.2996 18.2582 41.8404C15.2618 39.3812 13.2108 35.9591 12.4547 32.1572C11.6986 28.3553 12.2841 24.4089 14.1114 20.9903C15.9388 17.5717 18.895 14.8925 22.4763 13.4091C26.0576 11.9257 30.0424 11.73 33.7518 12.8553C37.4612 13.9806 40.6657 16.3572 42.8193 19.5803C44.9729 22.8034 45.9422 26.6735 45.5623 30.5312C45.1823 34.3888 43.4766 37.9954 40.7356 40.7364C39.1832 42.2972 37.3367 43.5346 35.303 44.3769C33.2692 45.2193 31.0886 45.6499 28.8873 45.6439ZM28.8873 14.3608C26.9787 14.3574 25.0883 14.731 23.3246 15.4603C21.5608 16.1897 19.9586 17.2603 18.6098 18.6107C12.9426 24.2772 12.9426 33.4978 18.6098 39.1656C24.277 44.8335 33.4969 44.8328 39.1648 39.1656C44.8327 33.4984 44.832 24.2786 39.1648 18.6107C37.8161 17.2603 36.2138 16.1897 34.4501 15.4603C32.6863 14.731 30.7959 14.3574 28.8873 14.3608Z" fill="#006E81"/>
<path d="M12.8963 45.991C12.6769 45.9906 12.4625 45.9253 12.2802 45.8033C12.0979 45.6812 11.9558 45.508 11.8718 45.3053C11.7878 45.1026 11.7657 44.8796 11.8082 44.6644C11.8508 44.4492 11.9561 44.2514 12.1109 44.0959L17.0413 39.1655C17.2522 38.9707 17.5304 38.8651 17.8175 38.8708C18.1045 38.8766 18.3782 38.9933 18.5812 39.1964C18.7841 39.3995 18.9005 39.6733 18.9061 39.9604C18.9116 40.2475 18.8057 40.5255 18.6107 40.7363L13.6803 45.6667C13.5774 45.7697 13.4552 45.8514 13.3206 45.907C13.1861 45.9627 13.0419 45.9912 12.8963 45.991Z" fill="#006E81"/>
<path d="M11.0701 50.3962C10.3404 50.3956 9.62724 50.1788 9.02067 49.7732C8.4141 49.3675 7.94132 48.7913 7.66203 48.1172C7.38273 47.443 7.30945 46.7013 7.45143 45.9855C7.5934 45.2698 7.94428 44.6121 8.45974 44.0957C8.88908 43.6666 9.4176 43.3499 9.99851 43.1739C10.5794 42.9978 11.1948 42.9677 11.7901 43.0862C12.3854 43.2047 12.9423 43.4682 13.4115 43.8533C13.8807 44.2384 14.2477 44.7333 14.48 45.2941C14.7122 45.8549 14.8026 46.4644 14.7431 47.0685C14.6837 47.6725 14.4761 48.2526 14.1389 48.7574C13.8017 49.2621 13.3453 49.6759 12.81 49.9621C12.2747 50.2483 11.6771 50.3981 11.0701 50.3983V50.3962ZM11.0701 45.2345C10.8766 45.2338 10.6849 45.2715 10.5061 45.3454C10.3273 45.4193 10.165 45.528 10.0284 45.6651C9.78818 45.9054 9.63865 46.2216 9.60532 46.5598C9.57199 46.898 9.65691 47.2373 9.84563 47.5199C10.0344 47.8025 10.3152 48.011 10.6404 48.1098C10.9655 48.2086 11.3149 48.1917 11.6289 48.0619C11.943 47.9321 12.2024 47.6974 12.3629 47.3979C12.5233 47.0983 12.575 46.7524 12.5091 46.419C12.4433 46.0856 12.2638 45.7854 12.0014 45.5694C11.7391 45.3534 11.4099 45.2351 11.0701 45.2345Z" fill="#006E81"/>
<path d="M39.9504 18.9362C39.7307 18.9361 39.516 18.8709 39.3334 18.7488C39.1508 18.6267 39.0084 18.4532 38.9244 18.2503C38.8403 18.0473 38.8183 17.824 38.8612 17.6085C38.904 17.3931 39.0097 17.1951 39.165 17.0397L44.0954 12.1093C44.3064 11.9145 44.5845 11.8089 44.8716 11.8147C45.1587 11.8204 45.4324 11.9371 45.6353 12.1402C45.8382 12.3434 45.9547 12.6172 45.9602 12.9042C45.9657 13.1913 45.8598 13.4694 45.6648 13.6801L40.7344 18.6105C40.5265 18.8186 40.2446 18.9357 39.9504 18.9362Z" fill="#006E81"/>
<path d="M46.7046 14.7635C45.9744 14.7634 45.2607 14.5467 44.6537 14.1409C44.0467 13.7352 43.5736 13.1585 43.2944 12.4839C43.0151 11.8092 42.9422 11.0669 43.0848 10.3508C43.2274 9.63476 43.5792 8.97705 44.0956 8.4609C44.525 8.03179 45.0535 7.71518 45.6344 7.5391C46.2153 7.36302 46.8307 7.3329 47.426 7.45141C48.0213 7.56993 48.5782 7.83342 49.0474 8.21854C49.5166 8.60367 49.8836 9.09855 50.1158 9.65936C50.3481 10.2202 50.4385 10.8296 50.379 11.4337C50.3195 12.0378 50.112 12.6179 49.7748 13.1226C49.4376 13.6273 48.9812 14.0411 48.4459 14.3274C47.9106 14.6136 47.313 14.7634 46.706 14.7635H46.7046ZM46.7046 9.60184C46.5111 9.6009 46.3193 9.63849 46.1405 9.7124C45.9616 9.78632 45.7993 9.89509 45.6629 10.0324C45.4227 10.2727 45.2731 10.5889 45.2398 10.9271C45.2065 11.2653 45.2914 11.6046 45.4801 11.8872C45.6688 12.1699 45.9497 12.3783 46.2748 12.4771C46.6 12.576 46.9494 12.559 47.2634 12.4292C47.5775 12.2994 47.8368 12.0647 47.9973 11.7652C48.1578 11.4656 48.2095 11.1197 48.1436 10.7863C48.0777 10.4529 47.8983 10.1527 47.6359 9.93671C47.3735 9.72074 47.0444 9.6024 46.7046 9.60184Z" fill="#006E81"/>
</svg>
