<svg width="56" height="56" viewBox="0 0 56 56" fill="none" xmlns="http://www.w3.org/2000/svg">
<g clip-path="url(#clip0_163_495)">
<path d="M39.8762 11H38.4315C37.7965 11 37.7965 11.9845 38.4315 11.9845H39.8762C41.368 11.9845 42.5818 13.1939 42.5818 14.6804V26.0727C42.5818 27.5593 41.3681 28.7686 39.8762 28.7686H38.2377C38.1296 28.7686 38.0245 28.8042 37.9386 28.8699L34.9322 31.1696V29.2609C34.9322 28.989 34.7118 28.7686 34.4399 28.7686H28.4488C27.9582 28.7686 27.4867 28.6391 27.0708 28.3929V22.867C27.0708 21.832 26.5436 20.9175 25.7431 20.3765V14.6804C25.7431 13.1939 26.9569 11.9845 28.4488 11.9845H35.3467C35.9817 11.9845 35.9817 11 35.3467 11H28.4488C26.414 11 24.7586 12.651 24.7586 14.6804V19.9438C24.5332 19.89 24.2983 19.8607 24.0567 19.8607H15.0453C13.3834 19.8607 12.0312 21.2093 12.0312 22.867V23.93C12.0312 24.5649 13.0158 24.5649 13.0158 23.93V22.867C13.0158 21.7522 13.9262 20.8452 15.0453 20.8452H24.0567C25.1759 20.8452 26.0864 21.7522 26.0864 22.867V28.5889C26.0804 28.6324 26.0807 28.6762 26.0864 28.7193V31.8508C26.0864 31.9127 26.0826 31.9744 26.077 32.0357H25.0619C23.9433 32.0357 23.0107 32.843 22.8174 33.9041C22.7726 33.921 22.7296 33.9446 22.6898 33.9753L20.4881 35.6753V34.365C20.4881 34.0931 20.2677 33.8727 19.9958 33.8727H15.0453C13.9262 33.8727 13.0158 32.9657 13.0158 31.8508V26.8835C13.0158 26.2486 12.0312 26.2486 12.0312 26.8835V31.8509C12.0312 33.5086 13.3834 34.8573 15.0453 34.8573H19.5036V36.6773C19.5036 37.0722 19.9831 37.3091 20.2967 37.067L22.78 35.1496V40.6875C22.78 41.9428 23.8037 42.9639 25.0619 42.9639H28.0828V44.1126C28.0828 44.5073 28.5622 44.7445 28.8758 44.5023L30.8682 42.9639H31.4568C32.715 42.9639 33.7387 41.9427 33.7387 40.6875V39.8135C33.7387 39.1786 32.7542 39.1786 32.7542 39.8135V40.6875C32.7542 41.3999 32.1722 41.9794 31.4568 41.9794H30.7003C30.5914 41.9794 30.4856 42.0155 30.3995 42.082L29.0672 43.1106V42.4716C29.0672 42.1997 28.8469 41.9793 28.5749 41.9793H25.0619C24.3465 41.9793 23.7645 41.3998 23.7645 40.6875V34.3121C23.7645 33.5997 24.3464 33.0202 25.0619 33.0202H31.4568C32.1722 33.0202 32.7542 33.5998 32.7542 34.3121V36.7287C32.7542 37.3637 33.7387 37.3637 33.7387 36.7287V34.3122C33.7387 33.0569 32.715 32.0358 31.4568 32.0358H27.0652C27.069 31.9743 27.0709 29.488 27.0709 29.488C27.5049 29.6625 27.9703 29.7532 28.4489 29.7532H33.9477V32.1659C33.9477 32.5598 34.4251 32.7969 34.7391 32.5569L38.4045 29.7532H39.8762C41.911 29.7532 43.5664 28.1022 43.5664 26.0728V14.6804C43.5663 12.651 41.9109 11 39.8762 11Z" fill="#006E81"/>
<path d="M35.3943 14.637C34.7693 14.4775 34.1324 14.9713 34.1324 15.6172C34.1324 16.3228 33.8752 17.0028 33.4086 17.5317L32.0523 19.0664C31.9645 18.9316 31.8128 18.8424 31.64 18.8424H28.9923C28.7203 18.8424 28.5 19.0628 28.5 19.3347V25.292C28.5 25.5639 28.7203 25.7843 28.9923 25.7843H31.64C31.8389 25.7843 32.0098 25.6661 32.0875 25.4963C32.6235 25.8239 33.2447 26.0009 33.8766 26.0009H38.5559C39.2709 26.0009 39.8607 25.3805 39.8272 24.6673C39.8123 24.3515 39.8286 20.1106 39.8286 20.0164C39.8286 19.3147 39.2576 18.7437 38.5573 18.7437L36.124 18.7364L36.2248 18.4978C36.6852 17.4074 36.6094 16.143 36.0222 15.1154C35.8852 14.8753 35.6621 14.7055 35.3943 14.637C35.6621 14.7055 35.1264 14.5687 35.3943 14.637C35.6621 14.7055 34.7693 14.4775 35.3943 14.637ZM31.1477 24.7998H29.4845V19.827H31.1477V24.7998ZM38.5559 19.7281C38.7148 19.7281 38.8441 19.8574 38.8441 20.0164C38.8441 20.11 38.8431 20.3642 38.8418 20.7089C38.8345 22.6118 38.8297 24.414 38.8437 24.7135C38.8489 24.8216 38.7963 24.8937 38.7645 24.927C38.7095 24.9846 38.6354 25.0164 38.5559 25.0164H33.8766C33.3189 25.0164 32.773 24.8231 32.3394 24.4721L32.1322 24.3043V20.4627L34.1466 18.1833C34.7723 17.4742 35.1169 16.5628 35.1169 15.6171C35.1169 15.5893 35.1549 15.5821 35.1675 15.6037C35.6034 16.3666 35.6596 17.3052 35.3178 18.1147L34.9294 19.0348C34.8652 19.1866 34.8814 19.3604 34.9722 19.4978C35.0631 19.6352 35.2166 19.7181 35.3813 19.7186L38.5559 19.7281Z" fill="#006E81"/>
<path d="M16.2462 28.0977C15.9742 28.0977 15.7539 28.3181 15.7539 28.5899C15.7539 28.8618 15.9742 29.0822 16.2462 29.0822H17.6972L17.4261 30.7217C17.3818 30.9898 17.5633 31.2432 17.8315 31.2876C17.8587 31.2921 17.8857 31.2943 17.9124 31.2943C18.1489 31.2943 18.3576 31.1233 18.3975 30.8823L18.6951 29.0822H19.8826L19.6115 30.7217C19.5671 30.9899 19.7487 31.2433 20.0169 31.2877C20.0441 31.2922 20.0711 31.2944 20.0977 31.2944C20.3343 31.2944 20.5429 31.1234 20.5828 30.8823L20.8804 29.0823H22.8556C23.1275 29.0823 23.3478 28.8619 23.3478 28.59C23.3478 28.3182 23.1275 28.0978 22.8556 28.0978H21.0432L21.2417 26.8969H22.8556C23.1275 26.8969 23.3478 26.6765 23.3478 26.4047C23.3478 26.1328 23.1275 25.9124 22.8556 25.9124H21.4045L21.6756 24.2729C21.7199 24.0048 21.5384 23.7513 21.2702 23.707C21.0017 23.6625 20.7486 23.8441 20.7043 24.1123L20.4067 25.9124H19.2191L19.4902 24.2729C19.5346 24.0047 19.353 23.7513 19.0849 23.7069C18.816 23.6624 18.5633 23.8441 18.5189 24.1123L18.2213 25.9123H16.2462C15.9742 25.9123 15.7539 26.1327 15.7539 26.4045C15.7539 26.6764 15.9742 26.8968 16.2462 26.8968H18.0585L17.86 28.0977H16.2462ZM19.0564 26.8968H20.244L20.0454 28.0977H18.8579L19.0564 26.8968Z" fill="#006E81"/>
<path d="M28.2561 35.5603C27.8586 35.233 27.3298 35.1039 26.7993 35.2329C26.1195 35.398 25.4336 36.0335 25.4336 37.0809C25.4336 37.7329 25.6715 38.2988 26.161 38.811C26.5607 39.2294 27.1377 39.6273 28.0315 40.1012C28.1036 40.1394 28.1828 40.1585 28.262 40.1585C28.3413 40.1585 28.4205 40.1394 28.4926 40.1012C30.052 39.2745 31.0904 38.4445 31.0904 37.0809C31.0904 36.0277 30.3801 35.3988 29.6761 35.2426C29.1473 35.1253 28.6345 35.2498 28.2561 35.5603ZM30.1059 37.0809C30.1059 37.8164 29.618 38.3603 28.262 39.1068C26.906 38.3603 26.418 37.8164 26.418 37.0809C26.418 36.5337 26.7349 36.2617 27.0315 36.1896C27.0862 36.1763 27.1448 36.1689 27.2049 36.1689C27.428 36.1689 27.6733 36.2719 27.8245 36.5651C27.9107 36.7319 28.0849 36.8354 28.2718 36.8315C28.4594 36.8278 28.6287 36.7176 28.708 36.5475C28.8673 36.2061 29.2023 36.146 29.4628 36.2038C29.7737 36.2727 30.1059 36.5394 30.1059 37.0809Z" fill="#006E81"/>
</g>
<g clip-path="url(#clip1_163_495)">
<path d="M28.0001 0C12.5604 0 0 12.5612 0 28.0009C0.00129958 43.4391 12.5622 55.9995 28.0001 55.9995C43.4393 55.9995 56.0003 43.4393 56.0003 28.0007C56 12.5612 43.4393 0 28.0001 0ZM28.0001 3.89873C33.7237 3.89873 38.9865 5.90553 43.1251 9.2509L9.25116 43.1246C5.90631 38.9862 3.89925 33.7237 3.89873 28.0007C3.89873 14.7109 14.7107 3.89873 28.0001 3.89873ZM28.0001 52.1007C21.8355 52.1007 16.2049 49.773 11.9382 45.9517L45.9519 11.9379C49.7735 16.2047 52.1013 21.8357 52.1013 28.0009C52.1013 41.2896 41.2893 52.1007 28.0001 52.1007Z" fill="#006E81"/>
</g>
<defs>
<clipPath id="clip0_163_495">
<rect width="33.6" height="33.6" fill="white" transform="translate(11 11)"/>
</clipPath>
<clipPath id="clip1_163_495">
<rect width="56" height="56" rx="28" fill="white"/>
</clipPath>
</defs>
</svg>
