<svg width="57" height="57" viewBox="0 0 57 57" fill="none" xmlns="http://www.w3.org/2000/svg">
<path d="M54.0517 0H2.94828C1.32674 0 0 1.32674 0 2.94828V54.0517C0 55.6733 1.32674 57 2.94828 57H54.0517C55.6733 57 57 55.6733 57 54.0517V2.94828C57 1.32674 55.6733 0 54.0517 0ZM1.96583 2.94828C1.96583 2.40776 2.40807 1.96552 2.94859 1.96552H54.052C54.5926 1.96552 55.0348 2.40776 55.0348 2.94828V6.87931H1.96583V2.94828ZM55.0348 54.0517C55.0348 54.5922 54.5926 55.0345 54.052 55.0345H2.94859C2.40807 55.0345 1.96583 54.5922 1.96583 54.0517V8.84483H55.0348V54.0517Z" fill="white"/>
<path d="M50.1209 3.43945H40.2933C39.7528 3.43945 39.3105 3.88169 39.3105 4.42221C39.3105 4.96273 39.7528 5.40497 40.2933 5.40497H50.1209C50.6614 5.40497 51.1037 4.96273 51.1037 4.42221C51.1037 3.88169 50.6614 3.43945 50.1209 3.43945Z" fill="white"/>
<path d="M8.35257 4.42287C8.35257 6.38839 5.4043 6.38839 5.4043 4.42287C5.4043 2.45735 8.35257 2.45735 8.35257 4.42287Z" fill="white"/>
<path d="M14.2491 4.42287C14.2491 6.38839 11.3008 6.38839 11.3008 4.42287C11.3008 2.45735 14.2491 2.45735 14.2491 4.42287Z" fill="white"/>
<path d="M20.1475 4.42287C20.1475 6.38839 17.1992 6.38839 17.1992 4.42287C17.1992 2.45735 20.1475 2.45735 20.1475 4.42287Z" fill="white"/>
<path d="M29.9935 24.559C29.9935 24.0185 29.5611 23.5762 29.0206 23.5664C28.4801 23.5664 28.0476 23.9988 28.0378 24.5394C28.028 25.6204 27.7921 27.2321 26.7603 28.8144C25.1387 31.2811 22.6229 32.028 21.6204 32.2344C21.0897 32.3425 20.7458 32.8633 20.8538 33.3941C20.9521 33.856 21.355 34.1803 21.8169 34.1803C21.8857 34.1803 21.9447 34.1803 22.0135 34.1606C23.2616 33.9051 26.3769 32.9715 28.4012 29.8955C29.6985 27.9201 29.9933 25.9054 30.0031 24.5591L29.9935 24.559Z" fill="white"/>
<path d="M24.1648 28.3131C25.6782 27.2222 25.9927 25.4926 26.2384 24.1069C26.4841 22.7605 26.6709 21.9251 27.3883 21.5517C28.0172 21.2274 29 21.2569 30.14 21.65C30.14 21.65 31.1031 21.9743 31.7419 22.79C32.705 24.0283 32.6165 26.1117 31.4667 28.9912C30.4053 31.6545 28.4693 33.3449 27.0345 34.2981C26.5824 34.6028 26.4546 35.2121 26.7593 35.6642C26.946 35.9492 27.2605 36.1064 27.575 36.1064C27.7617 36.1064 27.9484 36.0573 28.1155 35.9394C29.7862 34.8288 32.0367 32.8535 33.2849 29.7185C33.8155 28.3918 35.4371 24.333 33.2849 21.5809C32.3021 20.323 30.9164 19.8317 30.7297 19.7727C29.7961 19.4484 27.9976 19.0258 26.4842 19.8022C24.8626 20.6375 24.5678 22.2984 24.3024 23.7528C24.0764 25.0107 23.8798 26.0918 23.0052 26.7208C21.9635 27.4677 20.165 27.4874 19.3002 26.7601C18.8088 26.3473 18.5042 25.5415 18.455 24.4899C18.3174 21.915 19.6245 18.5933 21.5605 16.5888C24.7348 13.3064 30.5428 12.5399 34.7883 14.8494C39.7414 17.5421 42.0214 24.0581 40.0854 30.0037C39.9183 30.5147 40.2033 31.0749 40.7143 31.242C41.2254 31.4091 41.7855 31.124 41.9526 30.613C44.1736 23.7831 41.5006 16.255 35.722 13.1202C30.6509 10.3685 23.9584 11.2726 20.145 15.2234C17.8355 17.6213 16.3319 21.4737 16.499 24.5893C16.5874 26.2207 17.1181 27.4884 18.0518 28.2648C19.6045 29.5621 22.4054 29.5818 24.1744 28.3041L24.1648 28.3131Z" fill="white"/>
<path d="M33.6981 34.9366C33.875 35.0742 34.0814 35.1332 34.2878 35.1332C34.5826 35.1332 34.8775 34.9956 35.074 34.7401C38.946 29.6199 39.3392 23.0451 35.9978 19.1046C34.4156 17.2373 30.5926 14.4758 26.2879 15.9303C22.0522 17.3651 20.7942 21.8465 20.6567 22.3476C20.5191 22.8685 20.8434 23.409 21.3643 23.5466C21.895 23.6841 22.4256 23.3598 22.5632 22.839C22.6025 22.6817 23.6049 18.9177 26.9168 17.7876C30.2189 16.6673 33.3247 18.9866 34.494 20.3723C37.2457 23.6154 36.8231 29.1583 33.5014 33.551C33.1771 33.9834 33.2557 34.6026 33.6881 34.9269L33.6981 34.9366Z" fill="white"/>
<path d="M5.89682 52.0863H49.1382C49.6787 52.0863 50.121 51.644 50.121 51.1035V39.3104C50.121 38.7699 49.6787 38.3276 49.1382 38.3276H5.89682C5.3563 38.3276 4.91406 38.7699 4.91406 39.3104V51.1035C4.91406 51.644 5.3563 52.0863 5.89682 52.0863ZM6.87958 40.2932H48.1554V50.1207H6.87958V40.2932Z" fill="white"/>
<path d="M35.6539 42.6325C35.31 42.21 34.7007 42.1412 34.2683 42.4753L33.4034 43.1633V42.2591C33.4034 41.7186 32.9612 41.2764 32.4207 41.2764C31.8802 41.2764 31.4379 41.7186 31.4379 42.2591V43.1633L30.5731 42.4753C30.1505 42.1313 29.5314 42.21 29.1874 42.6325C28.8434 43.0551 28.9123 43.6742 29.3447 44.0182L30.8385 45.2172L29.3447 46.4161C28.9221 46.7502 28.8533 47.3693 29.1874 47.8018C29.384 48.0474 29.669 48.1752 29.954 48.1752C30.1702 48.1752 30.3864 48.1064 30.5633 47.959L31.4281 47.271V48.1752C31.4281 48.7157 31.8704 49.1579 32.4109 49.1579C32.9514 49.1579 33.3937 48.7157 33.3937 48.1752V47.271L34.2585 47.959C34.4354 48.1064 34.6614 48.1752 34.8678 48.1752C35.1528 48.1752 35.4378 48.0475 35.6344 47.8018C35.9685 47.3792 35.8997 46.7601 35.4771 46.4161L33.9834 45.2172L35.4771 44.0182C35.8997 43.6841 35.9685 43.065 35.6344 42.6325H35.6539Z" fill="white"/>
<path d="M25.8278 42.6325C25.4936 42.21 24.8647 42.1412 24.4421 42.4753L23.5773 43.1633V42.2591C23.5773 41.7186 23.135 41.2764 22.5945 41.2764C22.054 41.2764 21.6118 41.7186 21.6118 42.2591V43.1633L20.7469 42.4753C20.3243 42.1412 19.7052 42.2001 19.3613 42.6325C19.0173 43.0551 19.0861 43.6742 19.5185 44.0182L21.0123 45.2172L19.5185 46.4161C19.0959 46.7502 19.0271 47.3693 19.3613 47.8018C19.5578 48.0474 19.8428 48.1752 20.1278 48.1752C20.344 48.1752 20.5602 48.1064 20.7371 47.959L21.602 47.271V48.1752C21.602 48.7157 22.0442 49.1579 22.5847 49.1579C23.1253 49.1579 23.5675 48.7157 23.5675 48.1752V47.271L24.4323 47.959C24.6092 48.1064 24.8254 48.1752 25.0416 48.1752C25.3266 48.1752 25.6116 48.0475 25.8082 47.8018C26.1522 47.3792 26.0834 46.7601 25.651 46.4161L24.1572 45.2172L25.651 44.0182C26.0736 43.6841 26.1423 43.065 25.8082 42.6325H25.8278Z" fill="white"/>
<path d="M15.9996 42.6325C15.6655 42.21 15.0464 42.1412 14.614 42.4753L13.7491 43.1633V42.2591C13.7491 41.7186 13.3069 41.2764 12.7664 41.2764C12.2259 41.2764 11.7836 41.7186 11.7836 42.2591V43.1633L10.9188 42.4753C10.4962 42.1412 9.87711 42.2001 9.53313 42.6325C9.18916 43.0551 9.25795 43.6742 9.69037 44.0182L11.1842 45.2172L9.69037 46.4161C9.26778 46.7502 9.19899 47.3693 9.53313 47.8018C9.72968 48.0474 10.0147 48.1752 10.2997 48.1752C10.5159 48.1752 10.7321 48.1064 10.909 47.959L11.7738 47.271V48.1752C11.7738 48.7157 12.2161 49.1579 12.7566 49.1579C13.2971 49.1579 13.7394 48.7157 13.7394 48.1752V47.271L14.6042 47.959C14.7811 48.1064 14.9973 48.1752 15.2135 48.1752C15.4985 48.1752 15.7835 48.0475 15.9801 47.8018C16.3241 47.3792 16.2553 46.7601 15.8228 46.4161L14.3291 45.2172L15.8228 44.0182C16.2454 43.6841 16.3142 43.065 15.9801 42.6325H15.9996Z" fill="white"/>
<path d="M45.4827 42.6325C45.1387 42.21 44.5294 42.1412 44.097 42.4753L43.2322 43.1633V42.2591C43.2322 41.7186 42.7899 41.2764 42.2494 41.2764C41.7089 41.2764 41.2666 41.7186 41.2666 42.2591V43.1633L40.4018 42.4753C39.9792 42.1313 39.3601 42.21 39.0161 42.6325C38.682 43.0551 38.7508 43.6742 39.1734 44.0182L40.6672 45.2172L39.1734 46.4161C38.7508 46.7502 38.682 47.3693 39.0161 47.8018C39.2127 48.0474 39.4977 48.1752 39.7827 48.1752C39.9989 48.1752 40.2151 48.1064 40.392 47.959L41.2569 47.271V48.1752C41.2569 48.7157 41.6991 49.1579 42.2396 49.1579C42.7801 49.1579 43.2224 48.7157 43.2224 48.1752V47.271L44.0872 47.959C44.2641 48.1064 44.4901 48.1752 44.6965 48.1752C44.9815 48.1752 45.2665 48.0475 45.4631 47.8018C45.7972 47.3792 45.7285 46.7601 45.3059 46.4161L43.8121 45.2172L45.3059 44.0182C45.7285 43.6841 45.7972 43.065 45.4631 42.6325H45.4827Z" fill="white"/>
</svg>
