<svg width="60" height="78" viewBox="0 0 60 78" fill="none" xmlns="http://www.w3.org/2000/svg">
<path fill-rule="evenodd" clip-rule="evenodd" d="M36.3051 42.8833C34.8532 43.5598 33.7656 44.8729 33.3806 46.536C33.3795 46.5416 32.8931 48.6231 32.8931 48.6231C32.8931 48.6248 32.8925 48.627 32.892 48.6287C32.878 48.6896 32.8499 48.7392 32.804 48.7821C32.8029 48.7838 32.8012 48.7849 32.7995 48.7866L31.2439 50.2546C29.4872 51.9144 29.044 54.4474 30.135 56.6078C30.1367 56.6117 31.0915 58.5122 31.0915 58.5122C31.1212 58.572 31.1341 58.6306 31.1263 58.6977C31.1257 58.7005 31.1257 58.7033 31.1252 58.7056L30.8719 60.8372L30.8713 60.8406C30.771 61.6969 30.8685 62.5308 31.1364 63.293C20.7551 63.2924 9.99065 63.2918 6.88121 63.2913C6.65483 63.2913 6.43909 63.1926 6.29059 63.0207C6.1421 62.8487 6.07429 62.6204 6.10567 62.3949C7.78171 50.8224 17.6827 41.9334 29.6464 41.9334C31.9578 41.9334 34.192 42.2654 36.3051 42.8833ZM29.6464 40.3542C23.0224 40.3542 17.6227 34.9155 17.6227 28.2512C17.6227 21.5863 23.0224 16.1476 29.6464 16.1476C36.2765 16.1476 41.6762 21.5863 41.6762 28.2512C41.6762 34.9155 36.2765 40.3542 29.6464 40.3542ZM54.4523 67.9666L57.336 74.2003C57.3785 74.2899 57.3679 74.3869 57.3074 74.4624C57.2502 74.5413 57.1611 74.5774 57.0647 74.5594L53.2408 73.8879L51.2863 77.2655C51.2398 77.3478 51.1541 77.3946 51.0583 77.3906C50.9619 77.3873 50.8834 77.3331 50.8403 77.2435L48.1937 71.524C50.3236 71.9395 52.4496 71.0493 53.6639 69.1799L54.4523 67.9666ZM42.8187 71.524L40.1716 77.2435C40.1324 77.3331 40.0506 77.3873 39.9542 77.3906C39.8578 77.3946 39.7721 77.3478 39.7255 77.2655L37.7749 73.8879L33.9471 74.5594C33.8507 74.5774 33.7616 74.5413 33.705 74.4624C33.644 74.3869 33.6333 74.2899 33.6765 74.2003L36.5595 67.9666C36.9002 68.4909 37.3491 69.181 37.3491 69.181C38.5622 71.0493 40.6882 71.9395 42.8187 71.524ZM47.2058 42.9425L48.9143 44.2313C49.3817 44.5825 49.8703 44.7624 50.4553 44.7945L52.5847 44.9129C53.8578 44.9845 54.8961 45.86 55.1847 47.1094L55.6734 49.2015C55.8056 49.772 56.0662 50.2276 56.4943 50.6295L58.0493 52.0976C58.98 52.9765 59.2154 54.3189 58.6377 55.4639L57.675 57.3801C57.4144 57.9039 57.3214 58.4203 57.3931 59.0055L57.6458 61.1371C57.796 62.4112 57.1219 63.5918 55.9446 64.098L53.9861 64.9414C53.4476 65.1709 53.0486 65.512 52.7276 66.0036L51.5609 67.7981C50.8616 68.8743 49.5918 69.3372 48.3685 68.9679L46.3243 68.3472C45.7685 68.1747 45.244 68.1747 44.6875 68.3472L42.6433 68.9679C41.4201 69.3372 40.1503 68.8743 39.451 67.7981L38.2849 66.0036C37.9638 65.512 37.5642 65.1709 37.0257 64.9414L35.0673 64.098C33.8939 63.5918 33.2159 62.4112 33.366 61.1371L33.6193 59.0055C33.6905 58.4203 33.5975 57.9039 33.3374 57.3801L32.3742 55.4639C31.7965 54.3189 32.0318 52.9765 32.9631 52.0976L34.5181 50.6295C34.9462 50.2276 35.2068 49.772 35.3385 49.2015L35.8271 47.1094C36.1163 45.86 37.1541 44.9845 38.4272 44.9129L40.5566 44.7945C41.1421 44.7624 41.6341 44.5825 42.0975 44.2313L43.8061 42.9425C44.8299 42.1747 46.182 42.1747 47.2058 42.9425ZM45.5079 63.5726C49.7974 63.5726 53.3002 60.049 53.3002 55.7289C53.3002 51.4098 49.7974 47.8857 45.5079 47.8857C41.2144 47.8857 37.7116 51.4098 37.7116 55.7289C37.7116 60.049 41.2144 63.5726 45.5079 63.5726ZM29.0686 0.422325C29.1499 0.170319 29.383 6.10352e-05 29.6464 6.10352e-05C29.9097 6.10352e-05 30.1428 0.170319 30.2241 0.422325L31.3291 3.84498C31.4104 4.09642 31.6435 4.26668 31.9069 4.26668H35.4836C35.747 4.26668 35.9801 4.4375 36.0614 4.68951C36.1426 4.94095 36.0535 5.21663 35.8406 5.37223L32.9469 7.4875C32.7339 7.6431 32.6454 7.91879 32.7267 8.1708L33.8317 11.5929C33.9129 11.8449 33.8238 12.1206 33.6109 12.2762C33.398 12.4318 33.1099 12.4318 32.897 12.2762L30.0033 10.1615C29.7904 10.0053 29.5024 10.0053 29.2894 10.1615L26.3957 12.2762C26.1828 12.4318 25.8948 12.4318 25.6818 12.2762C25.4689 12.1206 25.3798 11.8449 25.461 11.5929L26.5666 8.1708C26.6479 7.91879 26.5588 7.6431 26.3458 7.4875L23.4522 5.37223C23.2392 5.21663 23.1501 4.94095 23.2314 4.68951C23.3126 4.4375 23.5457 4.26668 23.8091 4.26668H27.3859C27.6487 4.26668 27.8824 4.09642 27.9636 3.84498L29.0686 0.422325ZM8.57014 9.44887C8.45078 9.21321 8.49561 8.92682 8.68164 8.73965C8.86768 8.55247 9.15235 8.50681 9.38714 8.62688L12.5739 10.2607C12.8081 10.3808 13.0928 10.3357 13.2788 10.1485L15.8083 7.60365C15.9943 7.41647 16.279 7.37137 16.5132 7.49145C16.748 7.61153 16.8786 7.87031 16.8377 8.13133L16.2779 11.6859C16.237 11.9475 16.3675 12.2057 16.6023 12.3258L19.7891 13.9596C20.0233 14.0797 20.1544 14.3379 20.113 14.5995C20.0721 14.8611 19.8681 15.0663 19.6081 15.1074L16.0756 15.6701C15.8156 15.7118 15.6122 15.917 15.5707 16.1786L15.0115 19.7326C14.97 19.9942 14.766 20.1989 14.5066 20.2406C14.2466 20.2817 13.9899 20.1504 13.87 19.9142L12.2467 16.708C12.1267 16.4723 11.8701 16.3404 11.6101 16.3821L8.07758 16.9448C7.81757 16.9865 7.56093 16.8546 7.44157 16.6189C7.32222 16.3833 7.36704 16.0963 7.55308 15.9091L10.082 13.3648C10.268 13.1777 10.3134 12.8913 10.1941 12.655L8.57014 9.44887ZM0.419709 30.415C0.169229 30.3332 0 30.0981 0 29.8337C0 29.5687 0.169229 29.3342 0.419709 29.2525L3.82109 28.1401C4.07157 28.0584 4.2408 27.8239 4.2408 27.5595V23.9609C4.2408 23.6959 4.41059 23.4614 4.66051 23.3797C4.91099 23.2979 5.18501 23.3876 5.33966 23.6018L7.44157 26.5125C7.59679 26.7268 7.87081 26.8164 8.12129 26.7347L11.5227 25.6229C11.7731 25.5412 12.0472 25.6308 12.2018 25.845C12.3565 26.0593 12.3565 26.349 12.2018 26.5633L10.0994 29.4746C9.9447 29.6883 9.9447 29.9786 10.0994 30.1928L12.2018 33.1041C12.3565 33.3184 12.3565 33.6082 12.2018 33.8224C12.0472 34.0366 11.7731 34.1263 11.5227 34.0445L8.12129 32.9322C7.87081 32.8505 7.59679 32.9401 7.44157 33.1543L5.33966 36.0656C5.18501 36.2799 4.91099 36.3695 4.66051 36.2878C4.41059 36.206 4.2408 35.9709 4.2408 35.7065V32.108C4.2408 31.843 4.07157 31.6085 3.82109 31.5267L0.419709 30.415ZM49.9078 8.62238C50.1421 8.5023 50.4267 8.54796 50.6128 8.73513C50.7988 8.9223 50.8442 9.2087 50.7243 9.44436L49.1004 12.6505C48.981 12.8867 49.0264 13.1731 49.2124 13.3603L51.7413 15.9046C51.9274 16.0918 51.9728 16.3782 51.8534 16.6144C51.734 16.8501 51.4768 16.982 51.2168 16.9403L47.6843 16.3776C47.4243 16.3359 47.1677 16.4678 47.0483 16.7035L45.4244 19.9096C45.305 20.1459 45.0484 20.2772 44.7884 20.2361C44.5284 20.1943 44.3244 19.9897 44.2835 19.7281L43.7237 16.1741C43.6828 15.9125 43.4788 15.7073 43.2188 15.6661L39.6863 15.1029C39.4263 15.0618 39.2223 14.8566 39.1814 14.595C39.14 14.3334 39.2711 14.0752 39.5053 13.9551L42.6926 12.3213C42.9269 12.2012 43.058 11.9424 43.0165 11.6814L42.4567 8.12682C42.4158 7.86579 42.547 7.60703 42.7812 7.48695C43.016 7.36686 43.3001 7.41196 43.4861 7.59913L46.0156 10.144C46.2016 10.3312 46.4863 10.3763 46.7205 10.2562L49.9078 8.62238ZM58.8797 29.2457C59.1297 29.328 59.2995 29.5625 59.2995 29.8269C59.2995 30.0919 59.1297 30.3264 58.8797 30.4082L55.4778 31.5205C55.2279 31.6023 55.0581 31.8368 55.0581 32.1018V35.7003C55.0581 35.9647 54.8889 36.1992 54.6384 36.281C54.3885 36.3627 54.1139 36.2731 53.9598 36.0594L51.8573 33.1481C51.7027 32.9339 51.4286 32.8442 51.1782 32.926L47.7762 34.0378C47.5263 34.1195 47.2523 34.0304 47.0976 33.8162C46.9424 33.602 46.9424 33.3116 47.0976 33.0979L49.1995 30.1861C49.3542 29.9724 49.3542 29.6821 49.1995 29.4678L47.0976 26.5565C46.9424 26.3423 46.9424 26.0525 47.0976 25.8383C47.2523 25.624 47.5263 25.535 47.7762 25.6167L51.1782 26.7285C51.4286 26.8102 51.7027 26.7206 51.8573 26.5063L53.9598 23.595C54.1139 23.3808 54.3885 23.2917 54.6384 23.3735C54.8889 23.4552 55.0581 23.6897 55.0581 23.9541V27.5527C55.0581 27.8177 55.2279 28.0522 55.4778 28.1339L58.8797 29.2457Z" fill="white"/>
</svg>
