<svg width="65" height="78" viewBox="0 0 65 78" fill="none" xmlns="http://www.w3.org/2000/svg">
<path d="M32.3021 0.000183105C31.8434 0.00817108 31.4799 0.382629 31.4885 0.835289V7.02927C31.4719 7.49391 31.8474 7.88093 32.3147 7.88093C32.7814 7.88093 33.1529 7.49391 33.1409 7.02927V0.835289C33.1489 0.370071 32.7688 -0.0078125 32.3021 0.000183105ZM24.1881 1.06533C23.6308 1.05334 23.2215 1.58363 23.3746 2.11449L24.9856 8.09898C25.0929 8.55107 25.5515 8.82677 26.0062 8.70747C26.4563 8.58817 26.7166 8.11953 26.5801 7.67486L24.969 1.69038C24.8784 1.32848 24.5602 1.07789 24.1881 1.06533ZM16.5455 4.1997C15.9217 4.22025 15.5462 4.90695 15.8684 5.44181L18.9833 10.8092C19.2018 11.2162 19.7184 11.3606 20.1231 11.13C20.5239 10.8954 20.6563 10.3817 20.4127 9.98269L17.3017 4.61926C17.1486 4.34755 16.8597 4.18714 16.5455 4.1997ZM44.2121 6.61371C42.5224 6.62227 40.7669 6.82377 38.9574 7.24332L40.9033 14.4619C41.2708 14.2028 41.6922 14.0013 42.1509 13.882C42.6715 13.7421 43.1961 13.717 43.7001 13.7872C45.208 13.9967 46.5261 15.083 46.9429 16.6373C47.5008 18.7065 46.2572 20.8534 44.1754 21.4088C43.7167 21.5281 43.254 21.5646 42.8034 21.5235L44.7699 28.8243L51.8673 26.9326C52.5943 26.5907 53.3339 27.3807 52.9418 28.08C52.9372 28.088 52.9332 28.0965 52.9251 28.1045C52.6356 28.6063 52.5364 29.2068 52.7021 29.8113C53.0283 31.0208 54.2553 31.7281 55.4696 31.4033C56.6845 31.0785 57.3909 29.8569 57.0687 28.6474C56.9036 28.0429 56.5148 27.5697 56.0149 27.282C56.0069 27.278 55.9988 27.274 55.9942 27.2694C55.9862 27.2654 55.9782 27.2614 55.9736 27.2574C55.3211 26.8419 55.5482 25.8424 56.3165 25.7476L63.0922 23.9421C62.9099 22.1326 62.5923 20.4709 62.0384 18.8829C61.844 18.9571 61.6462 19.0188 61.4393 19.0764C58.1884 19.9441 54.8212 18.0073 53.9497 14.7702C53.4618 12.9561 53.8545 11.1055 54.8665 9.67844C51.884 7.70797 48.2484 6.60172 44.2081 6.61827L44.2121 6.61371ZM59.8201 8.74458C59.4521 8.75257 59.0765 8.79823 58.7044 8.90099C56.3124 9.53859 54.9037 11.9612 55.5442 14.3426C56.1886 16.7195 58.6219 18.122 61.0138 17.485C63.4058 16.8474 64.8105 14.4202 64.1701 12.0434C63.6908 10.2584 62.1995 9.02029 60.4766 8.78568C60.2622 8.75713 60.0432 8.74458 59.8201 8.74458ZM10.0598 9.17213C9.31623 9.17213 8.95272 10.0729 9.48536 10.5872L13.8852 14.9677C14.2114 15.2925 14.732 15.2925 15.0582 14.9677C15.3805 14.6469 15.3805 14.1286 15.0582 13.8038L10.6544 9.42328C10.4973 9.26288 10.2829 9.17213 10.0598 9.17213ZM61.5631 10.4473C62.1995 10.4599 62.5837 11.1591 62.2534 11.702L60.1877 15.1811C59.9606 15.5682 59.4647 15.6995 59.0725 15.4814L57.4322 14.5601C57.0274 14.3381 56.8783 13.8323 57.1059 13.4293C57.333 13.0303 57.8456 12.8904 58.2457 13.1251L59.1757 13.6474L60.8281 10.8629C60.9766 10.6037 61.2575 10.4433 61.5631 10.4473ZM31.4799 12.2488C18.2603 12.6929 10.5392 23.3456 12.5097 34.6113H18.1485C17.9915 34.1878 17.9089 33.7351 17.9089 33.2625C17.9089 31.1196 19.669 29.3672 21.8214 29.3672C23.9737 29.3672 25.7333 31.1196 25.7333 33.2625C25.7333 33.7351 25.6467 34.1878 25.4936 34.6113H31.4925C31.4552 31.3827 31.5212 26.8544 31.5338 25.5627V25.5296V25.5176C31.5544 25.0815 31.9139 24.7361 32.3514 24.7321C32.6036 24.7275 32.8433 24.8389 33.0004 25.0364C33.4052 25.4108 33.9424 25.6409 34.541 25.6409C35.8012 25.6409 36.8011 24.6454 36.8011 23.3953C36.8011 22.1406 35.8012 21.1451 34.541 21.1451C33.9131 21.1451 33.3553 21.3962 32.9425 21.8032C32.9339 21.8158 32.9258 21.8238 32.9132 21.8323C32.9092 21.8363 32.9052 21.8403 32.8972 21.8443C32.8806 21.8609 32.8639 21.8734 32.8473 21.8854C32.8267 21.902 32.802 21.9185 32.7814 21.9311H32.7774C32.2235 22.2519 31.5298 21.8529 31.5338 21.2153C31.5338 19.3892 31.5131 14.6223 31.4799 12.2449V12.2488ZM5.08955 15.6629C4.22208 15.6298 3.89987 16.7812 4.6561 17.2053L10.0472 20.302C11.0018 20.8408 11.8234 19.4263 10.8734 18.8749L5.48229 15.7777C5.36648 15.708 5.23002 15.6669 5.08955 15.6629ZM1.89661 23.2143C0.933972 23.2388 0.780892 24.6043 1.71486 24.8389L7.72979 26.4429C8.78302 26.71 9.20442 25.1431 8.15521 24.8514L2.14028 23.2468C2.06174 23.2223 1.97917 23.2143 1.89661 23.2143ZM21.8214 31.0123C20.5612 31.0123 19.5613 32.0118 19.5613 33.2625C19.5613 33.8875 19.8135 34.4429 20.2223 34.8539C20.2309 34.8625 20.239 34.8705 20.247 34.879C20.2636 34.895 20.2802 34.9156 20.2928 34.9361C20.2969 34.9361 20.2969 34.9407 20.3009 34.9447C20.3135 34.9612 20.3255 34.9772 20.3341 34.9978C20.3381 35.0023 20.3422 35.0103 20.3462 35.0143C20.3588 35.0309 20.3668 35.0474 20.3754 35.064C20.3794 35.072 20.3834 35.0805 20.3874 35.0885C20.396 35.1051 20.4041 35.1256 20.4081 35.1422L20.4207 35.1667C20.4287 35.1873 20.4333 35.2078 20.4413 35.2284V35.2409C20.4494 35.2615 20.454 35.282 20.454 35.3026C20.458 35.3106 20.458 35.3146 20.458 35.3231C20.462 35.3437 20.462 35.3602 20.466 35.3808V35.4053V35.4464V35.4915C20.462 35.4955 20.462 35.5041 20.462 35.5081C20.462 35.5286 20.458 35.5532 20.454 35.5777C20.4494 35.6028 20.4413 35.6274 20.4373 35.6559C20.4287 35.681 20.4207 35.7096 20.4127 35.7341C20.4081 35.7381 20.4081 35.7427 20.4041 35.7427C20.3874 35.7918 20.3628 35.8369 20.3341 35.878C20.3215 35.9031 20.3049 35.9236 20.2883 35.9482C20.1271 36.1457 19.8881 36.261 19.6318 36.2564H12.774C12.7907 36.3181 12.8027 36.3757 12.8193 36.4334C14.4677 42.5617 17.8097 46.3662 20.8421 49.6033C22.358 51.2239 23.8 52.6926 24.8951 54.2635C25.8244 55.6004 26.3984 57.0771 26.5801 58.6891H31.4885C31.4885 55.44 31.4799 52.1697 31.4799 48.9166C31.0545 49.073 30.5958 49.1592 30.1205 49.1592C27.9682 49.1592 26.2086 47.4068 26.2086 45.264C26.2086 43.1211 27.9682 41.3692 30.1205 41.3692C30.5958 41.3692 31.0545 41.4554 31.4799 41.6118L31.4885 36.2564H24.0064H23.9817C23.9531 36.2564 23.9238 36.2524 23.8951 36.2484H23.8911C23.8659 36.2444 23.8413 36.2404 23.8166 36.2359H23.8086C23.7879 36.2319 23.7667 36.2239 23.7507 36.2153C23.7421 36.2153 23.734 36.2113 23.7254 36.2113C23.7094 36.2033 23.6887 36.1948 23.6721 36.1868C23.6635 36.1828 23.6595 36.1828 23.6515 36.1782C23.6308 36.1662 23.6102 36.1577 23.5896 36.1457C23.585 36.1417 23.585 36.1417 23.581 36.1417C23.5643 36.1291 23.5437 36.1166 23.5231 36.1046C23.5231 36.1006 23.519 36.096 23.515 36.092C23.4984 36.08 23.4818 36.0675 23.4657 36.0509C23.4611 36.0469 23.4571 36.0429 23.4491 36.0384C23.4365 36.0264 23.4198 36.0098 23.4078 35.9973C23.3992 35.9933 23.3952 35.9893 23.3912 35.9853C23.3786 35.9687 23.3665 35.9562 23.3579 35.9442C23.3499 35.9356 23.3413 35.9276 23.3373 35.9196C23.3293 35.9071 23.3207 35.8945 23.3126 35.8825C23.304 35.87 23.3 35.862 23.292 35.8494C23.2834 35.8369 23.2754 35.8249 23.2714 35.8123C23.2628 35.8003 23.2587 35.7878 23.2507 35.7752C23.2467 35.7632 23.2421 35.7467 23.2381 35.7341C23.2341 35.7221 23.2301 35.7136 23.2261 35.7016C23.2215 35.685 23.2134 35.6685 23.2094 35.6519C23.2094 35.6439 23.2054 35.6314 23.2008 35.6194C23.2008 35.6068 23.1968 35.5943 23.1968 35.5823C23.1928 35.5657 23.1928 35.5532 23.1888 35.5366V35.5081C23.1848 35.4915 23.1848 35.471 23.1848 35.4544V35.4259V35.3722C23.1888 35.3642 23.1888 35.3517 23.1888 35.3437C23.1888 35.3271 23.1928 35.3066 23.1968 35.29V35.2695C23.2008 35.2489 23.2054 35.2284 23.2134 35.2078C23.2134 35.2078 23.2134 35.2038 23.2175 35.1998C23.2215 35.1793 23.2301 35.1542 23.2381 35.1336C23.2421 35.1256 23.2467 35.1216 23.2507 35.1131C23.2587 35.0965 23.2673 35.076 23.2754 35.0554L23.2834 35.0474C23.3207 34.9772 23.3665 34.9116 23.4239 34.8579C23.8332 34.4509 24.0849 33.8915 24.0849 33.2665C24.0849 32.0164 23.081 31.0208 21.8254 31.0208L21.8214 31.0123ZM7.08937 31.3211H7.08134H0.855426C0.388726 31.3045 0 31.679 0 32.1437C0 32.6123 0.388726 32.9868 0.855426 32.9702H7.08134C7.54804 32.9868 7.93619 32.6169 7.9402 32.1516C7.9402 31.687 7.55607 31.3085 7.08937 31.3211ZM33.1409 36.2564L33.1282 43.0926V43.1376C33.1076 43.9317 32.083 44.2359 31.6244 43.5903C31.2282 43.2324 30.7036 43.0144 30.1205 43.0144C28.8609 43.0144 27.861 44.0099 27.861 45.264C27.861 46.5146 28.8609 47.5101 30.1205 47.5101C30.7036 47.5101 31.2236 47.2961 31.6244 46.9382C32.0871 46.28 33.1282 46.6008 33.1282 47.4068V47.4399C33.1282 51.1788 33.1409 54.9462 33.1449 58.6891H38.028C38.2098 57.0811 38.7797 55.6169 39.705 54.2966C40.7961 52.7457 42.2295 51.2981 43.7414 49.6941C46.7652 46.4901 50.1032 42.6896 51.7888 36.4334C51.8054 36.3803 51.814 36.3101 51.826 36.2564H46.4802C46.6373 36.6805 46.7239 37.1326 46.7239 37.6058C46.7239 39.7487 44.9603 41.5005 42.812 41.5005C40.6596 41.5005 38.8955 39.7487 38.8955 37.6058C38.8955 37.1326 38.9821 36.6805 39.1391 36.2564H33.1409ZM7.9488 37.8193C7.87427 37.8193 7.79974 37.8319 7.72577 37.8484L1.71486 39.4524C1.26823 39.5677 0.999907 40.0198 1.11974 40.4645C1.23956 40.9086 1.69824 41.1677 2.14028 41.0444L8.15521 39.4399C9.10122 39.2013 8.92348 37.8153 7.9488 37.8193ZM10.4973 43.874C10.3408 43.87 10.1837 43.9111 10.0472 43.9893L4.6561 47.086C4.24731 47.3086 4.09825 47.8224 4.33389 48.2254C4.56495 48.6284 5.08554 48.7562 5.48229 48.5136L10.8734 45.4164C11.605 45.0094 11.3361 43.9025 10.4973 43.874ZM14.4551 49.073C14.2407 49.081 14.0383 49.1672 13.8852 49.3236L9.48536 53.7041C9.14651 54.0209 9.13849 54.5558 9.46472 54.8846C9.79554 55.2134 10.3322 55.2054 10.6544 54.868L15.0582 50.4875C15.5995 49.9652 15.2113 49.0525 14.4551 49.073ZM25.688 60.3342C24.9111 60.3342 24.308 60.9347 24.308 61.7081C24.308 62.4816 24.9111 63.0775 25.688 63.0775H38.9161C39.693 63.0775 40.2916 62.4816 40.2916 61.7081C40.2916 60.9347 39.693 60.3342 38.9161 60.3342H25.688ZM25.9483 64.7227L26.0268 71.1889C26.0641 74.6435 28.807 77.3909 32.298 77.3909C35.7885 77.3909 38.528 74.6435 38.5692 71.1889L38.6518 64.7227H25.9483ZM29.1911 70.263H35.413C35.8717 70.259 36.2472 70.6295 36.2472 71.0856C36.2472 71.5422 35.8717 71.9127 35.413 71.9081H29.1911C28.7284 71.9127 28.3569 71.5422 28.3569 71.0856C28.3569 70.6295 28.7284 70.259 29.1911 70.263Z" fill="white"/>
</svg>
