<svg width="78" height="78" viewBox="0 0 78 78" fill="none" xmlns="http://www.w3.org/2000/svg">
<path fill-rule="evenodd" clip-rule="evenodd" d="M24.6899 25.0878C28.4153 24.5031 31.6683 22.813 34.1934 21.0112H43.1974C45.722 22.813 48.9755 24.5031 52.7004 25.0878C53.4908 25.2118 54.063 25.8804 54.063 26.6804V38.6757C54.063 47.3392 45.2676 54.6191 38.6951 56.3798C32.1232 54.6186 23.3278 47.3392 23.3278 38.6757V26.6804C23.3278 25.8804 23.8995 25.2118 24.6899 25.0878ZM14.626 46.3543C14.1693 45.1376 12.9955 44.2711 11.6188 44.2711C9.84517 44.2711 8.40755 45.7093 8.40755 47.4829C8.40755 49.2565 9.84517 50.6942 11.6188 50.6942C12.9955 50.6942 14.1693 49.8282 14.626 48.6116H24.3956C23.895 47.886 23.4377 47.1328 23.0341 46.3543H14.626ZM38.6951 39.9374C37.6612 39.9374 36.8223 40.7758 36.8223 41.8103C36.8223 42.4203 37.1149 42.9626 37.5664 43.3043V44.9251C37.5664 45.5486 38.0722 46.0538 38.6951 46.0538C39.3187 46.0538 39.8238 45.5486 39.8238 44.9251V43.3043C40.2759 42.9626 40.568 42.4203 40.568 41.8103C40.568 40.7758 39.7296 39.9374 38.6951 39.9374ZM31.0363 55.1654C30.2492 54.6202 29.4932 54.0362 28.7789 53.4267V62.7645C27.5623 63.2211 26.6963 64.3954 26.6963 65.7716C26.6963 67.5458 28.134 68.9834 29.9076 68.9834C31.6818 68.9834 33.1194 67.5458 33.1194 65.7716C33.1194 64.3954 32.2535 63.2211 31.0363 62.7645V55.1654ZM47.4827 68.9834C49.2563 68.9834 50.6939 67.5452 50.6939 65.7716C50.6939 64.3954 49.8279 63.2211 48.6113 62.7645V53.4262C47.8976 54.0362 47.1416 54.6197 46.354 55.1648V62.7645C45.1368 63.2211 44.2708 64.3949 44.2708 65.7716C44.2708 67.5452 45.709 68.9834 47.4827 68.9834ZM52.9952 48.611H62.7643C63.2215 49.8282 64.3953 50.6942 65.772 50.6942C67.5456 50.6942 68.9833 49.2565 68.9833 47.4829C68.9833 45.7087 67.5456 44.2711 65.772 44.2711C64.3953 44.2711 63.2215 45.1371 62.7643 46.3543H54.3562C53.9525 47.1323 53.4959 47.886 52.9952 48.611ZM8.40755 29.908C8.40755 28.1344 9.84517 26.6968 11.6188 26.6968C12.9955 26.6968 14.1693 27.5627 14.626 28.7793H21.0705V31.0367H14.626C14.1693 32.2533 12.9955 33.1198 11.6188 33.1198C9.84517 33.1198 8.40755 31.6816 8.40755 29.908ZM28.7789 21.5304C29.553 21.1899 30.3067 20.8009 31.0363 20.3724V14.6265C32.2535 14.1698 33.1194 12.9961 33.1194 11.6193C33.1194 9.84572 31.6818 8.40811 29.9076 8.40811C28.134 8.40811 26.6963 9.84572 26.6963 11.6193C26.6963 12.9961 27.5623 14.1698 28.7789 14.6265V21.5304ZM0 38.6955C0 36.9218 1.43762 35.4837 3.21125 35.4837C4.58798 35.4837 5.76176 36.3496 6.21898 37.5668H21.0705V38.6757C21.0705 39.0613 21.0857 39.4441 21.1144 39.8241H6.21842C5.76176 41.0407 4.58798 41.9067 3.21125 41.9067C1.43762 41.9067 0 40.4691 0 38.6955ZM47.4827 8.40755C45.709 8.40755 44.2708 9.84572 44.2708 11.6193C44.2708 12.9955 45.1374 14.1698 46.354 14.6265V20.3724C47.0835 20.8009 47.8373 21.1899 48.6113 21.5304V14.6265C49.8279 14.1698 50.6945 12.9955 50.6945 11.6193C50.6939 9.84572 49.2563 8.40755 47.4827 8.40755ZM56.3204 28.7793H62.7643C63.2215 27.5627 64.3953 26.6968 65.772 26.6968C67.5456 26.6968 68.9833 28.1344 68.9833 29.908C68.9833 31.6816 67.5456 33.1198 65.772 33.1198C64.3953 33.1198 63.2215 32.2533 62.7643 31.0367H56.3198V28.7793H56.3204ZM38.6951 6.10352e-05C40.4688 6.10352e-05 41.9069 1.43824 41.9069 3.21185C41.9069 4.58801 41.0404 5.76234 39.8238 6.21899V18.7538H37.5664V6.21899C36.3498 5.76234 35.4833 4.58801 35.4833 3.21185C35.4839 1.43824 36.9215 6.10352e-05 38.6951 6.10352e-05ZM77.3908 38.6955C77.3908 36.9218 75.9526 35.4837 74.179 35.4837C72.8028 35.4837 71.6285 36.3496 71.1718 37.5668H56.3198V38.6757C56.3198 39.0613 56.3051 39.4441 56.2764 39.8241H71.1718C71.6285 41.0407 72.8028 41.9067 74.179 41.9067C75.9526 41.9067 77.3908 40.4691 77.3908 38.6955ZM38.6951 77.3909C40.4688 77.3909 41.9069 75.9527 41.9069 74.1791C41.9069 72.8029 41.0404 71.6286 39.8238 71.1719V58.4048C39.45 58.5176 39.0723 58.6157 38.6951 58.7166C38.318 58.6157 37.9402 58.5181 37.5664 58.4048V71.1719C36.3498 71.6286 35.4833 72.8029 35.4833 74.1791C35.4839 75.9527 36.9215 77.3909 38.6951 77.3909ZM32.7586 35.5119H31.5685C30.9455 35.5119 30.4398 36.017 30.4398 36.6405V43.0252C30.4398 47.5675 34.1528 51.2799 38.6951 51.2799C43.238 51.2799 46.9505 47.5675 46.9505 43.0252V36.6405C46.9505 36.017 46.4453 35.5119 45.8218 35.5119H44.6322V32.0475C44.6322 28.7799 41.9627 26.111 38.6951 26.111C35.4281 26.111 32.7586 28.7799 32.7586 32.0475V35.5119ZM42.3749 35.5119V32.0475C42.3749 30.0258 40.7168 28.3678 38.6951 28.3678C36.674 28.3678 35.0159 30.0258 35.0159 32.0475V35.5119H42.3749Z" fill="white"/>
</svg>
