<svg width="78" height="78" viewBox="0 0 78 78" fill="none" xmlns="http://www.w3.org/2000/svg">
<path d="M38.0433 16.9446V20.7732C38.2879 20.692 38.4509 20.692 38.695 20.692C38.9391 20.692 39.102 20.692 39.3467 20.7732V16.9446C43.7458 16.6188 47.1673 12.9532 47.1673 8.47233C47.1673 3.82913 43.3382 1.71661e-05 38.695 1.71661e-05C34.0518 1.71661e-05 30.2227 3.82913 30.2227 8.47233C30.2227 12.9532 33.6442 16.6188 38.0433 16.9446ZM38.695 1.30345C42.6865 1.30345 45.8638 4.56203 45.8638 8.47233C45.8638 12.4644 42.6053 15.6412 38.695 15.6412C34.7847 15.6412 31.5261 12.3826 31.5261 8.47233C31.5261 4.48085 34.7035 1.30345 38.695 1.30345Z" fill="white"/>
<path d="M35.6003 12.7898H41.7916C42.2804 12.7898 42.6875 12.3822 42.6875 11.894V10.6717C42.6875 9.69414 42.1175 8.79831 41.2211 8.47246L40.4882 8.1466C39.9994 8.63538 39.3477 8.8795 38.6142 8.8795C37.8813 8.8795 37.3108 8.63538 36.7408 8.1466L36.0079 8.47246C35.1115 8.8795 34.541 9.77589 34.541 10.6717V11.894C34.7045 12.3822 35.1115 12.7898 35.6003 12.7898Z" fill="white"/>
<path d="M40.7314 5.62096C40.7314 5.93442 40.6796 6.23547 40.5764 6.52525C40.4732 6.81446 40.3261 7.06985 40.135 7.29141C39.9438 7.51297 39.724 7.68379 39.4742 7.80331C39.2245 7.92339 38.9651 7.98315 38.6951 7.98315C38.4245 7.98315 38.1652 7.92339 37.9154 7.80331C37.6662 7.68379 37.4458 7.51297 37.2547 7.29141C37.0636 7.06985 36.9164 6.81446 36.8132 6.52525C36.7101 6.23547 36.6582 5.93442 36.6582 5.62096C36.6582 5.30751 36.7101 5.00646 36.8132 4.71668C36.9164 4.42747 37.0636 4.17208 37.2547 3.95052C37.4458 3.72896 37.6662 3.55814 37.9154 3.43862C38.1652 3.31853 38.4245 3.25878 38.6951 3.25878C38.9651 3.25878 39.2245 3.31853 39.4742 3.43862C39.724 3.55814 39.9438 3.72896 40.135 3.95052C40.3261 4.17208 40.4732 4.42747 40.5764 4.71668C40.6796 5.00646 40.7314 5.30751 40.7314 5.62096Z" fill="white"/>
<path d="M17.3532 25.8239C19.4712 25.8239 21.3452 25.0092 22.8928 23.7875L28.3506 29.2454L29.3282 28.349L23.8703 22.8911C25.1738 21.4248 25.9067 19.4696 25.9067 17.3515C25.9067 12.7083 22.0781 8.87923 17.4349 8.87923C12.7912 8.87923 8.88086 12.6266 8.88086 17.3515C8.88086 22.0765 12.6282 25.8239 17.3532 25.8239ZM17.3532 10.1015C21.3452 10.1015 24.5221 13.3601 24.5221 17.2704C24.5221 21.2618 21.2635 24.4387 17.3532 24.4387C13.3617 24.4387 10.1843 21.1807 10.1843 17.2704C10.1031 13.3601 13.3617 10.1015 17.3532 10.1015Z" fill="white"/>
<path d="M14.2566 21.5876H20.4479C20.9367 21.5876 21.3437 21.18 21.3437 20.6918V19.4696C21.3437 18.492 20.7737 17.5962 19.8774 17.2703L19.1445 17.0256C18.6557 17.5144 18.004 17.7591 17.2705 17.7591C16.5376 17.7591 15.9671 17.5144 15.3971 17.0256L14.6636 17.3515C13.7678 17.7591 13.1973 18.6549 13.1973 19.5513V20.773C13.3602 21.2618 13.7678 21.5876 14.2566 21.5876Z" fill="white"/>
<path d="M17.3527 16.8628C18.4932 16.8628 19.3891 15.804 19.3891 14.5006C19.3891 13.1972 18.4932 12.1379 17.3527 12.1379C16.2122 12.1379 15.3164 13.1972 15.3164 14.5006C15.3164 15.804 16.2122 16.8628 17.3527 16.8628Z" fill="white"/>
<path d="M56.9421 21.5876H63.1334C63.6222 21.5876 64.0293 21.18 64.0293 20.6918V19.4696C64.0293 18.492 63.4593 17.5962 62.5629 17.2703L61.83 16.9444C61.3412 17.4332 60.6895 17.6773 59.956 17.6773C59.2231 17.6773 58.6526 17.4332 58.0826 16.9444L57.3492 17.2703C56.4533 17.6773 55.8828 18.5737 55.8828 19.4696V20.6918C56.0457 21.2618 56.4533 21.5876 56.9421 21.5876Z" fill="white"/>
<path d="M60.0402 16.8628C61.1807 16.8628 62.0766 15.804 62.0766 14.5006C62.0766 13.1972 61.1807 12.1379 60.0402 12.1379C58.8997 12.1379 58.0039 13.1972 58.0039 14.5006C58.0039 15.804 58.9815 16.8628 60.0402 16.8628Z" fill="white"/>
<path d="M16.9446 39.3469H26.4757V38.0435H16.9446C16.6188 33.6444 12.9531 30.2229 8.47231 30.2229C3.82911 30.2229 0 34.052 0 38.6952C0 43.3384 3.82911 47.1675 8.47231 47.1675C12.9531 47.1675 16.6188 43.746 16.9446 39.3469ZM8.47231 45.864C4.48083 45.864 1.30343 42.6055 1.30343 38.6952C1.30343 34.7849 4.56201 31.5263 8.47231 31.5263C12.3826 31.5263 15.6412 34.7849 15.6412 38.6952C15.6412 42.6055 12.4644 45.864 8.47231 45.864Z" fill="white"/>
<path d="M10.9996 38.6949L10.2661 38.369C9.7779 38.8578 9.12618 39.1025 8.39272 39.1025C7.65982 39.1025 7.08929 38.8578 6.51932 38.369L5.94878 38.6949C5.05296 39.1025 4.48242 39.9166 4.48242 40.8941V42.1164C4.48242 42.6052 4.89003 43.0122 5.37881 43.0122H11.5696C12.0589 43.0122 12.4659 42.6052 12.4659 42.1164V40.8941C12.4659 39.9166 11.896 39.1025 10.9996 38.6949Z" fill="white"/>
<path d="M10.5107 35.8439C10.5107 36.1573 10.4589 36.4584 10.3557 36.7481C10.2525 37.0374 10.1054 37.2927 9.91426 37.5143C9.72314 37.7359 9.50327 37.9067 9.25352 38.0262C9.00377 38.1463 8.74444 38.2061 8.47383 38.2061C8.20379 38.2061 7.94445 38.1463 7.6947 38.0262C7.44552 37.9067 7.22508 37.7359 7.03397 37.5143C6.84285 37.2927 6.69571 37.0374 6.59254 36.7481C6.48937 36.4584 6.4375 36.1573 6.4375 35.8439C6.4375 35.5304 6.48937 35.2294 6.59254 34.9396C6.69571 34.6504 6.84285 34.395 7.03397 34.1734C7.22508 33.9519 7.44552 33.781 7.6947 33.6615C7.94445 33.5414 8.20379 33.4817 8.47383 33.4817C8.74444 33.4817 9.00377 33.5414 9.25352 33.6615C9.50327 33.781 9.72314 33.9519 9.91426 34.1734C10.1054 34.395 10.2525 34.6504 10.3557 34.9396C10.4589 35.2294 10.5107 35.5304 10.5107 35.8439Z" fill="white"/>
<path d="M39.3467 60.446V50.1003H38.0433V60.446C33.6442 60.7719 30.2227 64.4375 30.2227 68.9183C30.2227 73.5615 34.0518 77.3906 38.695 77.3906C43.3387 77.3906 47.1673 73.5615 47.1673 68.9183C47.1673 64.4375 43.7458 60.7719 39.3467 60.446ZM38.695 76.0872C34.7035 76.0872 31.5261 72.8286 31.5261 68.9183C31.5261 64.9263 34.7847 61.7494 38.695 61.7494C42.6865 61.7494 45.8638 65.008 45.8638 68.9183C45.8638 72.9098 42.6865 76.0872 38.695 76.0872Z" fill="white"/>
<path d="M41.2211 68.9183L40.4882 68.5924C39.9994 69.0812 39.3477 69.3259 38.6142 69.3259C37.8813 69.3259 37.3108 69.0812 36.7408 68.5924L36.0074 68.9183C35.1115 69.3259 34.541 70.2217 34.541 71.1175V72.3398C34.541 72.8286 34.9486 73.2356 35.4374 73.2356H41.6287C42.1169 73.2356 42.5245 72.8286 42.5245 72.3398V71.1175C42.6875 70.1399 42.1169 69.3259 41.2211 68.9183Z" fill="white"/>
<path d="M38.6945 68.4292C39.835 68.4292 40.7309 67.3699 40.7309 66.067C40.7309 64.7636 39.835 63.7043 38.6945 63.7043C37.554 63.7043 36.6582 64.7636 36.6582 66.067C36.6582 67.3699 37.554 68.4292 38.6945 68.4292Z" fill="white"/>
<path d="M19.8774 60.0386L19.1439 59.7128C18.6557 60.2015 18.004 60.4457 17.2705 60.4457C16.5376 60.4457 15.9671 60.2015 15.3971 59.7128L14.6636 60.0386C13.7678 60.4457 13.1973 61.3421 13.1973 62.2379V63.4601C13.1973 63.9489 13.6049 64.356 14.0937 64.356H20.285C20.7732 64.356 21.1808 63.9489 21.1808 63.4601V62.3196C21.3437 61.3421 20.7732 60.4457 19.8774 60.0386Z" fill="white"/>
<path d="M17.3527 59.5498C18.4932 59.5498 19.3891 58.491 19.3891 57.1876C19.3891 55.8842 18.4932 54.8249 17.3527 54.8249C16.2122 54.8249 15.3164 55.8842 15.3164 57.1876C15.3164 58.491 16.2122 59.5498 17.3527 59.5498Z" fill="white"/>
<path d="M60.0393 51.5664C57.9212 51.5664 56.0478 52.381 54.4997 53.6027L50.9153 50.0188C50.7523 50.0188 50.5894 50.1 50.4265 50.1H49.123L53.5221 54.4991C52.2187 55.9654 51.4858 57.9206 51.4858 60.0387C51.4858 64.6819 55.3144 68.511 59.9581 68.511C64.6013 68.511 68.4299 64.6819 68.4299 60.0387C68.5116 55.3949 64.7642 51.5664 60.0393 51.5664ZM60.0393 67.2887C56.0478 67.2887 52.8704 64.0302 52.8704 60.1199C52.8704 56.1284 56.129 52.951 60.0393 52.951C64.0308 52.951 67.2082 56.2096 67.2082 60.1199C67.2894 64.0302 64.0308 67.2887 60.0393 67.2887Z" fill="white"/>
<path d="M62.5629 60.0386L61.8294 59.7128C61.3407 60.2015 60.6895 60.4457 59.956 60.4457C59.2231 60.4457 58.6526 60.2015 58.0821 59.7128L57.3492 60.0386C56.4533 60.4457 55.8828 61.3421 55.8828 62.2379V63.4601C55.8828 63.9489 56.2904 64.356 56.7786 64.356H63.1329C63.6217 64.356 64.0293 63.9489 64.0293 63.4601V62.3196C64.0293 61.3421 63.4587 60.4457 62.5629 60.0386Z" fill="white"/>
<path d="M60.0402 59.5498C61.1807 59.5498 62.0766 58.491 62.0766 57.1876C62.0766 55.8842 61.1807 54.8249 60.0402 54.8249C58.8997 54.8249 58.0039 55.8842 58.0039 57.1876C58.0851 58.491 58.9815 59.5498 60.0402 59.5498Z" fill="white"/>
<path d="M68.9174 30.2229C64.4372 30.2229 60.771 33.6444 60.4451 38.0435H50.9141V39.3469H60.5269C60.8527 43.746 64.5184 47.1675 68.9992 47.1675C73.6424 47.1675 77.4709 43.3384 77.4709 38.6952C77.4709 34.0514 73.5606 30.2229 68.9174 30.2229ZM68.9174 45.864C64.926 45.864 61.7486 42.6055 61.7486 38.6952C61.7486 34.7031 65.0071 31.5263 68.9174 31.5263C72.9095 31.5263 76.0863 34.7849 76.0863 38.6952C76.0863 42.6866 72.9095 45.864 68.9174 45.864Z" fill="white"/>
<path d="M71.4449 38.6949L70.7114 38.369C70.2232 38.8578 69.5715 39.1025 68.838 39.1025C68.1051 39.1025 67.5346 38.8578 66.9646 38.369L66.3941 38.6949C65.4983 39.1025 64.9277 39.9983 64.9277 40.8941V42.1164C64.9277 42.6052 65.3353 43.0122 65.8241 43.0122H72.0149C72.5042 43.0122 72.9113 42.6052 72.9113 42.1164V40.8941C72.9113 39.9166 72.3413 39.1025 71.4449 38.6949Z" fill="white"/>
<path d="M68.9172 38.2063C70.0577 38.2063 70.9541 37.147 70.9541 35.8441C70.9541 34.5407 70.0577 33.4814 68.9172 33.4814C67.7767 33.4814 66.8809 34.5407 66.8809 35.8441C66.8809 37.147 67.7767 38.2063 68.9172 38.2063Z" fill="white"/>
<path d="M26.884 50.1C26.721 50.1 26.5581 50.1 26.3952 50.0188L22.8107 53.6027C21.3444 52.2993 19.3892 51.5664 17.2711 51.5664C12.6279 51.5664 8.79883 55.3949 8.79883 60.0387C8.79883 64.6819 12.6279 68.511 17.2711 68.511C21.9149 68.511 25.8252 64.7636 25.8252 60.0387C25.8252 57.9206 25.0105 56.0466 23.7883 54.4991L28.2686 50.0183H26.884V50.1ZM17.3529 67.2887C13.3608 67.2887 10.184 64.0302 10.184 60.1199C10.184 56.1284 13.4426 52.951 17.3529 52.951C21.3444 52.951 24.5218 56.2096 24.5218 60.1199C24.5218 64.0302 21.2632 67.2887 17.3529 67.2887Z" fill="white"/>
<path d="M49.1241 29.1641L54.5819 23.7062C56.0483 25.0097 58.0034 25.7426 60.1215 25.7426C64.7652 25.7426 68.5938 21.914 68.5938 17.2702C68.5938 12.627 64.7652 8.87967 60.0403 8.87967C55.3965 8.87967 51.568 12.7082 51.568 17.352C51.568 19.4701 52.3826 21.4252 53.6043 22.8916L48.1465 28.3494L49.1241 29.1641ZM60.0403 10.1014C64.0318 10.1014 67.2086 13.3599 67.2086 17.2702C67.2086 21.2623 63.9506 24.4391 60.0403 24.4391C56.0483 24.4391 52.8714 21.1805 52.8714 17.2702C52.8714 13.3599 56.13 10.1014 60.0403 10.1014Z" fill="white"/>
<path d="M50.9974 35.9255C51.8932 35.9255 52.3008 34.8668 51.6491 34.2963L39.3482 22.973C39.0224 22.6471 38.4519 22.6471 38.0448 22.973L25.7434 34.2151C25.0922 34.785 25.4993 35.8438 26.3957 35.8438H28.5132V45.6195H26.9656C26.3139 45.6195 25.7434 46.1901 25.7434 46.8418C25.7434 47.4935 26.3139 48.0635 26.9656 48.0635H50.5086C51.1603 48.0635 51.7303 47.4935 51.7303 46.8418C51.7303 46.1901 51.1603 45.6195 50.5086 45.6195H48.9605V35.8438H50.9974V35.9255ZM34.2157 43.5832C34.2157 44.2349 33.6457 44.8049 32.994 44.8049C32.6682 44.8049 32.3423 44.642 32.1794 44.479C31.9347 44.2349 31.8535 43.9902 31.8535 43.6644V37.229C31.8535 36.5773 32.4235 36.0067 33.0752 36.0067C33.4011 36.0067 33.7269 36.1697 33.8898 36.3326C34.1345 36.5773 34.2157 36.8214 34.2157 37.1472V43.5832ZM39.9182 43.5832C39.9182 44.2349 39.3482 44.8049 38.6965 44.8049C38.3707 44.8049 38.0448 44.642 37.8819 44.479C37.6372 44.2349 37.556 43.9902 37.556 43.6644V37.229C37.556 36.5773 38.126 36.0067 38.7777 36.0067C39.1036 36.0067 39.4294 36.1697 39.5924 36.3326C39.837 36.5773 39.9182 36.8214 39.9182 37.1472V43.5832ZM40.407 31.6894C40.1629 31.9341 39.9182 32.0152 39.5924 32.0152H37.8001C37.1484 32.0152 36.5785 31.4453 36.5785 30.7936C36.5785 30.4677 36.7414 30.1418 36.9043 29.9789C37.1484 29.7342 37.3931 29.6531 37.719 29.6531H39.5112C40.1629 29.6531 40.7329 30.223 40.7329 30.8747C40.7329 31.1194 40.6517 31.4453 40.407 31.6894ZM45.5396 43.5832C45.5396 44.2349 44.969 44.8049 44.3173 44.8049C43.9914 44.8049 43.6656 44.642 43.5027 44.479C43.2585 44.2349 43.1768 43.9902 43.1768 43.6644V37.229C43.1768 36.5773 43.7473 36.0067 44.399 36.0067C44.7249 36.0067 45.0508 36.1697 45.2137 36.3326C45.4578 36.5773 45.5396 36.8214 45.5396 37.1472V43.5832Z" fill="white"/>
</svg>
