<svg width="77" height="77" viewBox="0 0 77 77" fill="none" xmlns="http://www.w3.org/2000/svg">
<path fill-rule="evenodd" clip-rule="evenodd" d="M45.3414 52.6642C40.8221 50.9652 40.3835 44.7702 44.5339 42.4074C45.474 44.9741 46.6832 50.0758 45.3414 52.6642ZM47.2867 66.1988C47.7153 65.7702 48.4102 65.7702 48.8392 66.1988C49.2678 66.6273 49.2678 67.3227 48.8392 67.7513L46.3277 70.2622C50.7746 70.4628 55.0922 69.3545 58.809 67.2079C63.1595 64.6958 66.6897 60.7667 68.644 55.8573C68.8669 55.2961 69.5027 55.0214 70.0639 55.2443C70.625 55.4666 70.8997 56.1025 70.6768 56.6636C68.5325 62.0489 64.6674 66.3542 59.9068 69.1032C55.9899 71.365 51.4678 72.5759 46.7986 72.4712L48.8387 74.5118C49.2678 74.9404 49.2678 75.6353 48.8387 76.0643C48.4102 76.4929 47.7153 76.4929 47.2862 76.0643L43.1296 71.9078C42.7011 71.4787 42.7011 70.7838 43.1296 70.3553L47.2867 66.1988ZM30.5664 28.6311C31.9272 27.3817 33.1849 26.5001 34.7775 25.5807C38.6945 23.3193 43.2166 22.1084 47.8858 22.2126L45.8457 20.1725C45.4166 19.744 45.4166 19.0491 45.8457 18.62C46.2742 18.1915 46.9691 18.1915 47.3982 18.62L51.5547 22.7766C51.9833 23.2051 51.9833 23.9005 51.5547 24.3291L47.3982 28.4856C46.9691 28.9141 46.2742 28.9141 45.8457 28.4856C45.4166 28.0571 45.4166 27.3616 45.8457 26.9331L48.3567 24.4221C43.9103 24.2215 39.5928 25.3299 35.8753 27.4764C34.8154 28.0883 32.8394 29.5695 32.84 29.5695C32.1027 29.2178 31.3443 28.9041 30.5664 28.6311ZM25.4987 59.7631C26.3235 59.7296 27.1437 59.6795 27.9551 59.6126C27.9005 59.5028 27.5567 58.9484 27.4764 58.809C25.3299 55.0922 24.2215 50.7746 24.4221 46.3277L26.9331 48.8387C27.3622 49.2678 28.0571 49.2678 28.4856 48.8387C28.9147 48.4102 28.9147 47.7153 28.4856 47.2862L24.3291 43.1302C23.9005 42.7011 23.2056 42.7011 22.7766 43.1302L18.62 47.2862C18.1915 47.7153 18.1915 48.4102 18.62 48.8387C19.0491 49.2678 19.744 49.2678 20.1725 48.8387L22.2126 46.7986C22.1095 51.4104 23.2898 55.8796 25.4987 59.7631ZM27.9735 59.631C29.8603 59.4828 31.4602 59.2465 33.2039 58.9199C32.8372 58.658 32.5196 58.3164 32.2794 57.9013C31.7422 56.9701 31.2044 56.0389 30.6667 55.1078C29.7695 53.5536 30.3045 51.5581 31.8587 50.6609C32.9146 50.0513 32.7051 48.4603 31.5271 48.1444C29.7991 47.6813 28.762 45.8858 29.2256 44.1578C29.5037 43.1191 29.7818 42.0809 30.0604 41.0422C30.5235 39.3141 32.3189 38.2771 34.047 38.7407C35.2311 39.0578 36.2052 37.7884 35.5922 36.7268C34.6951 35.1732 35.2295 33.1771 36.7836 32.2799L37.0177 32.1451C35.7277 31.1448 34.3284 30.2794 32.84 29.5695C29.8921 31.9707 27.5165 35.1191 26.0404 38.8271C25.8175 39.3882 25.1822 39.663 24.6205 39.4401C24.0594 39.2177 23.7846 38.5819 24.0075 38.0208C25.4753 34.334 27.75 31.1532 30.5664 28.6311C28.1875 27.7963 25.6291 27.3421 22.9649 27.3421C10.2824 27.3421 0 37.6234 0 50.3059C0 57.3502 12.9004 60.5449 25.4987 59.7631C28.2477 64.5237 32.6355 68.5325 38.0207 70.6768C38.5819 70.8997 39.2177 70.625 39.4406 70.0639C39.663 69.5021 39.3882 68.8669 38.8271 68.644C31.8191 65.8538 28.1981 60.0021 27.9735 59.631ZM66.1988 47.3982C65.7702 46.9691 65.7702 46.2742 66.1988 45.8457C66.6273 45.4166 67.3227 45.4166 67.7513 45.8457L70.2622 48.3567C70.4629 43.9104 69.3545 39.5922 67.2079 35.8753C64.6958 31.5249 60.7672 27.9952 55.8578 26.0404C55.2961 25.8175 55.0219 25.1817 55.2443 24.6205C55.4666 24.0594 56.1025 23.7846 56.6636 24.007C62.0489 26.1513 66.3542 30.0164 69.1031 34.777C71.365 38.6939 72.5759 43.2166 72.4712 47.8852L74.5118 45.8451C74.9404 45.4166 75.6353 45.4166 76.0643 45.8451C76.4929 46.2742 76.4929 46.9691 76.0643 47.3976L71.9078 51.5542C71.4787 51.9833 70.7838 51.9833 70.3553 51.5542L66.1988 47.3982ZM61.2058 53.8239C61.7714 53.9754 62.352 53.6394 62.5031 53.0744L63.3378 49.9593C63.4894 49.3943 63.1545 48.8131 62.5889 48.6615C59.5212 47.8395 58.9779 43.7103 61.7279 42.1227C62.235 41.8301 62.4083 41.182 62.1158 40.6755L60.5031 37.882C60.2105 37.3755 59.5624 37.2016 59.0559 37.4942C56.3053 39.0823 53.0014 36.5468 53.8233 33.4791C53.9749 32.9135 53.6394 32.3329 53.0744 32.1819L49.9588 31.3471C49.3937 31.1955 48.8125 31.531 48.6615 32.0961C47.839 35.1637 43.7103 35.707 42.1221 32.957C41.8296 32.4505 41.1815 32.2766 40.6749 32.5692L37.8814 34.1818C37.3749 34.4744 37.2016 35.1225 37.4936 35.629C39.0818 38.3796 36.5468 41.6836 33.4786 40.8616C32.9135 40.71 32.3329 41.0461 32.1813 41.6106L31.3465 44.7262C31.195 45.2912 31.5304 45.8724 32.0955 46.024C35.1637 46.846 35.707 50.9746 32.9564 52.5628C32.4499 52.8554 32.2766 53.5034 32.5692 54.01L34.1818 56.8035C34.4744 57.31 35.1225 57.4839 35.629 57.1913C38.383 55.6015 41.6847 58.1348 40.8616 61.2063C40.71 61.7714 41.0455 62.352 41.6106 62.5036L44.7262 63.3384C45.2912 63.49 45.8719 63.1545 46.0234 62.5894C46.8454 59.5212 50.9746 58.9779 52.5622 61.7285C52.8548 62.235 53.5029 62.4089 54.01 62.1163L56.8035 60.5036C57.31 60.2111 57.4833 59.563 57.1908 59.0565C55.6026 56.3059 58.1381 53.0014 61.2058 53.8239ZM49.382 39.7293C45.1775 38.6031 40.856 41.0979 39.7293 45.3024C38.6025 49.5074 41.0979 53.8289 45.3024 54.9551C49.5068 56.0818 53.8283 53.587 54.9551 49.382C56.0818 45.1781 53.5865 40.856 49.382 39.7293ZM8.36435 4.36552H10.1559V11.8433H8.36435C7.60704 11.8433 6.98627 11.2231 6.98627 10.4652V5.74361C6.98627 4.98574 7.60649 4.36552 8.36435 4.36552ZM15.1216 0C13.5958 0 12.352 1.24435 12.352 2.76955V18.4567C12.352 19.9819 13.5958 21.2263 15.1216 21.2263H30.8082C32.334 21.2263 33.5778 19.9819 33.5778 18.4567V2.76955C33.5778 1.24435 32.334 0 30.8082 0H15.1216ZM28.1312 5.94923C29.3209 5.94923 30.2861 6.91439 30.2861 8.10468C30.2861 9.29442 29.3209 10.2596 28.1312 10.2596C26.9409 10.2596 25.9757 9.29442 25.9757 8.10468C25.9757 6.91439 26.9409 5.94923 28.1312 5.94923ZM25.7205 14.1787C26.3268 14.1787 26.8183 14.6708 26.8183 15.2771C26.8183 15.8834 26.3268 16.3749 25.7205 16.3749H20.2093C19.6025 16.3749 19.111 15.8834 19.111 15.2771C19.111 14.6708 19.6025 14.1787 20.2093 14.1787H25.7205ZM17.7986 5.94923C18.9889 5.94923 19.9535 6.91439 19.9535 8.10468C19.9535 9.29442 18.9889 10.2596 17.7986 10.2596C16.6083 10.2596 15.6437 9.29442 15.6437 8.10468C15.6437 6.91439 16.6083 5.94923 17.7986 5.94923ZM35.7739 4.36552H37.5655C38.3233 4.36552 38.9436 4.98574 38.9436 5.74361V10.4652C38.9436 11.2231 38.3228 11.8433 37.5655 11.8433H35.7739V4.36552Z" fill="white"/>
</svg>
