<svg width="74" height="78" viewBox="0 0 74 78" fill="none" xmlns="http://www.w3.org/2000/svg">
<path d="M15.5848 42.5129C15.0397 40.6669 14.7635 38.7146 14.7635 36.6976C14.7635 24.8073 24.4578 15.1375 36.3401 15.1375C39.8781 15.1375 43.2608 15.9996 46.1969 17.5285L50.0605 13.6655C46.0344 11.2744 41.3501 9.86722 36.3401 9.86722C21.5137 9.86722 9.50977 21.9121 9.50977 36.6976C9.50977 39.4955 9.93261 42.1878 10.7374 44.7249C11.9576 43.3506 13.6899 42.5538 15.5848 42.5129Z" fill="white"/>
<path d="M55.4856 26.8651C56.99 29.8256 57.8766 33.16 57.8766 36.698C57.8766 48.5883 48.2227 58.2581 36.3324 58.2581H36.0317C36.2756 60.104 35.747 61.983 34.5273 63.447C35.1287 63.5039 35.7305 63.5283 36.3409 63.5283C51.1264 63.5283 63.1304 51.4999 63.1304 36.698C63.1304 31.7125 61.7641 27.0032 59.3486 23.002L55.4856 26.8651Z" fill="white"/>
<path d="M36.3327 25.2627C36.9914 25.2627 37.6501 25.3116 38.2764 25.4497L42.5134 21.2127C40.5941 20.4239 38.5123 20.001 36.3327 20.001C27.1017 20.001 19.6035 27.4992 19.6035 36.6978C19.6035 45.9283 27.1017 53.427 36.3327 53.427C45.5308 53.427 53.0295 45.9283 53.0295 36.6978C53.0295 34.5182 52.6066 32.4358 51.8178 30.5165L47.5808 34.7541C47.7109 35.3884 47.7678 36.0471 47.7678 36.6978C47.7678 43.0087 42.6356 48.1653 36.3247 48.1653C30.0133 48.1653 24.8573 43.0087 24.8573 36.6978C24.8652 30.3864 30.0218 25.2627 36.3327 25.2627Z" fill="white"/>
<path d="M72.8904 8.41148C72.5812 7.6715 71.8656 7.19181 71.0688 7.19181H65.8389V1.97044C65.8389 1.17306 65.3592 0.449558 64.6193 0.148335C63.8793 -0.152317 63.033 0.010231 62.4721 0.579708L57.0717 5.97954C56.7056 6.35408 56.4942 6.85024 56.4942 7.37027V12.8275L38.7324 30.5735C37.9838 30.2808 37.1705 30.1017 36.3249 30.1017C32.6892 30.1017 29.7207 33.0622 29.7207 36.7059C29.7207 40.3495 32.6812 43.3015 36.3249 43.3015C39.9685 43.3015 42.9205 40.341 42.9205 36.7059C42.9205 35.8517 42.7415 35.0469 42.4488 34.2984L60.2032 16.5445H65.6605C66.1805 16.5445 66.6852 16.333 67.0512 15.967L72.451 10.5666C73.0205 9.99716 73.191 9.15146 72.8904 8.41148Z" fill="white"/>
<path d="M29.6054 57.0299L21.7737 55.9728C21.4724 55.9319 21.2042 55.7449 21.074 55.4687L17.6503 48.336C16.8774 46.7253 14.5841 46.7253 13.8112 48.336L10.3789 55.4602C10.2494 55.7369 9.98906 55.9239 9.68784 55.9643L1.85606 57.022C0.082833 57.2658 -0.632711 59.4454 0.66027 60.6815L6.37781 66.1467C6.59719 66.3581 6.69494 66.6673 6.64606 66.9685L5.23089 74.7435C4.91375 76.5002 6.76826 77.8501 8.33802 77.0044L15.2997 73.255C15.5679 73.1089 15.8936 73.1089 16.1618 73.255L23.1235 77.0044C24.6932 77.8501 26.5472 76.5082 26.23 74.7514L24.8154 66.9765C24.758 66.6753 24.8637 66.3667 25.0837 66.1553L30.8012 60.6895C32.0863 59.4454 31.3787 57.2658 29.6054 57.0299Z" fill="white"/>
</svg>
